<svg width="31" height="31" viewBox="0 0 31 31" fill="none" xmlns="http://www.w3.org/2000/svg">
<path d="M24.498 28.5015H2.49805V6.50146H14.718C15.2703 6.50146 15.718 6.05375 15.718 5.50146V5.50146C15.718 4.94918 15.2703 4.50146 14.718 4.50146H2.49805C1.96761 4.50146 1.45891 4.71218 1.08383 5.08725C0.70876 5.46232 0.498047 5.97103 0.498047 6.50146V28.5015C0.498047 29.0319 0.70876 29.5406 1.08383 29.9157C1.45891 30.2908 1.96761 30.5015 2.49805 30.5015H24.498C25.0285 30.5015 25.5372 30.2908 25.9123 29.9157C26.2873 29.5406 26.498 29.0319 26.498 28.5015V16.5015C26.498 15.9492 26.0503 15.5015 25.498 15.5015V15.5015C24.9458 15.5015 24.498 15.9492 24.498 16.5015V28.5015Z" fill="#CDCDCD"/>
<path d="M30.0285 4.34165L26.6585 0.971653C26.5089 0.821684 26.3313 0.702697 26.1356 0.621511C25.94 0.540325 25.7303 0.498535 25.5185 0.498535C25.3067 0.498535 25.097 0.540325 24.9014 0.621511C24.7057 0.702697 24.5281 0.821684 24.3785 0.971653L11.2718 14.1548C10.8775 14.5515 10.6018 15.0504 10.4761 15.5954L9.55849 19.5717C9.5112 19.8048 9.51618 20.0456 9.57305 20.2766C9.62992 20.5076 9.73729 20.7231 9.88742 20.9077C10.0375 21.0922 10.2267 21.2412 10.4413 21.3439C10.6559 21.4466 10.8906 21.5005 11.1285 21.5017C11.2515 21.5152 11.3755 21.5152 11.4985 21.5017L15.4855 20.6221C16.0488 20.4978 16.5644 20.2137 16.9705 19.8038L30.0285 6.62165C30.1785 6.47209 30.2974 6.29441 30.3786 6.09879C30.4598 5.90317 30.5016 5.69345 30.5016 5.48165C30.5016 5.26985 30.4598 5.06014 30.3786 4.86451C30.2974 4.66889 30.1785 4.49121 30.0285 4.34165ZM15.3085 18.5817L11.6485 19.3917L12.4985 15.7617L22.8185 5.37165L25.6385 8.19165L15.3085 18.5817ZM26.7685 7.06165L23.9485 4.24165L25.4985 2.66165L28.3385 5.50165L26.7685 7.06165Z" fill="#CDCDCD"/>
</svg>
