<svg width="31" height="31" viewBox="0 0 31 31" fill="none" xmlns="http://www.w3.org/2000/svg">
<path d="M24.0093 28.0032H2.00928V6.00317H14.2293C14.7816 6.00317 15.2293 5.55546 15.2293 5.00317C15.2293 4.45089 14.7816 4.00317 14.2293 4.00317H2.00928C1.47884 4.00317 0.970136 4.21389 0.595064 4.58896C0.219991 4.96403 0.00927734 5.47274 0.00927734 6.00317V28.0032C0.00927734 28.5336 0.219991 29.0423 0.595064 29.4174C0.970136 29.7925 1.47884 30.0032 2.00928 30.0032H24.0093C24.5397 30.0032 25.0484 29.7925 25.4235 29.4174C25.7986 29.0423 26.0093 28.5336 26.0093 28.0032V16.0032C26.0093 15.4509 25.5616 15.0032 25.0093 15.0032C24.457 15.0032 24.0093 15.4509 24.0093 16.0032V28.0032Z" fill="white"/>
<path d="M29.5392 3.84312L26.1692 0.473118C26.0197 0.323149 25.842 0.204162 25.6464 0.122976C25.4508 0.04179 25.241 0 25.0292 0C24.8174 0 24.6077 0.04179 24.4121 0.122976C24.2165 0.204162 24.0388 0.323149 23.8892 0.473118L10.7825 13.6563C10.3882 14.0529 10.1126 14.5519 9.98683 15.0969L9.06924 19.0731C9.02195 19.3063 9.02692 19.547 9.08379 19.778C9.14067 20.009 9.24803 20.2246 9.39816 20.4091C9.54829 20.5937 9.73745 20.7427 9.95205 20.8454C10.1666 20.9481 10.4013 21.002 10.6392 21.0031C10.7622 21.0167 10.8863 21.0167 11.0092 21.0031L14.9962 20.1235C15.5596 19.9992 16.0752 19.7151 16.4812 19.3052L29.5392 6.12312C29.6892 5.97356 29.8082 5.79588 29.8894 5.60026C29.9706 5.40464 30.0124 5.19492 30.0124 4.98312C30.0124 4.77132 29.9706 4.5616 29.8894 4.36598C29.8082 4.17036 29.6892 3.99268 29.5392 3.84312ZM14.8192 18.0831L11.1592 18.8931L12.0092 15.2631L22.3292 4.87312L25.1492 7.69312L14.8192 18.0831ZM26.2792 6.56312L23.4592 3.74312L25.0092 2.16312L27.8492 5.00312L26.2792 6.56312Z" fill="white"/>
</svg>
