<svg width="423" height="82" viewBox="0 0 423 82" fill="none" xmlns="http://www.w3.org/2000/svg">
<g filter="url(#filter0_d_10175_3746)">
<rect x="4" y="4" width="415" height="74" rx="20" fill="#2A3647" shape-rendering="crispEdges"/>
<g clip-path="url(#clip0_10175_3746)">
<path d="M61.9078 22.2579C62.001 22.025 62.0238 21.77 61.9734 21.5243C61.923 21.2786 61.8016 21.0531 61.6243 20.8758C61.4469 20.6984 61.2215 20.577 60.9758 20.5266C60.7301 20.4762 60.475 20.499 60.2422 20.5922L22.9655 35.5034C22.6372 35.6348 22.3515 35.8543 22.1399 36.1376C21.9283 36.4209 21.799 36.7571 21.7661 37.1091C21.7333 37.4612 21.7982 37.8155 21.9537 38.1331C22.1093 38.4506 22.3494 38.7191 22.6477 38.909L35.4474 47.0526L39.3706 53.218C39.5559 53.4977 39.8435 53.6936 40.1717 53.7636C40.4999 53.8335 40.8424 53.772 41.1257 53.5921C41.4089 53.4122 41.6103 53.1283 41.6866 52.8016C41.7628 52.4748 41.7078 52.1311 41.5334 51.8445L38.0074 46.3044L57.2107 27.101L52.3548 39.2421C52.2881 39.399 52.2534 39.5677 52.2527 39.7382C52.2519 39.9086 52.2853 40.0776 52.3507 40.235C52.4161 40.3925 52.5123 40.5353 52.6336 40.6551C52.7549 40.7749 52.8989 40.8693 53.0572 40.9327C53.2154 40.9962 53.3847 41.0274 53.5552 41.0245C53.7257 41.0217 53.8939 40.9849 54.0499 40.9162C54.206 40.8475 54.3468 40.7484 54.464 40.6246C54.5813 40.5008 54.6727 40.3549 54.7328 40.1954L61.9078 22.2579V22.2579ZM55.399 25.2893L36.1957 44.4927L25.077 37.4176L55.399 25.2893V25.2893Z" fill="white"/>
<path d="M62 52.5312C62 54.9099 61.0551 57.1911 59.3731 58.8731C57.6911 60.5551 55.4099 61.5 53.0312 61.5C50.6526 61.5 48.3714 60.5551 46.6894 58.8731C45.0074 57.1911 44.0625 54.9099 44.0625 52.5312C44.0625 50.1526 45.0074 47.8714 46.6894 46.1894C48.3714 44.5074 50.6526 43.5625 53.0312 43.5625C55.4099 43.5625 57.6911 44.5074 59.3731 46.1894C61.0551 47.8714 62 50.1526 62 52.5312V52.5312ZM56.8929 48.2288C56.7486 48.1423 56.5886 48.0851 56.4221 48.0604C56.2556 48.0357 56.0859 48.0441 55.9227 48.085C55.7595 48.126 55.6059 48.1986 55.4707 48.2989C55.3356 48.3992 55.2215 48.5252 55.1351 48.6696L52.1369 53.6664L50.7353 52.2647C50.4947 52.0242 50.1684 51.889 49.8281 51.889C49.4879 51.889 49.1616 52.0242 48.921 52.2647C48.6804 52.5053 48.5453 52.8316 48.5453 53.1719C48.5453 53.5121 48.6804 53.8384 48.921 54.079L50.9044 56.0598C51.1108 56.2667 51.3617 56.4237 51.638 56.519C51.9142 56.6143 52.2086 56.6453 52.4986 56.6097C52.7887 56.5742 53.0668 56.4729 53.3119 56.3137C53.5569 56.1544 53.7624 55.9414 53.9127 55.6908L57.3337 49.9867C57.4202 49.8423 57.4774 49.6823 57.5021 49.5159C57.5268 49.3494 57.5184 49.1797 57.4775 49.0164C57.4365 48.8532 57.3639 48.6996 57.2636 48.5645C57.1633 48.4293 57.0373 48.3153 56.8929 48.2288V48.2288Z" fill="white"/>
</g>
<path d="M84.5444 50L82.5229 44.7891H75.9419L73.9316 50H72L78.4238 33.5137H80.1421L86.521 50H84.5444ZM81.9502 43.0933L80.0298 37.916C79.9849 37.7812 79.91 37.5604 79.8052 37.2534C79.7078 36.9465 79.6068 36.6283 79.502 36.2988C79.3971 35.9694 79.311 35.7036 79.2437 35.5015C79.1688 35.8084 79.0864 36.1154 78.9966 36.4224C78.9142 36.7218 78.8319 37.0026 78.7495 37.2646C78.6672 37.5192 78.596 37.7363 78.5361 37.916L76.582 43.0933H81.9502ZM94.3486 37.4668C95.8086 37.4668 96.9129 37.8262 97.6616 38.5449C98.4103 39.2562 98.7847 40.4017 98.7847 41.9814V50H96.9429V42.105C96.9429 41.0793 96.707 40.3118 96.2354 39.8027C95.7712 39.2936 95.0562 39.0391 94.0903 39.0391C92.7277 39.0391 91.7694 39.4246 91.2153 40.1958C90.6613 40.967 90.3843 42.0863 90.3843 43.5537V50H88.52V37.6914H90.0249L90.3057 39.4658H90.4067C90.6688 39.0316 91.002 38.6685 91.4062 38.3765C91.8105 38.077 92.2635 37.8524 92.7651 37.7026C93.2668 37.5454 93.7946 37.4668 94.3486 37.4668ZM118.022 50H108.881V33.5811H118.022V35.2656H110.79V40.5776H117.607V42.2397H110.79V48.3154H118.022V50ZM120.336 44.6543V42.9922H125.906V44.6543H120.336ZM136.294 50L130.78 35.4678H130.69C130.72 35.7747 130.747 36.1491 130.769 36.5908C130.792 37.0326 130.81 37.5155 130.825 38.0396C130.84 38.5562 130.848 39.084 130.848 39.623V50H129.073V33.5811H131.903L137.103 47.2373H137.182L142.46 33.5811H145.268V50H143.381V39.4883C143.381 39.0016 143.388 38.515 143.403 38.0283C143.418 37.5342 143.437 37.07 143.459 36.6357C143.482 36.194 143.504 35.8122 143.527 35.4902H143.437L137.855 50H136.294ZM154.083 37.4893C155.551 37.4893 156.64 37.8187 157.352 38.4775C158.063 39.1364 158.418 40.1883 158.418 41.6333V50H157.06L156.7 48.1807H156.61C156.266 48.6299 155.907 49.008 155.532 49.3149C155.158 49.6144 154.724 49.8428 154.229 50C153.743 50.1497 153.144 50.2246 152.433 50.2246C151.684 50.2246 151.018 50.0936 150.434 49.8315C149.857 49.5695 149.4 49.1727 149.063 48.6411C148.734 48.1095 148.569 47.4357 148.569 46.6196C148.569 45.3918 149.056 44.4484 150.029 43.7896C151.003 43.1307 152.485 42.7713 154.477 42.7114L156.599 42.6216V41.8691C156.599 40.806 156.371 40.061 155.914 39.6343C155.457 39.2075 154.813 38.9941 153.982 38.9941C153.339 38.9941 152.725 39.0877 152.141 39.2749C151.557 39.4621 151.003 39.6829 150.479 39.9375L149.906 38.5225C150.46 38.238 151.096 37.9946 151.815 37.7925C152.534 37.5903 153.29 37.4893 154.083 37.4893ZM156.577 43.9355L154.701 44.0142C153.166 44.0741 152.084 44.3249 151.456 44.7666C150.827 45.2083 150.512 45.8335 150.512 46.6421C150.512 47.3459 150.726 47.8662 151.152 48.2031C151.579 48.54 152.144 48.7085 152.848 48.7085C153.941 48.7085 154.836 48.4053 155.532 47.7988C156.229 47.1924 156.577 46.2827 156.577 45.0698V43.9355ZM164.124 37.6914V50H162.259V37.6914H164.124ZM163.214 33.0869C163.521 33.0869 163.783 33.188 164 33.3901C164.225 33.5848 164.337 33.8918 164.337 34.311C164.337 34.7228 164.225 35.0298 164 35.2319C163.783 35.4341 163.521 35.5352 163.214 35.5352C162.892 35.5352 162.622 35.4341 162.405 35.2319C162.196 35.0298 162.091 34.7228 162.091 34.311C162.091 33.8918 162.196 33.5848 162.405 33.3901C162.622 33.188 162.892 33.0869 163.214 33.0869ZM169.952 50H168.077V32.5254H169.952V50ZM181.733 32.5254V37.7476C181.733 38.047 181.725 38.3503 181.71 38.6572C181.695 38.9567 181.669 39.2337 181.632 39.4883H181.755C182.01 39.054 182.332 38.6909 182.721 38.3989C183.118 38.0994 183.567 37.8748 184.069 37.7251C184.57 37.5679 185.102 37.4893 185.664 37.4893C186.652 37.4893 187.475 37.6465 188.134 37.9609C188.801 38.2754 189.299 38.762 189.628 39.4209C189.965 40.0798 190.133 40.9333 190.133 41.9814V50H188.292V42.105C188.292 41.0793 188.056 40.3118 187.584 39.8027C187.12 39.2936 186.405 39.0391 185.439 39.0391C184.526 39.0391 183.796 39.215 183.249 39.5669C182.71 39.9113 182.321 40.4204 182.081 41.0942C181.849 41.7681 181.733 42.5916 181.733 43.5649V50H179.869V32.5254H181.733ZM198.579 37.4893C200.046 37.4893 201.135 37.8187 201.847 38.4775C202.558 39.1364 202.914 40.1883 202.914 41.6333V50H201.555L201.195 48.1807H201.105C200.761 48.6299 200.402 49.008 200.027 49.3149C199.653 49.6144 199.219 49.8428 198.725 50C198.238 50.1497 197.639 50.2246 196.928 50.2246C196.179 50.2246 195.513 50.0936 194.929 49.8315C194.352 49.5695 193.896 49.1727 193.559 48.6411C193.229 48.1095 193.064 47.4357 193.064 46.6196C193.064 45.3918 193.551 44.4484 194.524 43.7896C195.498 43.1307 196.98 42.7713 198.972 42.7114L201.094 42.6216V41.8691C201.094 40.806 200.866 40.061 200.409 39.6343C199.952 39.2075 199.309 38.9941 198.478 38.9941C197.834 38.9941 197.22 39.0877 196.636 39.2749C196.052 39.4621 195.498 39.6829 194.974 39.9375L194.401 38.5225C194.955 38.238 195.591 37.9946 196.31 37.7925C197.029 37.5903 197.785 37.4893 198.579 37.4893ZM201.072 43.9355L199.196 44.0142C197.661 44.0741 196.58 44.3249 195.951 44.7666C195.322 45.2083 195.007 45.8335 195.007 46.6421C195.007 47.3459 195.221 47.8662 195.647 48.2031C196.074 48.54 196.639 48.7085 197.343 48.7085C198.436 48.7085 199.331 48.4053 200.027 47.7988C200.724 47.1924 201.072 46.2827 201.072 45.0698V43.9355ZM214.717 46.6309C214.717 47.417 214.518 48.0796 214.122 48.6187C213.732 49.1502 213.171 49.5508 212.437 49.8203C211.711 50.0898 210.842 50.2246 209.832 50.2246C208.971 50.2246 208.226 50.1572 207.597 50.0225C206.968 49.8877 206.417 49.6968 205.946 49.4497V47.7314C206.447 47.9785 207.046 48.2031 207.743 48.4053C208.439 48.6074 209.15 48.7085 209.876 48.7085C210.94 48.7085 211.711 48.5363 212.19 48.1919C212.669 47.8475 212.909 47.3796 212.909 46.7881C212.909 46.4512 212.811 46.1554 212.617 45.9009C212.43 45.6388 212.111 45.388 211.662 45.1484C211.213 44.9014 210.591 44.6318 209.798 44.3398C209.012 44.0404 208.33 43.7446 207.754 43.4526C207.185 43.1532 206.743 42.79 206.429 42.3633C206.122 41.9365 205.968 41.3825 205.968 40.7012C205.968 39.6605 206.388 38.8631 207.226 38.3091C208.072 37.7476 209.18 37.4668 210.55 37.4668C211.292 37.4668 211.984 37.5417 212.628 37.6914C213.279 37.8337 213.886 38.0283 214.447 38.2754L213.818 39.769C213.309 39.5519 212.766 39.3685 212.19 39.2188C211.613 39.069 211.026 38.9941 210.427 38.9941C209.566 38.9941 208.903 39.1364 208.439 39.4209C207.982 39.7054 207.754 40.0947 207.754 40.5889C207.754 40.9707 207.859 41.2852 208.068 41.5322C208.285 41.7793 208.63 42.0114 209.102 42.2285C209.573 42.4456 210.195 42.7002 210.966 42.9922C211.737 43.2767 212.403 43.5724 212.965 43.8794C213.526 44.1789 213.957 44.5457 214.256 44.98C214.563 45.4067 214.717 45.957 214.717 46.6309ZM225.554 32.5254V36.894C225.554 37.3957 225.539 37.8823 225.509 38.354C225.487 38.8257 225.468 39.1925 225.453 39.4546H225.554C225.891 38.9006 226.378 38.4326 227.014 38.0508C227.651 37.6689 228.463 37.478 229.451 37.478C230.993 37.478 232.221 38.0133 233.135 39.084C234.056 40.1471 234.516 41.7306 234.516 43.8345C234.516 45.2196 234.306 46.3875 233.887 47.3384C233.468 48.2892 232.876 49.008 232.113 49.4946C231.349 49.9813 230.447 50.2246 229.406 50.2246C228.433 50.2246 227.632 50.0449 227.003 49.6855C226.382 49.3187 225.902 48.8732 225.565 48.3491H225.419L225.038 50H223.69V32.5254H225.554ZM229.148 39.0391C228.257 39.0391 227.549 39.215 227.025 39.5669C226.501 39.9113 226.123 40.4354 225.891 41.1392C225.667 41.8354 225.554 42.7189 225.554 43.7896V43.8906C225.554 45.4404 225.812 46.6271 226.329 47.4507C226.846 48.2668 227.785 48.6748 229.148 48.6748C230.293 48.6748 231.151 48.2555 231.72 47.417C232.296 46.5785 232.584 45.3805 232.584 43.8232C232.584 42.236 232.3 41.0418 231.731 40.2407C231.169 39.4396 230.308 39.0391 229.148 39.0391ZM242.512 37.4668C243.56 37.4668 244.459 37.6989 245.208 38.1631C245.956 38.6273 246.529 39.2786 246.926 40.1172C247.323 40.9482 247.521 41.9215 247.521 43.0371V44.1938H239.02C239.042 45.6388 239.401 46.7394 240.098 47.4956C240.794 48.2518 241.775 48.6299 243.04 48.6299C243.819 48.6299 244.507 48.5588 245.106 48.4165C245.705 48.2743 246.327 48.0646 246.971 47.7876V49.4272C246.349 49.7043 245.732 49.9064 245.118 50.0337C244.511 50.161 243.792 50.2246 242.961 50.2246C241.778 50.2246 240.745 49.985 239.862 49.5059C238.986 49.0192 238.305 48.3079 237.818 47.3721C237.331 46.4362 237.088 45.2907 237.088 43.9355C237.088 42.6104 237.309 41.4648 237.75 40.499C238.2 39.5257 238.829 38.777 239.637 38.2529C240.453 37.7288 241.412 37.4668 242.512 37.4668ZM242.49 38.9941C241.494 38.9941 240.7 39.3198 240.109 39.9712C239.517 40.6226 239.166 41.5322 239.053 42.7002H245.567C245.559 41.9665 245.443 41.3226 245.219 40.7686C245.002 40.207 244.668 39.7728 244.219 39.4658C243.77 39.1514 243.194 38.9941 242.49 38.9941ZM255.427 37.4668C256.475 37.4668 257.374 37.6989 258.123 38.1631C258.871 38.6273 259.444 39.2786 259.841 40.1172C260.238 40.9482 260.436 41.9215 260.436 43.0371V44.1938H251.935C251.957 45.6388 252.316 46.7394 253.013 47.4956C253.709 48.2518 254.69 48.6299 255.955 48.6299C256.734 48.6299 257.423 48.5588 258.021 48.4165C258.62 48.2743 259.242 48.0646 259.886 47.7876V49.4272C259.264 49.7043 258.647 49.9064 258.033 50.0337C257.426 50.161 256.708 50.2246 255.876 50.2246C254.694 50.2246 253.66 49.985 252.777 49.5059C251.901 49.0192 251.22 48.3079 250.733 47.3721C250.246 46.4362 250.003 45.2907 250.003 43.9355C250.003 42.6104 250.224 41.4648 250.666 40.499C251.115 39.5257 251.744 38.777 252.552 38.2529C253.368 37.7288 254.327 37.4668 255.427 37.4668ZM255.405 38.9941C254.409 38.9941 253.615 39.3198 253.024 39.9712C252.432 40.6226 252.081 41.5322 251.968 42.7002H258.482C258.474 41.9665 258.358 41.3226 258.134 40.7686C257.917 40.207 257.583 39.7728 257.134 39.4658C256.685 39.1514 256.109 38.9941 255.405 38.9941ZM269.432 37.4668C270.892 37.4668 271.996 37.8262 272.745 38.5449C273.493 39.2562 273.868 40.4017 273.868 41.9814V50H272.026V42.105C272.026 41.0793 271.79 40.3118 271.318 39.8027C270.854 39.2936 270.139 39.0391 269.173 39.0391C267.811 39.0391 266.852 39.4246 266.298 40.1958C265.744 40.967 265.467 42.0863 265.467 43.5537V50H263.603V37.6914H265.108L265.389 39.4658H265.49C265.752 39.0316 266.085 38.6685 266.489 38.3765C266.894 38.077 267.347 37.8524 267.848 37.7026C268.35 37.5454 268.878 37.4668 269.432 37.4668ZM291.646 46.6309C291.646 47.417 291.447 48.0796 291.05 48.6187C290.661 49.1502 290.099 49.5508 289.366 49.8203C288.639 50.0898 287.771 50.2246 286.76 50.2246C285.899 50.2246 285.154 50.1572 284.525 50.0225C283.896 49.8877 283.346 49.6968 282.875 49.4497V47.7314C283.376 47.9785 283.975 48.2031 284.671 48.4053C285.368 48.6074 286.079 48.7085 286.805 48.7085C287.868 48.7085 288.639 48.5363 289.119 48.1919C289.598 47.8475 289.837 47.3796 289.837 46.7881C289.837 46.4512 289.74 46.1554 289.545 45.9009C289.358 45.6388 289.04 45.388 288.591 45.1484C288.142 44.9014 287.52 44.6318 286.727 44.3398C285.94 44.0404 285.259 43.7446 284.683 43.4526C284.114 43.1532 283.672 42.79 283.357 42.3633C283.05 41.9365 282.897 41.3825 282.897 40.7012C282.897 39.6605 283.316 38.8631 284.155 38.3091C285.001 37.7476 286.109 37.4668 287.479 37.4668C288.22 37.4668 288.913 37.5417 289.557 37.6914C290.208 37.8337 290.814 38.0283 291.376 38.2754L290.747 39.769C290.238 39.5519 289.695 39.3685 289.119 39.2188C288.542 39.069 287.954 38.9941 287.355 38.9941C286.494 38.9941 285.832 39.1364 285.368 39.4209C284.911 39.7054 284.683 40.0947 284.683 40.5889C284.683 40.9707 284.787 41.2852 284.997 41.5322C285.214 41.7793 285.559 42.0114 286.03 42.2285C286.502 42.4456 287.123 42.7002 287.895 42.9922C288.666 43.2767 289.332 43.5724 289.894 43.8794C290.455 44.1789 290.886 44.5457 291.185 44.98C291.492 45.4067 291.646 45.957 291.646 46.6309ZM299.383 37.4668C300.431 37.4668 301.33 37.6989 302.079 38.1631C302.827 38.6273 303.4 39.2786 303.797 40.1172C304.194 40.9482 304.392 41.9215 304.392 43.0371V44.1938H295.891C295.913 45.6388 296.272 46.7394 296.969 47.4956C297.665 48.2518 298.646 48.6299 299.911 48.6299C300.69 48.6299 301.379 48.5588 301.978 48.4165C302.576 48.2743 303.198 48.0646 303.842 47.7876V49.4272C303.22 49.7043 302.603 49.9064 301.989 50.0337C301.382 50.161 300.664 50.2246 299.833 50.2246C298.65 50.2246 297.616 49.985 296.733 49.5059C295.857 49.0192 295.176 48.3079 294.689 47.3721C294.202 46.4362 293.959 45.2907 293.959 43.9355C293.959 42.6104 294.18 41.4648 294.622 40.499C295.071 39.5257 295.7 38.777 296.508 38.2529C297.324 37.7288 298.283 37.4668 299.383 37.4668ZM299.361 38.9941C298.365 38.9941 297.571 39.3198 296.98 39.9712C296.389 40.6226 296.037 41.5322 295.924 42.7002H302.438C302.431 41.9665 302.314 41.3226 302.09 40.7686C301.873 40.207 301.54 39.7728 301.09 39.4658C300.641 39.1514 300.065 38.9941 299.361 38.9941ZM313.388 37.4668C314.848 37.4668 315.952 37.8262 316.701 38.5449C317.449 39.2562 317.824 40.4017 317.824 41.9814V50H315.982V42.105C315.982 41.0793 315.746 40.3118 315.274 39.8027C314.81 39.2936 314.095 39.0391 313.129 39.0391C311.767 39.0391 310.808 39.4246 310.254 40.1958C309.7 40.967 309.423 42.0863 309.423 43.5537V50H307.559V37.6914H309.064L309.345 39.4658H309.446C309.708 39.0316 310.041 38.6685 310.445 38.3765C310.85 38.077 311.303 37.8524 311.804 37.7026C312.306 37.5454 312.834 37.4668 313.388 37.4668ZM325.64 48.6973C325.947 48.6973 326.262 48.6711 326.583 48.6187C326.905 48.5662 327.167 48.5026 327.37 48.4277V49.8765C327.153 49.9738 326.849 50.0562 326.46 50.1235C326.078 50.1909 325.704 50.2246 325.337 50.2246C324.686 50.2246 324.094 50.1123 323.562 49.8877C323.031 49.6556 322.604 49.2663 322.282 48.7197C321.968 48.1732 321.811 47.417 321.811 46.4512V39.1514H320.059V38.2417L321.822 37.5117L322.563 34.8389H323.686V37.6914H327.291V39.1514H323.686V46.395C323.686 47.1662 323.862 47.7427 324.214 48.1245C324.573 48.5063 325.049 48.6973 325.64 48.6973ZM339.813 48.6973C340.12 48.6973 340.434 48.6711 340.756 48.6187C341.078 48.5662 341.34 48.5026 341.542 48.4277V49.8765C341.325 49.9738 341.022 50.0562 340.633 50.1235C340.251 50.1909 339.877 50.2246 339.51 50.2246C338.858 50.2246 338.267 50.1123 337.735 49.8877C337.204 49.6556 336.777 49.2663 336.455 48.7197C336.141 48.1732 335.983 47.417 335.983 46.4512V39.1514H334.231V38.2417L335.995 37.5117L336.736 34.8389H337.859V37.6914H341.464V39.1514H337.859V46.395C337.859 47.1662 338.035 47.7427 338.387 48.1245C338.746 48.5063 339.222 48.6973 339.813 48.6973ZM354.648 43.8232C354.648 44.834 354.517 45.7362 354.255 46.5298C353.993 47.3234 353.615 47.9935 353.121 48.54C352.627 49.0866 352.028 49.5059 351.324 49.7979C350.628 50.0824 349.838 50.2246 348.955 50.2246C348.131 50.2246 347.375 50.0824 346.686 49.7979C346.005 49.5059 345.413 49.0866 344.912 48.54C344.417 47.9935 344.032 47.3234 343.755 46.5298C343.485 45.7362 343.351 44.834 343.351 43.8232C343.351 42.4756 343.579 41.3301 344.036 40.3867C344.492 39.4359 345.144 38.7134 345.99 38.2192C346.843 37.7176 347.858 37.4668 349.033 37.4668C350.156 37.4668 351.137 37.7176 351.976 38.2192C352.822 38.7209 353.477 39.4471 353.941 40.3979C354.413 41.3413 354.648 42.4831 354.648 43.8232ZM345.282 43.8232C345.282 44.8115 345.413 45.6688 345.675 46.395C345.937 47.1213 346.342 47.6828 346.888 48.0796C347.435 48.4764 348.139 48.6748 349 48.6748C349.853 48.6748 350.553 48.4764 351.1 48.0796C351.654 47.6828 352.062 47.1213 352.324 46.395C352.586 45.6688 352.717 44.8115 352.717 43.8232C352.717 42.8424 352.586 41.9964 352.324 41.2852C352.062 40.5664 351.657 40.0124 351.111 39.623C350.564 39.2337 349.857 39.0391 348.988 39.0391C347.708 39.0391 346.768 39.4621 346.169 40.3081C345.578 41.1541 345.282 42.3258 345.282 43.8232ZM361.903 37.6914H363.902L366.62 44.834C366.777 45.2533 366.923 45.6576 367.058 46.0469C367.193 46.4287 367.313 46.7956 367.417 47.1475C367.522 47.4993 367.605 47.84 367.665 48.1694H367.743C367.848 47.7951 367.998 47.3047 368.192 46.6982C368.387 46.0843 368.597 45.4591 368.821 44.8228L371.393 37.6914H373.403L368.046 51.8081C367.762 52.5643 367.429 53.2231 367.047 53.7847C366.673 54.3462 366.216 54.7767 365.677 55.0762C365.138 55.3831 364.486 55.5366 363.723 55.5366C363.371 55.5366 363.06 55.5142 362.791 55.4692C362.521 55.4318 362.289 55.3869 362.094 55.3345V53.8408C362.259 53.8783 362.457 53.9119 362.689 53.9419C362.929 53.9718 363.176 53.9868 363.431 53.9868C363.895 53.9868 364.295 53.897 364.632 53.7173C364.977 53.5451 365.272 53.2905 365.52 52.9536C365.767 52.6167 365.98 52.2161 366.16 51.752L366.833 50.0225L361.903 37.6914ZM385.981 43.8232C385.981 44.834 385.85 45.7362 385.588 46.5298C385.326 47.3234 384.948 47.9935 384.454 48.54C383.96 49.0866 383.361 49.5059 382.657 49.7979C381.961 50.0824 381.171 50.2246 380.288 50.2246C379.464 50.2246 378.708 50.0824 378.019 49.7979C377.338 49.5059 376.746 49.0866 376.245 48.54C375.75 47.9935 375.365 47.3234 375.088 46.5298C374.818 45.7362 374.684 44.834 374.684 43.8232C374.684 42.4756 374.912 41.3301 375.369 40.3867C375.825 39.4359 376.477 38.7134 377.323 38.2192C378.176 37.7176 379.191 37.4668 380.366 37.4668C381.489 37.4668 382.47 37.7176 383.309 38.2192C384.155 38.7209 384.81 39.4471 385.274 40.3979C385.746 41.3413 385.981 42.4831 385.981 43.8232ZM376.615 43.8232C376.615 44.8115 376.746 45.6688 377.008 46.395C377.27 47.1213 377.675 47.6828 378.221 48.0796C378.768 48.4764 379.472 48.6748 380.333 48.6748C381.186 48.6748 381.886 48.4764 382.433 48.0796C382.987 47.6828 383.395 47.1213 383.657 46.395C383.919 45.6688 384.05 44.8115 384.05 43.8232C384.05 42.8424 383.919 41.9964 383.657 41.2852C383.395 40.5664 382.99 40.0124 382.444 39.623C381.897 39.2337 381.19 39.0391 380.321 39.0391C379.041 39.0391 378.101 39.4621 377.502 40.3081C376.911 41.1541 376.615 42.3258 376.615 43.8232ZM399.368 37.6914V50H397.841L397.571 48.2705H397.47C397.216 48.6973 396.886 49.0566 396.482 49.3486C396.078 49.6406 395.621 49.8577 395.112 50C394.61 50.1497 394.075 50.2246 393.506 50.2246C392.533 50.2246 391.716 50.0674 391.058 49.7529C390.399 49.4385 389.901 48.9518 389.564 48.293C389.235 47.6341 389.07 46.7881 389.07 45.7549V37.6914H390.957V45.6201C390.957 46.6458 391.189 47.4132 391.653 47.9224C392.117 48.424 392.825 48.6748 393.775 48.6748C394.689 48.6748 395.415 48.5026 395.954 48.1582C396.501 47.8138 396.894 47.3084 397.133 46.6421C397.373 45.9683 397.493 45.1447 397.493 44.1714V37.6914H399.368Z" fill="white"/>
</g>
<defs>
<filter id="filter0_d_10175_3746" x="0" y="0" width="423" height="82" filterUnits="userSpaceOnUse" color-interpolation-filters="sRGB">
<feFlood flood-opacity="0" result="BackgroundImageFix"/>
<feColorMatrix in="SourceAlpha" type="matrix" values="0 0 0 0 0 0 0 0 0 0 0 0 0 0 0 0 0 0 127 0" result="hardAlpha"/>
<feOffset/>
<feGaussianBlur stdDeviation="2"/>
<feComposite in2="hardAlpha" operator="out"/>
<feColorMatrix type="matrix" values="0 0 0 0 0 0 0 0 0 0 0 0 0 0 0 0 0 0 0.15 0"/>
<feBlend mode="normal" in2="BackgroundImageFix" result="effect1_dropShadow_10175_3746"/>
<feBlend mode="normal" in="SourceGraphic" in2="effect1_dropShadow_10175_3746" result="shape"/>
</filter>
<clipPath id="clip0_10175_3746">
<rect width="41" height="41" fill="white" transform="translate(21 20.5)"/>
</clipPath>
</defs>
</svg>
