<svg width="42" height="55" viewBox="0 0 42 55" fill="none" xmlns="http://www.w3.org/2000/svg">
<path d="M0.333984 54.8335C0.333984 49.3524 2.51136 44.0957 6.38711 40.22C10.2629 36.3442 15.5195 34.1668 21.0007 34.1668C26.4818 34.1668 31.7384 36.3442 35.6142 40.22C39.4899 44.0957 41.6673 49.3524 41.6673 54.8335H36.5006C36.5006 50.7226 34.8676 46.7802 31.9608 43.8733C29.054 40.9665 25.1115 39.3335 21.0007 39.3335C16.8898 39.3335 12.9473 40.9665 10.0405 43.8733C7.13368 46.7802 5.50065 50.7226 5.50065 54.8335H0.333984ZM21.0007 31.5835C12.4369 31.5835 5.50065 24.6472 5.50065 16.0835C5.50065 7.51975 12.4369 0.583496 21.0007 0.583496C29.5644 0.583496 36.5006 7.51975 36.5006 16.0835C36.5006 24.6472 29.5644 31.5835 21.0007 31.5835ZM21.0007 26.4168C26.7098 26.4168 31.334 21.7927 31.334 16.0835C31.334 10.3743 26.7098 5.75016 21.0007 5.75016C15.2915 5.75016 10.6673 10.3743 10.6673 16.0835C10.6673 21.7927 15.2915 26.4168 21.0007 26.4168Z" fill="white"/>
</svg>
