<svg width="27" height="23" viewBox="0 0 27 23" fill="none" xmlns="http://www.w3.org/2000/svg">
<path d="M20.5 2.49979L20.5 20.4998C20.4995 21.0301 20.2886 21.5385 19.9136 21.9134C19.5387 22.2884 19.0303 22.4993 18.5 22.4998L14.5 22.4998C13.9697 22.4993 13.4613 22.2884 13.0864 21.9134C12.7114 21.5385 12.5005 21.0301 12.5 20.4998L12.5 2.49979C12.5005 1.96952 12.7114 1.46112 13.0864 1.08616C13.4613 0.711202 13.9697 0.500318 14.5 0.499788L18.5 0.499787C19.0303 0.500318 19.5387 0.711202 19.9136 1.08616C20.2886 1.46112 20.4995 1.96952 20.5 2.49979ZM14.5 20.4998L18.5 20.4998L18.5 2.49979L14.5 2.49979L14.5 20.4998ZM14.5 2.49979L14.5 20.4998C14.4995 21.0301 14.2886 21.5384 13.9136 21.9134C13.5387 22.2883 13.0303 22.4992 12.5 22.4998L8.5 22.4998C7.96973 22.4992 7.46133 22.2883 7.08637 21.9134C6.71141 21.5384 6.50053 21.03 6.5 20.4998L6.5 2.49977C6.50053 1.9695 6.71141 1.4611 7.08637 1.08614C7.46133 0.711181 7.96973 0.500299 8.5 0.499769L12.5 0.499769C13.0303 0.500299 13.5387 0.711181 13.9136 1.08614C14.2886 1.4611 14.4995 1.96952 14.5 2.49979ZM8.5 20.4998L12.5 20.4998L12.5 2.49979L8.5 2.49977L8.5 20.4998ZM8.5 2.49977L8.5 20.4998C8.49947 21.03 8.28859 21.5384 7.91363 21.9134C7.53867 22.2883 7.03027 22.4992 6.5 22.4998L2.5 22.4998C1.96973 22.4992 1.46133 22.2883 1.08637 21.9134C0.711413 21.5384 0.500529 21.03 0.5 20.4998L0.499999 2.49977C0.500529 1.9695 0.711412 1.4611 1.08637 1.08614C1.46133 0.711182 1.96973 0.500299 2.5 0.499769L6.5 0.499769C7.03027 0.500299 7.53867 0.711181 7.91363 1.08614C8.28859 1.4611 8.49947 1.9695 8.5 2.49977ZM2.5 20.4998L6.5 20.4998L6.5 2.49977L2.5 2.49977L2.5 20.4998Z" fill="#CDCDCD"/>
<path d="M26.5 2.50001L26.5 20.5C26.4995 21.0303 26.2886 21.5387 25.9136 21.9136C25.5387 22.2886 25.0303 22.4995 24.5 22.5L20.5 22.5C19.9697 22.4995 19.4613 22.2886 19.0864 21.9136C18.7114 21.5387 18.5005 21.0301 18.5 20.4998L18.5 2.49979C18.5005 1.96952 18.7114 1.46134 19.0864 1.08638C19.4613 0.711423 19.9697 0.500541 20.5 0.500011L24.5 0.50001C25.0303 0.500541 25.5387 0.711423 25.9136 1.08638C26.2886 1.46134 26.4995 1.96974 26.5 2.50001ZM20.5 20.4998L24.5 20.5L24.5 2.50001L20.5 2.49979L20.5 20.4998Z" fill="#CDCDCD"/>
</svg>
