<svg width="27" height="22" viewBox="0 0 27 22" fill="none" xmlns="http://www.w3.org/2000/svg">
<path d="M20.0062 1.99979L20.0062 19.9998C20.0057 20.5301 19.7948 21.0385 19.4199 21.4134C19.0449 21.7884 18.5365 21.9993 18.0062 21.9998L14.0062 21.9998C13.476 21.9993 12.9676 21.7884 12.5926 21.4134C12.2176 21.0385 12.0068 20.5301 12.0062 19.9998L12.0062 1.99979C12.0068 1.46952 12.2176 0.961118 12.5926 0.58616C12.9676 0.211202 13.476 0.000317172 14.0062 -0.000212328L18.0062 -0.000212503C18.5365 0.000316951 19.0449 0.211202 19.4199 0.58616C19.7948 0.961118 20.0057 1.46952 20.0062 1.99979ZM14.0062 19.9998L18.0062 19.9998L18.0062 1.99979L14.0062 1.99979L14.0062 19.9998ZM14.0062 1.99979L14.0062 19.9998C14.0057 20.5301 13.7948 21.0384 13.4199 21.4134C13.0449 21.7883 12.5365 21.9992 12.0062 21.9998L8.00623 21.9998C7.47596 21.9992 6.96756 21.7883 6.5926 21.4134C6.21764 21.0384 6.00675 20.53 6.00623 19.9998L6.00622 1.99977C6.00675 1.4695 6.21764 0.961097 6.5926 0.586139C6.96755 0.211181 7.47595 0.000298361 8.00622 -0.000231139L12.0062 -0.000231314C12.5365 0.00029814 13.0449 0.211181 13.4199 0.586139C13.7948 0.961097 14.0057 1.46952 14.0062 1.99979ZM8.00623 19.9998L12.0062 19.9998L12.0062 1.99979L8.00622 1.99977L8.00623 19.9998ZM8.00622 1.99977L8.00623 19.9998C8.0057 20.53 7.79481 21.0384 7.41985 21.4134C7.0449 21.7883 6.5365 21.9992 6.00623 21.9998L2.00623 21.9998C1.47595 21.9992 0.967555 21.7883 0.592597 21.4134C0.217639 21.0384 0.006755 20.53 0.0062255 19.9998L0.00622471 1.99977C0.00675417 1.4695 0.217638 0.961098 0.592596 0.58614C0.967554 0.211182 1.47595 0.000298623 2.00622 -0.000230877L6.00622 -0.000231051C6.5365 0.000298402 7.0449 0.211181 7.41985 0.586139C7.79481 0.961097 8.0057 1.4695 8.00622 1.99977ZM2.00623 19.9998L6.00623 19.9998L6.00622 1.99977L2.00622 1.99977L2.00623 19.9998Z" fill="white"/>
<path d="M26.0062 2.00001L26.0062 20C26.0057 20.5303 25.7948 21.0387 25.4199 21.4136C25.0449 21.7886 24.5365 21.9995 24.0062 22L20.0062 22C19.476 21.9995 18.9676 21.7886 18.5926 21.4136C18.2176 21.0387 18.0068 20.5301 18.0062 19.9998L18.0062 1.99979C18.0068 1.46952 18.2176 0.961339 18.5926 0.586381C18.9676 0.211423 19.476 0.00054007 20.0062 1.05699e-05L24.0062 1.0395e-05C24.5365 0.000539849 25.0449 0.211423 25.4199 0.586381C25.7948 0.961339 26.0057 1.46974 26.0062 2.00001ZM20.0062 19.9998L24.0062 20L24.0062 2.00001L20.0062 1.99979L20.0062 19.9998Z" fill="white"/>
</svg>
