<svg width="20" height="23" viewBox="0 0 20 23" fill="none" xmlns="http://www.w3.org/2000/svg">
<path d="M4.59578 19.8032H15.4291V19.5282C14.6708 18.8865 13.8312 18.4054 12.9104 18.085C11.9895 17.7638 11.0236 17.6032 10.0125 17.6032C9.00134 17.6032 8.03537 17.7638 7.11453 18.085C6.1937 18.4054 5.35412 18.8865 4.59578 19.5282V19.8032ZM2.42912 18.5382C3.40412 17.5665 4.53728 16.8009 5.82862 16.2414C7.11923 15.6826 8.51384 15.4032 10.0125 15.4032C11.5111 15.4032 12.906 15.6826 14.1974 16.2414C15.488 16.8009 16.6208 17.5665 17.5958 18.5382V4.40317H2.42912V18.5382ZM10.0125 13.2032C8.96523 13.2032 8.07148 12.8273 7.3312 12.0757C6.59092 11.324 6.22078 10.4165 6.22078 9.35317C6.22078 8.28984 6.59092 7.38234 7.3312 6.63067C8.07148 5.87901 8.96523 5.50317 10.0125 5.50317C11.0597 5.50317 11.9534 5.87901 12.6937 6.63067C13.434 7.38234 13.8041 8.28984 13.8041 9.35317C13.8041 10.4165 13.434 11.324 12.6937 12.0757C11.9534 12.8273 11.0597 13.2032 10.0125 13.2032ZM10.0125 11.0032C10.4638 11.0032 10.8473 10.8426 11.163 10.5214C11.4793 10.2009 11.6375 9.81151 11.6375 9.35317C11.6375 8.89484 11.4793 8.50544 11.163 8.18497C10.8473 7.86377 10.4638 7.70317 10.0125 7.70317C9.56106 7.70317 9.17756 7.86377 8.86195 8.18497C8.54562 8.50544 8.38745 8.89484 8.38745 9.35317C8.38745 9.81151 8.54562 10.2009 8.86195 10.5214C9.17756 10.8426 9.56106 11.0032 10.0125 11.0032ZM1.26245 22.0032C0.710166 22.0032 0.262451 21.5555 0.262451 21.0032V3.20317C0.262451 2.65089 0.710166 2.20317 1.26245 2.20317H3.51245V1.00317C3.51245 0.450889 3.96017 0.00317383 4.51245 0.00317383H4.67912C5.2314 0.00317383 5.67912 0.450889 5.67912 1.00317V2.20317H14.3458V1.00317C14.3458 0.450889 14.7935 0.00317383 15.3458 0.00317383H15.5125C16.0647 0.00317383 16.5125 0.450889 16.5125 1.00317V2.20317H18.7625C19.3147 2.20317 19.7625 2.65089 19.7625 3.20317V21.0032C19.7625 21.5555 19.3147 22.0032 18.7625 22.0032H1.26245Z" fill="white"/>
</svg>
