<svg width="55" height="67" viewBox="0 0 55 67" fill="none" xmlns="http://www.w3.org/2000/svg">
<path d="M39.1394 0H27.1931V13.8957H39.1394V0Z" fill="white"/>
<path d="M27.1931 25.1971H39.1394V44.7948C39.194 49.5105 37.8665 54.1363 35.3258 58.0839C32.8171 61.9195 27.9742 66.4829 19.0145 66.4829C9.25533 66.4829 3.56707 61.8168 0.497803 59.2598L8.03314 49.8622C11.0289 52.3353 13.9144 54.3697 19.0605 54.3697C22.9568 54.3697 24.5098 52.7645 25.4196 51.3647C26.6563 49.4204 27.2961 47.1465 27.2574 44.8321L27.1931 25.1971Z" fill="white"/>
<path d="M21.1005 16.4248H9.15424V28.5567H21.1005V16.4248Z" fill="#29ABE2"/>
<path d="M45.3974 60.7903C45.3974 63.3753 44.1017 64.7658 42.2913 64.7658C40.481 64.7658 39.2956 63.114 39.2956 60.9209C39.2956 58.7279 40.5178 56.9921 42.3924 56.9921C44.2671 56.9921 45.3974 58.6999 45.3974 60.7903ZM40.6832 60.8929C40.6832 62.4514 41.2989 63.5993 42.3557 63.5993C43.4125 63.5993 44.0098 62.3861 44.0098 60.7996C44.0098 59.4091 43.4584 58.1026 42.3557 58.1026C41.2529 58.1026 40.6832 59.3625 40.6832 60.8929Z" fill="white"/>
<path d="M47.7682 57.104V64.6445H46.4449V57.104H47.7682Z" fill="white"/>
<path d="M49.2018 64.6445V57.104H50.6722L52.2527 60.2116C52.6596 61.0242 53.0216 61.8592 53.3371 62.7127C53.2544 61.7795 53.2176 60.7063 53.2176 59.5117V57.104H54.4306V64.6445H53.0614L51.4624 61.4715C51.0391 60.638 50.6618 59.7812 50.3321 58.9051C50.3321 59.8384 50.3965 60.8929 50.3965 62.1901V64.6351L49.2018 64.6445Z" fill="white"/>
</svg>
