<svg width="428" height="926" viewBox="0 0 428 926" fill="none" xmlns="http://www.w3.org/2000/svg">
<rect width="428" height="926" fill="#F6F7F8"/>
<g filter="url(#filter0_d_332_1638)">
<rect x="28" y="194" width="372" height="573" rx="30" fill="white"/>
<path d="M147.894 274V239.818H155.121V268.042H169.775V274H147.894ZM186.01 274.501C183.418 274.501 181.176 273.95 179.284 272.848C177.404 271.736 175.952 270.189 174.928 268.208C173.904 266.217 173.392 263.908 173.392 261.282C173.392 258.634 173.904 256.319 174.928 254.339C175.952 252.347 177.404 250.8 179.284 249.699C181.176 248.586 183.418 248.03 186.01 248.03C188.603 248.03 190.839 248.586 192.72 249.699C194.611 250.8 196.069 252.347 197.093 254.339C198.116 256.319 198.628 258.634 198.628 261.282C198.628 263.908 198.116 266.217 197.093 268.208C196.069 270.189 194.611 271.736 192.72 272.848C190.839 273.95 188.603 274.501 186.01 274.501ZM186.044 268.993C187.223 268.993 188.208 268.659 188.998 267.991C189.788 267.313 190.383 266.389 190.784 265.221C191.195 264.053 191.401 262.723 191.401 261.232C191.401 259.741 191.195 258.411 190.784 257.243C190.383 256.075 189.788 255.151 188.998 254.472C188.208 253.794 187.223 253.454 186.044 253.454C184.853 253.454 183.852 253.794 183.039 254.472C182.238 255.151 181.632 256.075 181.22 257.243C180.82 258.411 180.619 259.741 180.619 261.232C180.619 262.723 180.82 264.053 181.22 265.221C181.632 266.389 182.238 267.313 183.039 267.991C183.852 268.659 184.853 268.993 186.044 268.993ZM214.801 284.148C212.498 284.148 210.523 283.831 208.876 283.196C207.24 282.573 205.939 281.722 204.971 280.643C204.002 279.563 203.374 278.351 203.085 277.004L209.661 276.12C209.861 276.632 210.178 277.11 210.612 277.555C211.046 278 211.619 278.356 212.331 278.623C213.054 278.901 213.933 279.04 214.968 279.04C216.515 279.04 217.789 278.662 218.79 277.906C219.803 277.16 220.309 275.908 220.309 274.15V269.46H220.009C219.697 270.172 219.23 270.846 218.607 271.48C217.983 272.114 217.182 272.631 216.203 273.032C215.224 273.433 214.056 273.633 212.698 273.633C210.773 273.633 209.021 273.188 207.441 272.298C205.872 271.396 204.62 270.022 203.685 268.175C202.762 266.317 202.3 263.969 202.3 261.132C202.3 258.228 202.773 255.802 203.719 253.855C204.665 251.908 205.922 250.45 207.491 249.482C209.071 248.514 210.801 248.03 212.681 248.03C214.117 248.03 215.319 248.275 216.287 248.764C217.255 249.243 218.033 249.844 218.623 250.567C219.224 251.279 219.686 251.98 220.009 252.67H220.276V248.364H227.336V274.25C227.336 276.431 226.801 278.256 225.733 279.725C224.665 281.194 223.185 282.295 221.294 283.029C219.413 283.775 217.249 284.148 214.801 284.148ZM214.951 268.292C216.097 268.292 217.065 268.008 217.855 267.441C218.657 266.862 219.269 266.039 219.691 264.971C220.125 263.891 220.342 262.6 220.342 261.098C220.342 259.596 220.131 258.294 219.708 257.193C219.285 256.08 218.673 255.218 217.872 254.606C217.071 253.994 216.097 253.688 214.951 253.688C213.783 253.688 212.798 254.005 211.997 254.639C211.196 255.262 210.59 256.13 210.178 257.243C209.766 258.356 209.56 259.641 209.56 261.098C209.56 262.578 209.766 263.858 210.178 264.937C210.601 266.005 211.207 266.834 211.997 267.424C212.798 268.003 213.783 268.292 214.951 268.292ZM243.872 274V248.364H250.982V274H243.872ZM247.443 245.059C246.386 245.059 245.479 244.708 244.723 244.007C243.977 243.295 243.604 242.444 243.604 241.454C243.604 240.475 243.977 239.635 244.723 238.934C245.479 238.221 246.386 237.865 247.443 237.865C248.5 237.865 249.402 238.221 250.147 238.934C250.904 239.635 251.282 240.475 251.282 241.454C251.282 242.444 250.904 243.295 250.147 244.007C249.402 244.708 248.5 245.059 247.443 245.059ZM263.787 259.179V274H256.677V248.364H263.453V252.887H263.754C264.321 251.396 265.273 250.216 266.608 249.348C267.943 248.469 269.562 248.03 271.465 248.03C273.245 248.03 274.797 248.419 276.121 249.198C277.446 249.977 278.475 251.09 279.209 252.536C279.944 253.972 280.311 255.685 280.311 257.677V274H273.201V258.945C273.212 257.376 272.811 256.152 271.999 255.273C271.187 254.383 270.068 253.938 268.644 253.938C267.687 253.938 266.842 254.144 266.107 254.556C265.384 254.967 264.817 255.568 264.405 256.358C264.004 257.137 263.798 258.077 263.787 259.179Z" fill="black"/>
<path d="M258 309H170" stroke="#29ABE2" stroke-width="3" stroke-linecap="round"/>
<rect x="51" y="344.5" width="326" height="40" rx="9.5" fill="white"/>
<path d="M73.3494 372V356.727H82.5668V358.368H75.1989V363.528H82.0895V365.169H75.1989V370.359H82.6861V372H73.3494ZM85.6616 372V360.545H87.3619V362.335H87.511C87.7496 361.724 88.1349 361.249 88.6669 360.911C89.1989 360.568 89.8377 360.396 90.5835 360.396C91.3391 360.396 91.968 360.568 92.4702 360.911C92.9773 361.249 93.3725 361.724 93.6559 362.335H93.7752C94.0685 361.744 94.5085 361.274 95.0952 360.926C95.6818 360.573 96.3853 360.396 97.2056 360.396C98.2298 360.396 99.0675 360.717 99.7188 361.358C100.37 361.995 100.696 362.987 100.696 364.334V372H98.9357V364.334C98.9357 363.489 98.7045 362.885 98.2422 362.522C97.7798 362.159 97.2354 361.977 96.609 361.977C95.8036 361.977 95.1797 362.221 94.7372 362.708C94.2947 363.19 94.0735 363.802 94.0735 364.543V372H92.2837V364.155C92.2837 363.504 92.0724 362.979 91.6499 362.581C91.2273 362.179 90.6829 361.977 90.0167 361.977C89.5593 361.977 89.1317 362.099 88.734 362.343C88.3413 362.586 88.0231 362.924 87.7795 363.357C87.5408 363.784 87.4215 364.279 87.4215 364.841V372H85.6616ZM107.284 372.268C106.558 372.268 105.9 372.132 105.308 371.858C104.716 371.58 104.247 371.18 103.899 370.658C103.551 370.131 103.377 369.494 103.377 368.749C103.377 368.092 103.506 367.56 103.764 367.153C104.023 366.74 104.368 366.417 104.801 366.183C105.233 365.95 105.711 365.776 106.233 365.661C106.76 365.542 107.289 365.447 107.821 365.378C108.517 365.288 109.081 365.221 109.514 365.176C109.952 365.127 110.27 365.045 110.469 364.93C110.672 364.816 110.774 364.617 110.774 364.334V364.274C110.774 363.538 110.573 362.967 110.17 362.559C109.773 362.151 109.169 361.947 108.358 361.947C107.518 361.947 106.859 362.131 106.382 362.499C105.905 362.867 105.569 363.26 105.375 363.678L103.705 363.081C104.003 362.385 104.401 361.843 104.898 361.455C105.4 361.062 105.947 360.789 106.539 360.635C107.135 360.476 107.722 360.396 108.298 360.396C108.666 360.396 109.089 360.441 109.566 360.531C110.048 360.615 110.513 360.792 110.961 361.06C111.413 361.328 111.789 361.734 112.087 362.276C112.385 362.817 112.534 363.543 112.534 364.453V372H110.774V370.449H110.685C110.566 370.697 110.367 370.963 110.088 371.247C109.81 371.53 109.439 371.771 108.977 371.97C108.515 372.169 107.95 372.268 107.284 372.268ZM107.553 370.688C108.249 370.688 108.835 370.551 109.313 370.277C109.795 370.004 110.158 369.651 110.401 369.218C110.65 368.786 110.774 368.331 110.774 367.854V366.243C110.7 366.332 110.536 366.414 110.282 366.489C110.034 366.559 109.745 366.621 109.417 366.675C109.094 366.725 108.778 366.77 108.47 366.81C108.167 366.844 107.921 366.874 107.732 366.899C107.274 366.959 106.847 367.056 106.449 367.19C106.056 367.319 105.738 367.516 105.494 367.779C105.256 368.038 105.137 368.391 105.137 368.838C105.137 369.45 105.363 369.912 105.815 370.225C106.273 370.533 106.852 370.688 107.553 370.688ZM115.747 372V360.545H117.506V372H115.747ZM116.641 358.636C116.298 358.636 116.003 358.52 115.754 358.286C115.51 358.052 115.389 357.771 115.389 357.443C115.389 357.115 115.51 356.834 115.754 356.6C116.003 356.367 116.298 356.25 116.641 356.25C116.984 356.25 117.278 356.367 117.521 356.6C117.77 356.834 117.894 357.115 117.894 357.443C117.894 357.771 117.77 358.052 117.521 358.286C117.278 358.52 116.984 358.636 116.641 358.636ZM122.49 356.727V372H120.73V356.727H122.49Z" fill="#D1D1D1"/>
<path d="M337.5 355.5H355.5C355.765 355.5 356.02 355.605 356.207 355.793C356.395 355.98 356.5 356.235 356.5 356.5V372.5C356.5 372.765 356.395 373.02 356.207 373.207C356.02 373.395 355.765 373.5 355.5 373.5H337.5C337.235 373.5 336.98 373.395 336.793 373.207C336.605 373.02 336.5 372.765 336.5 372.5V356.5C336.5 356.235 336.605 355.98 336.793 355.793C336.98 355.605 337.235 355.5 337.5 355.5ZM354.5 359.738L346.572 366.838L338.5 359.716V371.5H354.5V359.738ZM339.011 357.5L346.561 364.162L354.002 357.5H339.011Z" fill="#A8A8A8"/>
<rect x="51" y="344.5" width="326" height="40" rx="9.5" stroke="#D1D1D1"/>
<rect x="51" y="434.5" width="326" height="40" rx="9.5" fill="white"/>
<path d="M73.3494 462V446.727H78.5099C79.7081 446.727 80.6875 446.944 81.4482 447.376C82.2138 447.804 82.7805 448.383 83.1484 449.114C83.5163 449.844 83.7003 450.66 83.7003 451.56C83.7003 452.46 83.5163 453.277 83.1484 454.013C82.7855 454.749 82.2237 455.336 81.4631 455.773C80.7024 456.206 79.728 456.422 78.5398 456.422H74.8409V454.781H78.4801C79.3004 454.781 79.9592 454.64 80.4563 454.356C80.9535 454.073 81.3139 453.69 81.5376 453.208C81.7663 452.721 81.8807 452.171 81.8807 451.56C81.8807 450.948 81.7663 450.401 81.5376 449.919C81.3139 449.437 80.951 449.059 80.4489 448.786C79.9467 448.507 79.2805 448.368 78.4503 448.368H75.1989V462H73.3494ZM89.8116 462.268C89.0858 462.268 88.427 462.132 87.8354 461.858C87.2438 461.58 86.774 461.18 86.426 460.658C86.0779 460.131 85.9039 459.494 85.9039 458.749C85.9039 458.092 86.0332 457.56 86.2917 457.153C86.5502 456.74 86.8958 456.417 87.3283 456.183C87.7608 455.95 88.2381 455.776 88.7601 455.661C89.2871 455.542 89.8166 455.447 90.3485 455.378C91.0446 455.288 91.6088 455.221 92.0414 455.176C92.4789 455.127 92.7971 455.045 92.9959 454.93C93.1998 454.816 93.3017 454.617 93.3017 454.334V454.274C93.3017 453.538 93.1003 452.967 92.6976 452.559C92.2999 452.151 91.6958 451.947 90.8855 451.947C90.0453 451.947 89.3865 452.131 88.9093 452.499C88.432 452.867 88.0964 453.26 87.9025 453.678L86.2321 453.081C86.5304 452.385 86.9281 451.843 87.4252 451.455C87.9274 451.062 88.4743 450.789 89.0659 450.635C89.6625 450.476 90.2491 450.396 90.8258 450.396C91.1937 450.396 91.6163 450.441 92.0936 450.531C92.5758 450.615 93.0407 450.792 93.4881 451.06C93.9405 451.328 94.3159 451.734 94.6142 452.276C94.9125 452.817 95.0616 453.543 95.0616 454.453V462H93.3017V460.449H93.2122C93.0929 460.697 92.894 460.963 92.6156 461.247C92.3372 461.53 91.9668 461.771 91.5044 461.97C91.0421 462.169 90.4778 462.268 89.8116 462.268ZM90.0801 460.688C90.7761 460.688 91.3627 460.551 91.84 460.277C92.3223 460.004 92.6852 459.651 92.9288 459.218C93.1774 458.786 93.3017 458.331 93.3017 457.854V456.243C93.2271 456.332 93.063 456.414 92.8095 456.489C92.5609 456.559 92.2725 456.621 91.9444 456.675C91.6213 456.725 91.3056 456.77 90.9973 456.81C90.6941 456.844 90.448 456.874 90.2591 456.899C89.8017 456.959 89.3741 457.056 88.9764 457.19C88.5836 457.319 88.2654 457.516 88.0218 457.779C87.7832 458.038 87.6639 458.391 87.6639 458.838C87.6639 459.45 87.8901 459.912 88.3425 460.225C88.7999 460.533 89.3791 460.688 90.0801 460.688ZM106.388 453.111L104.807 453.558C104.707 453.295 104.56 453.039 104.367 452.79C104.178 452.537 103.919 452.328 103.591 452.164C103.263 452 102.843 451.918 102.331 451.918C101.63 451.918 101.046 452.079 100.578 452.402C100.116 452.721 99.8847 453.126 99.8847 453.618C99.8847 454.055 100.044 454.401 100.362 454.654C100.68 454.908 101.177 455.119 101.853 455.288L103.554 455.706C104.578 455.955 105.341 456.335 105.843 456.847C106.345 457.354 106.596 458.008 106.596 458.808C106.596 459.464 106.407 460.051 106.03 460.568C105.657 461.085 105.135 461.493 104.464 461.791C103.792 462.089 103.012 462.239 102.122 462.239C100.954 462.239 99.9866 461.985 99.221 461.478C98.4553 460.971 97.9706 460.23 97.7668 459.256L99.4372 458.838C99.5963 459.455 99.8971 459.917 100.34 460.225C100.787 460.533 101.371 460.688 102.092 460.688C102.912 460.688 103.564 460.513 104.046 460.165C104.533 459.812 104.777 459.39 104.777 458.898C104.777 458.5 104.638 458.167 104.359 457.898C104.081 457.625 103.653 457.421 103.076 457.287L101.167 456.839C100.118 456.591 99.3477 456.206 98.8556 455.684C98.3683 455.157 98.1247 454.498 98.1247 453.707C98.1247 453.061 98.3062 452.489 98.6691 451.992C99.037 451.495 99.5367 451.105 100.168 450.821C100.804 450.538 101.525 450.396 102.331 450.396C103.464 450.396 104.354 450.645 105 451.142C105.652 451.639 106.114 452.295 106.388 453.111ZM117.359 453.111L115.778 453.558C115.679 453.295 115.532 453.039 115.338 452.79C115.149 452.537 114.891 452.328 114.563 452.164C114.235 452 113.814 451.918 113.302 451.918C112.601 451.918 112.017 452.079 111.55 452.402C111.088 452.721 110.856 453.126 110.856 453.618C110.856 454.055 111.015 454.401 111.334 454.654C111.652 454.908 112.149 455.119 112.825 455.288L114.525 455.706C115.55 455.955 116.313 456.335 116.815 456.847C117.317 457.354 117.568 458.008 117.568 458.808C117.568 459.464 117.379 460.051 117.001 460.568C116.628 461.085 116.106 461.493 115.435 461.791C114.764 462.089 113.983 462.239 113.094 462.239C111.925 462.239 110.958 461.985 110.193 461.478C109.427 460.971 108.942 460.23 108.738 459.256L110.409 458.838C110.568 459.455 110.869 459.917 111.311 460.225C111.759 460.533 112.343 460.688 113.064 460.688C113.884 460.688 114.535 460.513 115.018 460.165C115.505 459.812 115.748 459.39 115.748 458.898C115.748 458.5 115.609 458.167 115.331 457.898C115.052 457.625 114.625 457.421 114.048 457.287L112.139 456.839C111.09 456.591 110.319 456.206 109.827 455.684C109.34 455.157 109.096 454.498 109.096 453.707C109.096 453.061 109.278 452.489 109.641 451.992C110.009 451.495 110.508 451.105 111.14 450.821C111.776 450.538 112.497 450.396 113.302 450.396C114.436 450.396 115.326 450.645 115.972 451.142C116.623 451.639 117.086 452.295 117.359 453.111ZM122.812 462L119.322 450.545H121.172L123.648 459.315H123.767L126.213 450.545H128.092L130.508 459.286H130.628L133.104 450.545H134.953L131.463 462H129.733L127.227 453.2H127.048L124.543 462H122.812ZM141.544 462.239C140.509 462.239 139.602 461.993 138.822 461.5C138.046 461.008 137.439 460.32 137.002 459.435C136.569 458.55 136.353 457.516 136.353 456.332C136.353 455.139 136.569 454.098 137.002 453.208C137.439 452.318 138.046 451.627 138.822 451.135C139.602 450.642 140.509 450.396 141.544 450.396C142.578 450.396 143.482 450.642 144.258 451.135C145.039 451.627 145.645 452.318 146.078 453.208C146.515 454.098 146.734 455.139 146.734 456.332C146.734 457.516 146.515 458.55 146.078 459.435C145.645 460.32 145.039 461.008 144.258 461.5C143.482 461.993 142.578 462.239 141.544 462.239ZM141.544 460.658C142.329 460.658 142.975 460.456 143.482 460.054C143.99 459.651 144.365 459.121 144.608 458.465C144.852 457.809 144.974 457.098 144.974 456.332C144.974 455.567 144.852 454.853 144.608 454.192C144.365 453.531 143.99 452.996 143.482 452.589C142.975 452.181 142.329 451.977 141.544 451.977C140.758 451.977 140.112 452.181 139.605 452.589C139.097 452.996 138.722 453.531 138.479 454.192C138.235 454.853 138.113 455.567 138.113 456.332C138.113 457.098 138.235 457.809 138.479 458.465C138.722 459.121 139.097 459.651 139.605 460.054C140.112 460.456 140.758 460.658 141.544 460.658ZM149.42 462V450.545H151.121V452.276H151.24C151.449 451.709 151.827 451.249 152.373 450.896C152.92 450.543 153.537 450.366 154.223 450.366C154.352 450.366 154.514 450.369 154.708 450.374C154.902 450.379 155.048 450.386 155.148 450.396V452.186C155.088 452.171 154.951 452.149 154.737 452.119C154.529 452.084 154.307 452.067 154.074 452.067C153.517 452.067 153.02 452.184 152.582 452.417C152.15 452.646 151.807 452.964 151.553 453.372C151.305 453.775 151.18 454.234 151.18 454.751V462H149.42ZM161.21 462.239C160.256 462.239 159.413 461.998 158.682 461.515C157.952 461.028 157.38 460.342 156.967 459.457C156.555 458.567 156.348 457.516 156.348 456.303C156.348 455.099 156.555 454.055 156.967 453.17C157.38 452.286 157.954 451.602 158.69 451.12C159.426 450.637 160.276 450.396 161.24 450.396C161.986 450.396 162.575 450.521 163.008 450.769C163.445 451.013 163.778 451.291 164.007 451.604C164.241 451.913 164.422 452.166 164.551 452.365H164.701V446.727H166.46V462H164.76V460.24H164.551C164.422 460.449 164.238 460.712 164 461.031C163.761 461.344 163.42 461.625 162.978 461.873C162.535 462.117 161.946 462.239 161.21 462.239ZM161.449 460.658C162.155 460.658 162.752 460.474 163.239 460.106C163.726 459.733 164.097 459.218 164.35 458.562C164.604 457.901 164.73 457.138 164.73 456.273C164.73 455.418 164.606 454.669 164.358 454.028C164.109 453.382 163.741 452.88 163.254 452.522C162.767 452.159 162.165 451.977 161.449 451.977C160.703 451.977 160.082 452.169 159.585 452.551C159.093 452.929 158.722 453.444 158.474 454.095C158.23 454.741 158.108 455.467 158.108 456.273C158.108 457.088 158.233 457.829 158.481 458.495C158.735 459.156 159.108 459.683 159.6 460.076C160.097 460.464 160.713 460.658 161.449 460.658Z" fill="#D1D1D1"/>
<path d="M341.5 451V450C341.5 448.409 342.132 446.883 343.257 445.757C344.383 444.632 345.909 444 347.5 444C349.091 444 350.617 444.632 351.743 445.757C352.868 446.883 353.5 448.409 353.5 450V451H355.5C355.765 451 356.02 451.105 356.207 451.293C356.395 451.48 356.5 451.735 356.5 452V464C356.5 464.265 356.395 464.52 356.207 464.707C356.02 464.895 355.765 465 355.5 465H339.5C339.235 465 338.98 464.895 338.793 464.707C338.605 464.52 338.5 464.265 338.5 464V452C338.5 451.735 338.605 451.48 338.793 451.293C338.98 451.105 339.235 451 339.5 451H341.5ZM354.5 453H340.5V463H354.5V453ZM346.5 458.732C346.119 458.512 345.821 458.172 345.652 457.765C345.484 457.359 345.454 456.908 345.568 456.482C345.682 456.057 345.933 455.681 346.282 455.413C346.632 455.145 347.06 455 347.5 455C347.94 455 348.368 455.145 348.718 455.413C349.067 455.681 349.318 456.057 349.432 456.482C349.546 456.908 349.516 457.359 349.348 457.765C349.179 458.172 348.881 458.512 348.5 458.732V461H346.5V458.732ZM343.5 451H351.5V450C351.5 448.939 351.079 447.922 350.328 447.172C349.578 446.421 348.561 446 347.5 446C346.439 446 345.422 446.421 344.672 447.172C343.921 447.922 343.5 448.939 343.5 450V451Z" fill="#A8A8A8"/>
<rect x="51" y="434.5" width="326" height="40" rx="9.5" stroke="#D1D1D1"/>
<path d="M51.9091 520V508.364H58.8864V509.614H53.3182V513.545H58.3636V514.795H53.3182V520H51.9091ZM64.0227 520.182C63.2348 520.182 62.5436 519.994 61.9489 519.619C61.358 519.244 60.8958 518.72 60.5625 518.045C60.233 517.371 60.0682 516.583 60.0682 515.682C60.0682 514.773 60.233 513.979 60.5625 513.301C60.8958 512.623 61.358 512.097 61.9489 511.722C62.5436 511.347 63.2348 511.159 64.0227 511.159C64.8106 511.159 65.5 511.347 66.0909 511.722C66.6856 512.097 67.1477 512.623 67.4773 513.301C67.8106 513.979 67.9773 514.773 67.9773 515.682C67.9773 516.583 67.8106 517.371 67.4773 518.045C67.1477 518.72 66.6856 519.244 66.0909 519.619C65.5 519.994 64.8106 520.182 64.0227 520.182ZM64.0227 518.977C64.6212 518.977 65.1136 518.824 65.5 518.517C65.8864 518.21 66.1723 517.807 66.358 517.307C66.5436 516.807 66.6364 516.265 66.6364 515.682C66.6364 515.098 66.5436 514.555 66.358 514.051C66.1723 513.547 65.8864 513.14 65.5 512.83C65.1136 512.519 64.6212 512.364 64.0227 512.364C63.4242 512.364 62.9318 512.519 62.5455 512.83C62.1591 513.14 61.8731 513.547 61.6875 514.051C61.5019 514.555 61.4091 515.098 61.4091 515.682C61.4091 516.265 61.5019 516.807 61.6875 517.307C61.8731 517.807 62.1591 518.21 62.5455 518.517C62.9318 518.824 63.4242 518.977 64.0227 518.977ZM70.0241 520V511.273H71.3196V512.591H71.4105C71.5696 512.159 71.8575 511.809 72.2741 511.54C72.6908 511.271 73.1605 511.136 73.6832 511.136C73.7817 511.136 73.9048 511.138 74.0526 511.142C74.2003 511.146 74.312 511.152 74.3878 511.159V512.523C74.3423 512.511 74.2382 512.494 74.0753 512.472C73.9162 512.445 73.7476 512.432 73.5696 512.432C73.1454 512.432 72.7666 512.521 72.4332 512.699C72.1037 512.873 71.8423 513.116 71.6491 513.426C71.4598 513.733 71.3651 514.083 71.3651 514.477V520H70.0241ZM79.2344 523.455C78.5866 523.455 78.0298 523.371 77.5639 523.205C77.098 523.042 76.7098 522.826 76.3991 522.557C76.0923 522.292 75.848 522.008 75.6662 521.705L76.7344 520.955C76.8556 521.114 77.009 521.295 77.1946 521.5C77.3802 521.708 77.634 521.888 77.956 522.04C78.2817 522.195 78.7079 522.273 79.2344 522.273C79.9389 522.273 80.5204 522.102 80.9787 521.761C81.437 521.42 81.6662 520.886 81.6662 520.159V518.386H81.5526C81.4541 518.545 81.3139 518.742 81.1321 518.977C80.9541 519.208 80.6965 519.415 80.3594 519.597C80.026 519.775 79.5753 519.864 79.0071 519.864C78.3026 519.864 77.67 519.697 77.1094 519.364C76.5526 519.03 76.1113 518.545 75.7855 517.909C75.4635 517.273 75.3026 516.5 75.3026 515.591C75.3026 514.697 75.4598 513.919 75.7741 513.256C76.0885 512.589 76.526 512.074 77.0866 511.71C77.6473 511.343 78.295 511.159 79.0298 511.159C79.598 511.159 80.0488 511.254 80.3821 511.443C80.7192 511.629 80.9768 511.841 81.1548 512.08C81.3366 512.314 81.4768 512.508 81.5753 512.659H81.7116V511.273H83.0071V520.25C83.0071 521 82.8366 521.61 82.4957 522.08C82.1586 522.553 81.7041 522.9 81.1321 523.119C80.5639 523.343 79.9313 523.455 79.2344 523.455ZM79.1889 518.659C79.7268 518.659 80.1813 518.536 80.5526 518.29C80.9238 518.044 81.206 517.689 81.3991 517.227C81.5923 516.765 81.6889 516.212 81.6889 515.568C81.6889 514.939 81.5942 514.384 81.4048 513.903C81.2154 513.422 80.9351 513.045 80.5639 512.773C80.1927 512.5 79.7344 512.364 79.1889 512.364C78.6207 512.364 78.1473 512.508 77.7685 512.795C77.3935 513.083 77.1113 513.47 76.9219 513.955C76.7363 514.439 76.6435 514.977 76.6435 515.568C76.6435 516.174 76.7382 516.71 76.9276 517.176C77.1207 517.638 77.4048 518.002 77.7798 518.267C78.1586 518.528 78.6283 518.659 79.1889 518.659ZM89.0071 520.182C88.2192 520.182 87.5279 519.994 86.9332 519.619C86.3423 519.244 85.8802 518.72 85.5469 518.045C85.2173 517.371 85.0526 516.583 85.0526 515.682C85.0526 514.773 85.2173 513.979 85.5469 513.301C85.8802 512.623 86.3423 512.097 86.9332 511.722C87.5279 511.347 88.2192 511.159 89.0071 511.159C89.795 511.159 90.4844 511.347 91.0753 511.722C91.67 512.097 92.1321 512.623 92.4616 513.301C92.795 513.979 92.9616 514.773 92.9616 515.682C92.9616 516.583 92.795 517.371 92.4616 518.045C92.1321 518.72 91.67 519.244 91.0753 519.619C90.4844 519.994 89.795 520.182 89.0071 520.182ZM89.0071 518.977C89.6056 518.977 90.098 518.824 90.4844 518.517C90.8707 518.21 91.1567 517.807 91.3423 517.307C91.5279 516.807 91.6207 516.265 91.6207 515.682C91.6207 515.098 91.5279 514.555 91.3423 514.051C91.1567 513.547 90.8707 513.14 90.4844 512.83C90.098 512.519 89.6056 512.364 89.0071 512.364C88.4086 512.364 87.9162 512.519 87.5298 512.83C87.1435 513.14 86.8575 513.547 86.6719 514.051C86.4863 514.555 86.3935 515.098 86.3935 515.682C86.3935 516.265 86.4863 516.807 86.6719 517.307C86.8575 517.807 87.1435 518.21 87.5298 518.517C87.9162 518.824 88.4086 518.977 89.0071 518.977ZM98.804 511.273V512.409H94.2812V511.273H98.804ZM95.5994 509.182H96.9403V517.5C96.9403 517.879 96.9953 518.163 97.1051 518.352C97.2188 518.538 97.3627 518.663 97.5369 518.727C97.715 518.788 97.9025 518.818 98.0994 518.818C98.2472 518.818 98.3684 518.811 98.4631 518.795C98.5578 518.777 98.6335 518.761 98.6903 518.75L98.9631 519.955C98.8722 519.989 98.7453 520.023 98.5824 520.057C98.4195 520.095 98.2131 520.114 97.9631 520.114C97.5843 520.114 97.2131 520.032 96.8494 519.869C96.4896 519.706 96.1903 519.458 95.9517 519.125C95.7169 518.792 95.5994 518.371 95.5994 517.864V509.182ZM105.321 520V511.273H106.616V512.636H106.73C106.912 512.17 107.205 511.809 107.611 511.551C108.016 511.29 108.503 511.159 109.071 511.159C109.647 511.159 110.126 511.29 110.509 511.551C110.895 511.809 111.196 512.17 111.412 512.636H111.503C111.726 512.186 112.062 511.828 112.509 511.562C112.955 511.294 113.491 511.159 114.116 511.159C114.897 511.159 115.535 511.403 116.031 511.892C116.527 512.377 116.776 513.133 116.776 514.159V520H115.435V514.159C115.435 513.515 115.259 513.055 114.906 512.778C114.554 512.502 114.139 512.364 113.662 512.364C113.048 512.364 112.573 512.549 112.236 512.92C111.899 513.288 111.73 513.754 111.73 514.318V520H110.366V514.023C110.366 513.527 110.205 513.127 109.884 512.824C109.562 512.517 109.147 512.364 108.639 512.364C108.291 512.364 107.965 512.456 107.662 512.642C107.363 512.828 107.12 513.085 106.935 513.415C106.753 513.741 106.662 514.117 106.662 514.545V520H105.321ZM119.778 523.273C119.551 523.273 119.348 523.254 119.17 523.216C118.992 523.182 118.869 523.148 118.801 523.114L119.142 521.932C119.468 522.015 119.756 522.045 120.006 522.023C120.256 522 120.477 521.888 120.67 521.688C120.867 521.491 121.047 521.17 121.21 520.727L121.46 520.045L118.233 511.273H119.688L122.097 518.227H122.188L124.597 511.273H126.051L122.347 521.273C122.18 521.723 121.973 522.097 121.727 522.392C121.481 522.691 121.195 522.913 120.869 523.057C120.547 523.201 120.184 523.273 119.778 523.273ZM132.321 523.273V511.273H133.616V512.659H133.776C133.874 512.508 134.01 512.314 134.185 512.08C134.363 511.841 134.616 511.629 134.946 511.443C135.279 511.254 135.73 511.159 136.298 511.159C137.033 511.159 137.681 511.343 138.241 511.71C138.802 512.078 139.24 512.598 139.554 513.273C139.868 513.947 140.026 514.742 140.026 515.659C140.026 516.583 139.868 517.384 139.554 518.062C139.24 518.737 138.804 519.259 138.247 519.631C137.69 519.998 137.048 520.182 136.321 520.182C135.76 520.182 135.312 520.089 134.974 519.903C134.637 519.714 134.378 519.5 134.196 519.261C134.014 519.019 133.874 518.818 133.776 518.659H133.662V523.273H132.321ZM133.639 515.636C133.639 516.295 133.736 516.877 133.929 517.381C134.122 517.881 134.404 518.273 134.776 518.557C135.147 518.837 135.601 518.977 136.139 518.977C136.7 518.977 137.168 518.83 137.543 518.534C137.921 518.235 138.205 517.833 138.395 517.33C138.588 516.822 138.685 516.258 138.685 515.636C138.685 515.023 138.59 514.47 138.401 513.977C138.215 513.481 137.933 513.089 137.554 512.801C137.179 512.509 136.707 512.364 136.139 512.364C135.594 512.364 135.135 512.502 134.764 512.778C134.393 513.051 134.113 513.434 133.923 513.926C133.734 514.415 133.639 514.985 133.639 515.636ZM144.639 520.205C144.086 520.205 143.584 520.1 143.134 519.892C142.683 519.68 142.325 519.375 142.06 518.977C141.795 518.576 141.662 518.091 141.662 517.523C141.662 517.023 141.76 516.617 141.957 516.307C142.154 515.992 142.418 515.746 142.747 515.568C143.077 515.39 143.44 515.258 143.838 515.17C144.24 515.08 144.643 515.008 145.048 514.955C145.579 514.886 146.009 514.835 146.338 514.801C146.671 514.763 146.914 514.701 147.065 514.614C147.221 514.527 147.298 514.375 147.298 514.159V514.114C147.298 513.553 147.145 513.117 146.838 512.807C146.535 512.496 146.075 512.341 145.457 512.341C144.817 512.341 144.315 512.481 143.952 512.761C143.588 513.042 143.332 513.341 143.185 513.659L141.912 513.205C142.139 512.674 142.442 512.261 142.821 511.966C143.204 511.667 143.62 511.458 144.071 511.341C144.526 511.22 144.973 511.159 145.412 511.159C145.692 511.159 146.014 511.193 146.378 511.261C146.745 511.326 147.099 511.46 147.44 511.665C147.785 511.869 148.071 512.178 148.298 512.591C148.526 513.004 148.639 513.557 148.639 514.25V520H147.298V518.818H147.23C147.139 519.008 146.988 519.21 146.776 519.426C146.563 519.642 146.281 519.826 145.929 519.977C145.577 520.129 145.147 520.205 144.639 520.205ZM144.844 519C145.374 519 145.821 518.896 146.185 518.688C146.552 518.479 146.829 518.21 147.014 517.881C147.204 517.551 147.298 517.205 147.298 516.841V515.614C147.241 515.682 147.116 515.744 146.923 515.801C146.734 515.854 146.514 515.902 146.264 515.943C146.018 515.981 145.777 516.015 145.543 516.045C145.312 516.072 145.124 516.095 144.98 516.114C144.632 516.159 144.306 516.233 144.003 516.335C143.704 516.434 143.461 516.583 143.276 516.784C143.094 516.981 143.003 517.25 143.003 517.591C143.003 518.057 143.175 518.409 143.52 518.648C143.868 518.883 144.31 519 144.844 519ZM157.268 513.227L156.064 513.568C155.988 513.367 155.876 513.172 155.729 512.983C155.585 512.79 155.388 512.631 155.138 512.506C154.888 512.381 154.568 512.318 154.178 512.318C153.643 512.318 153.198 512.441 152.842 512.688C152.49 512.93 152.314 513.239 152.314 513.614C152.314 513.947 152.435 514.21 152.678 514.403C152.92 514.597 153.299 514.758 153.814 514.886L155.109 515.205C155.89 515.394 156.471 515.684 156.854 516.074C157.236 516.46 157.428 516.958 157.428 517.568C157.428 518.068 157.284 518.515 156.996 518.909C156.712 519.303 156.314 519.614 155.803 519.841C155.291 520.068 154.696 520.182 154.018 520.182C153.128 520.182 152.392 519.989 151.808 519.602C151.225 519.216 150.856 518.652 150.7 517.909L151.973 517.591C152.094 518.061 152.323 518.413 152.661 518.648C153.001 518.883 153.446 519 153.996 519C154.621 519 155.117 518.867 155.484 518.602C155.856 518.333 156.041 518.011 156.041 517.636C156.041 517.333 155.935 517.08 155.723 516.875C155.511 516.667 155.185 516.511 154.746 516.409L153.291 516.068C152.492 515.879 151.905 515.585 151.53 515.188C151.159 514.786 150.973 514.284 150.973 513.682C150.973 513.189 151.111 512.754 151.388 512.375C151.668 511.996 152.049 511.699 152.53 511.483C153.015 511.267 153.564 511.159 154.178 511.159C155.041 511.159 155.719 511.348 156.212 511.727C156.708 512.106 157.06 512.606 157.268 513.227ZM165.628 513.227L164.423 513.568C164.348 513.367 164.236 513.172 164.088 512.983C163.944 512.79 163.747 512.631 163.497 512.506C163.247 512.381 162.927 512.318 162.537 512.318C162.003 512.318 161.558 512.441 161.202 512.688C160.849 512.93 160.673 513.239 160.673 513.614C160.673 513.947 160.795 514.21 161.037 514.403C161.279 514.597 161.658 514.758 162.173 514.886L163.469 515.205C164.249 515.394 164.83 515.684 165.213 516.074C165.596 516.46 165.787 516.958 165.787 517.568C165.787 518.068 165.643 518.515 165.355 518.909C165.071 519.303 164.673 519.614 164.162 519.841C163.651 520.068 163.056 520.182 162.378 520.182C161.488 520.182 160.751 519.989 160.168 519.602C159.584 519.216 159.215 518.652 159.06 517.909L160.332 517.591C160.454 518.061 160.683 518.413 161.02 518.648C161.361 518.883 161.806 519 162.355 519C162.98 519 163.476 518.867 163.844 518.602C164.215 518.333 164.401 518.011 164.401 517.636C164.401 517.333 164.295 517.08 164.082 516.875C163.87 516.667 163.545 516.511 163.105 516.409L161.651 516.068C160.851 515.879 160.264 515.585 159.889 515.188C159.518 514.786 159.332 514.284 159.332 513.682C159.332 513.189 159.471 512.754 159.747 512.375C160.027 511.996 160.408 511.699 160.889 511.483C161.374 511.267 161.923 511.159 162.537 511.159C163.401 511.159 164.079 511.348 164.571 511.727C165.067 512.106 165.42 512.606 165.628 513.227ZM169.783 520L167.124 511.273H168.533L170.419 517.955H170.51L172.374 511.273H173.805L175.646 517.932H175.737L177.624 511.273H179.033L176.374 520H175.055L173.146 513.295H173.01L171.101 520H169.783ZM184.054 520.182C183.266 520.182 182.575 519.994 181.98 519.619C181.389 519.244 180.927 518.72 180.594 518.045C180.264 517.371 180.099 516.583 180.099 515.682C180.099 514.773 180.264 513.979 180.594 513.301C180.927 512.623 181.389 512.097 181.98 511.722C182.575 511.347 183.266 511.159 184.054 511.159C184.842 511.159 185.531 511.347 186.122 511.722C186.717 512.097 187.179 512.623 187.509 513.301C187.842 513.979 188.009 514.773 188.009 515.682C188.009 516.583 187.842 517.371 187.509 518.045C187.179 518.72 186.717 519.244 186.122 519.619C185.531 519.994 184.842 520.182 184.054 520.182ZM184.054 518.977C184.652 518.977 185.145 518.824 185.531 518.517C185.918 518.21 186.204 517.807 186.389 517.307C186.575 516.807 186.668 516.265 186.668 515.682C186.668 515.098 186.575 514.555 186.389 514.051C186.204 513.547 185.918 513.14 185.531 512.83C185.145 512.519 184.652 512.364 184.054 512.364C183.455 512.364 182.963 512.519 182.577 512.83C182.19 513.14 181.904 513.547 181.719 514.051C181.533 514.555 181.44 515.098 181.44 515.682C181.44 516.265 181.533 516.807 181.719 517.307C181.904 517.807 182.19 518.21 182.577 518.517C182.963 518.824 183.455 518.977 184.054 518.977ZM190.055 520V511.273H191.351V512.591H191.442C191.601 512.159 191.889 511.809 192.305 511.54C192.722 511.271 193.192 511.136 193.714 511.136C193.813 511.136 193.936 511.138 194.084 511.142C194.232 511.146 194.343 511.152 194.419 511.159V512.523C194.374 512.511 194.269 512.494 194.107 512.472C193.947 512.445 193.779 512.432 193.601 512.432C193.177 512.432 192.798 512.521 192.464 512.699C192.135 512.873 191.874 513.116 191.68 513.426C191.491 513.733 191.396 514.083 191.396 514.477V520H190.055ZM199.038 520.182C198.311 520.182 197.669 519.998 197.112 519.631C196.555 519.259 196.12 518.737 195.805 518.062C195.491 517.384 195.334 516.583 195.334 515.659C195.334 514.742 195.491 513.947 195.805 513.273C196.12 512.598 196.557 512.078 197.118 511.71C197.679 511.343 198.326 511.159 199.061 511.159C199.629 511.159 200.078 511.254 200.408 511.443C200.741 511.629 200.995 511.841 201.169 512.08C201.347 512.314 201.485 512.508 201.584 512.659H201.697V508.364H203.038V520H201.743V518.659H201.584C201.485 518.818 201.345 519.019 201.163 519.261C200.982 519.5 200.722 519.714 200.385 519.903C200.048 520.089 199.599 520.182 199.038 520.182ZM199.22 518.977C199.758 518.977 200.213 518.837 200.584 518.557C200.955 518.273 201.237 517.881 201.43 517.381C201.624 516.877 201.72 516.295 201.72 515.636C201.72 514.985 201.625 514.415 201.436 513.926C201.247 513.434 200.966 513.051 200.595 512.778C200.224 512.502 199.766 512.364 199.22 512.364C198.652 512.364 198.179 512.509 197.8 512.801C197.425 513.089 197.143 513.481 196.953 513.977C196.768 514.47 196.675 515.023 196.675 515.636C196.675 516.258 196.769 516.822 196.959 517.33C197.152 517.833 197.436 518.235 197.811 518.534C198.19 518.83 198.66 518.977 199.22 518.977Z" fill="#29ABE2"/>
<rect x="50.5" y="556.5" width="16" height="16" rx="3" fill="url(#paint0_linear_332_1638)" stroke="black"/>
<path d="M87.9091 570V558.364H91.8409C92.75 558.364 93.4962 558.519 94.0795 558.83C94.6629 559.136 95.0947 559.559 95.375 560.097C95.6553 560.634 95.7955 561.246 95.7955 561.932C95.7955 562.617 95.6553 563.225 95.375 563.756C95.0947 564.286 94.6648 564.703 94.0852 565.006C93.5057 565.305 92.7652 565.455 91.8636 565.455H88.6818V564.182H91.8182C92.4394 564.182 92.9394 564.091 93.3182 563.909C93.7008 563.727 93.9773 563.47 94.1477 563.136C94.322 562.799 94.4091 562.398 94.4091 561.932C94.4091 561.466 94.322 561.059 94.1477 560.71C93.9735 560.362 93.6951 560.093 93.3125 559.903C92.9299 559.71 92.4242 559.614 91.7955 559.614H89.3182V570H87.9091ZM93.3864 564.773L96.25 570H94.6136L91.7955 564.773H93.3864ZM101.527 570.182C100.686 570.182 99.9607 569.996 99.3509 569.625C98.7448 569.25 98.277 568.727 97.9474 568.057C97.6217 567.383 97.4588 566.598 97.4588 565.705C97.4588 564.811 97.6217 564.023 97.9474 563.341C98.277 562.655 98.7353 562.121 99.3224 561.739C99.9134 561.352 100.603 561.159 101.391 561.159C101.845 561.159 102.294 561.235 102.737 561.386C103.18 561.538 103.584 561.784 103.947 562.125C104.311 562.462 104.601 562.909 104.817 563.466C105.033 564.023 105.141 564.708 105.141 565.523V566.091H98.4134V564.932H103.777C103.777 564.439 103.679 564 103.482 563.614C103.288 563.227 103.012 562.922 102.652 562.699C102.296 562.475 101.875 562.364 101.391 562.364C100.857 562.364 100.394 562.496 100.004 562.761C99.6179 563.023 99.3205 563.364 99.1122 563.784C98.9039 564.205 98.7997 564.655 98.7997 565.136V565.909C98.7997 566.568 98.9134 567.127 99.1406 567.585C99.3717 568.04 99.6918 568.386 100.101 568.625C100.51 568.86 100.985 568.977 101.527 568.977C101.879 568.977 102.197 568.928 102.482 568.83C102.769 568.727 103.018 568.576 103.226 568.375C103.434 568.17 103.595 567.917 103.709 567.614L105.004 567.977C104.868 568.417 104.639 568.803 104.317 569.136C103.995 569.466 103.597 569.723 103.124 569.909C102.65 570.091 102.118 570.182 101.527 570.182ZM107.18 570V561.273H108.476V562.636H108.589C108.771 562.17 109.065 561.809 109.47 561.551C109.875 561.29 110.362 561.159 110.93 561.159C111.506 561.159 111.985 561.29 112.368 561.551C112.754 561.809 113.055 562.17 113.271 562.636H113.362C113.586 562.186 113.921 561.828 114.368 561.562C114.815 561.294 115.351 561.159 115.976 561.159C116.756 561.159 117.394 561.403 117.891 561.892C118.387 562.377 118.635 563.133 118.635 564.159V570H117.294V564.159C117.294 563.515 117.118 563.055 116.766 562.778C116.413 562.502 115.999 562.364 115.521 562.364C114.908 562.364 114.432 562.549 114.095 562.92C113.758 563.288 113.589 563.754 113.589 564.318V570H112.226V564.023C112.226 563.527 112.065 563.127 111.743 562.824C111.421 562.517 111.006 562.364 110.499 562.364C110.15 562.364 109.824 562.456 109.521 562.642C109.222 562.828 108.98 563.085 108.794 563.415C108.612 563.741 108.521 564.117 108.521 564.545V570H107.18ZM124.746 570.182C123.905 570.182 123.179 569.996 122.57 569.625C121.964 569.25 121.496 568.727 121.166 568.057C120.84 567.383 120.678 566.598 120.678 565.705C120.678 564.811 120.84 564.023 121.166 563.341C121.496 562.655 121.954 562.121 122.541 561.739C123.132 561.352 123.821 561.159 124.609 561.159C125.064 561.159 125.513 561.235 125.956 561.386C126.399 561.538 126.803 561.784 127.166 562.125C127.53 562.462 127.82 562.909 128.036 563.466C128.251 564.023 128.359 564.708 128.359 565.523V566.091H121.632V564.932H126.996C126.996 564.439 126.897 564 126.7 563.614C126.507 563.227 126.231 562.922 125.871 562.699C125.515 562.475 125.094 562.364 124.609 562.364C124.075 562.364 123.613 562.496 123.223 562.761C122.837 563.023 122.539 563.364 122.331 563.784C122.123 564.205 122.018 564.655 122.018 565.136V565.909C122.018 566.568 122.132 567.127 122.359 567.585C122.59 568.04 122.911 568.386 123.32 568.625C123.729 568.86 124.204 568.977 124.746 568.977C125.098 568.977 125.416 568.928 125.7 568.83C125.988 568.727 126.236 568.576 126.445 568.375C126.653 568.17 126.814 567.917 126.928 567.614L128.223 567.977C128.087 568.417 127.857 568.803 127.536 569.136C127.214 569.466 126.816 569.723 126.342 569.909C125.869 570.091 125.337 570.182 124.746 570.182ZM130.399 570V561.273H131.695V562.636H131.808C131.99 562.17 132.284 561.809 132.689 561.551C133.094 561.29 133.581 561.159 134.149 561.159C134.725 561.159 135.204 561.29 135.587 561.551C135.973 561.809 136.274 562.17 136.49 562.636H136.581C136.804 562.186 137.14 561.828 137.587 561.562C138.034 561.294 138.57 561.159 139.195 561.159C139.975 561.159 140.613 561.403 141.109 561.892C141.606 562.377 141.854 563.133 141.854 564.159V570H140.513V564.159C140.513 563.515 140.337 563.055 139.984 562.778C139.632 562.502 139.217 562.364 138.74 562.364C138.126 562.364 137.651 562.549 137.314 562.92C136.977 563.288 136.808 563.754 136.808 564.318V570H135.445V564.023C135.445 563.527 135.284 563.127 134.962 562.824C134.64 562.517 134.225 562.364 133.717 562.364C133.369 562.364 133.043 562.456 132.74 562.642C132.441 562.828 132.198 563.085 132.013 563.415C131.831 563.741 131.74 564.117 131.74 564.545V570H130.399ZM144.487 570V558.364H145.828V562.659H145.942C146.04 562.508 146.177 562.314 146.351 562.08C146.529 561.841 146.783 561.629 147.112 561.443C147.446 561.254 147.896 561.159 148.464 561.159C149.199 561.159 149.847 561.343 150.408 561.71C150.968 562.078 151.406 562.598 151.72 563.273C152.035 563.947 152.192 564.742 152.192 565.659C152.192 566.583 152.035 567.384 151.72 568.062C151.406 568.737 150.97 569.259 150.413 569.631C149.857 569.998 149.214 570.182 148.487 570.182C147.927 570.182 147.478 570.089 147.141 569.903C146.804 569.714 146.544 569.5 146.362 569.261C146.18 569.019 146.04 568.818 145.942 568.659H145.783V570H144.487ZM145.805 565.636C145.805 566.295 145.902 566.877 146.095 567.381C146.288 567.881 146.571 568.273 146.942 568.557C147.313 568.837 147.768 568.977 148.305 568.977C148.866 568.977 149.334 568.83 149.709 568.534C150.088 568.235 150.372 567.833 150.561 567.33C150.754 566.822 150.851 566.258 150.851 565.636C150.851 565.023 150.756 564.47 150.567 563.977C150.381 563.481 150.099 563.089 149.72 562.801C149.345 562.509 148.874 562.364 148.305 562.364C147.76 562.364 147.302 562.502 146.93 562.778C146.559 563.051 146.279 563.434 146.089 563.926C145.9 564.415 145.805 564.985 145.805 565.636ZM157.902 570.182C157.061 570.182 156.336 569.996 155.726 569.625C155.12 569.25 154.652 568.727 154.322 568.057C153.997 567.383 153.834 566.598 153.834 565.705C153.834 564.811 153.997 564.023 154.322 563.341C154.652 562.655 155.11 562.121 155.697 561.739C156.288 561.352 156.978 561.159 157.766 561.159C158.22 561.159 158.669 561.235 159.112 561.386C159.555 561.538 159.959 561.784 160.322 562.125C160.686 562.462 160.976 562.909 161.192 563.466C161.408 564.023 161.516 564.708 161.516 565.523V566.091H154.788V564.932H160.152C160.152 564.439 160.054 564 159.857 563.614C159.663 563.227 159.387 562.922 159.027 562.699C158.671 562.475 158.25 562.364 157.766 562.364C157.232 562.364 156.769 562.496 156.379 562.761C155.993 563.023 155.696 563.364 155.487 563.784C155.279 564.205 155.175 564.655 155.175 565.136V565.909C155.175 566.568 155.288 567.127 155.516 567.585C155.747 568.04 156.067 568.386 156.476 568.625C156.885 568.86 157.36 568.977 157.902 568.977C158.254 568.977 158.572 568.928 158.857 568.83C159.144 568.727 159.393 568.576 159.601 568.375C159.809 568.17 159.97 567.917 160.084 567.614L161.379 567.977C161.243 568.417 161.014 568.803 160.692 569.136C160.37 569.466 159.972 569.723 159.499 569.909C159.025 570.091 158.493 570.182 157.902 570.182ZM163.555 570V561.273H164.851V562.591H164.942C165.101 562.159 165.389 561.809 165.805 561.54C166.222 561.271 166.692 561.136 167.214 561.136C167.313 561.136 167.436 561.138 167.584 561.142C167.732 561.146 167.843 561.152 167.919 561.159V562.523C167.874 562.511 167.769 562.494 167.607 562.472C167.447 562.445 167.279 562.432 167.101 562.432C166.677 562.432 166.298 562.521 165.964 562.699C165.635 562.873 165.374 563.116 165.18 563.426C164.991 563.733 164.896 564.083 164.896 564.477V570H163.555ZM174.009 570V561.273H175.304V562.636H175.418C175.599 562.17 175.893 561.809 176.298 561.551C176.704 561.29 177.19 561.159 177.759 561.159C178.334 561.159 178.813 561.29 179.196 561.551C179.582 561.809 179.884 562.17 180.099 562.636H180.19C180.414 562.186 180.749 561.828 181.196 561.562C181.643 561.294 182.179 561.159 182.804 561.159C183.584 561.159 184.223 561.403 184.719 561.892C185.215 562.377 185.463 563.133 185.463 564.159V570H184.122V564.159C184.122 563.515 183.946 563.055 183.594 562.778C183.241 562.502 182.827 562.364 182.349 562.364C181.736 562.364 181.26 562.549 180.923 562.92C180.586 563.288 180.418 563.754 180.418 564.318V570H179.054V564.023C179.054 563.527 178.893 563.127 178.571 562.824C178.249 562.517 177.834 562.364 177.327 562.364C176.978 562.364 176.652 562.456 176.349 562.642C176.05 562.828 175.808 563.085 175.622 563.415C175.44 563.741 175.349 564.117 175.349 564.545V570H174.009ZM191.574 570.182C190.733 570.182 190.008 569.996 189.398 569.625C188.792 569.25 188.324 568.727 187.994 568.057C187.669 567.383 187.506 566.598 187.506 565.705C187.506 564.811 187.669 564.023 187.994 563.341C188.324 562.655 188.782 562.121 189.369 561.739C189.96 561.352 190.65 561.159 191.438 561.159C191.892 561.159 192.341 561.235 192.784 561.386C193.227 561.538 193.631 561.784 193.994 562.125C194.358 562.462 194.648 562.909 194.864 563.466C195.08 564.023 195.188 564.708 195.188 565.523V566.091H188.46V564.932H193.824C193.824 564.439 193.725 564 193.528 563.614C193.335 563.227 193.059 562.922 192.699 562.699C192.343 562.475 191.922 562.364 191.438 562.364C190.903 562.364 190.441 562.496 190.051 562.761C189.665 563.023 189.367 563.364 189.159 563.784C188.951 564.205 188.847 564.655 188.847 565.136V565.909C188.847 566.568 188.96 567.127 189.188 567.585C189.419 568.04 189.739 568.386 190.148 568.625C190.557 568.86 191.032 568.977 191.574 568.977C191.926 568.977 192.244 568.928 192.528 568.83C192.816 568.727 193.064 568.576 193.273 568.375C193.481 568.17 193.642 567.917 193.756 567.614L195.051 567.977C194.915 568.417 194.686 568.803 194.364 569.136C194.042 569.466 193.644 569.723 193.17 569.909C192.697 570.091 192.165 570.182 191.574 570.182Z" fill="black"/>
<rect x="124" y="609" width="180" height="51" rx="8" fill="#2A3647"/>
<path d="M191.011 640V628.364H193.472V637.972H198.46V640H191.011ZM203.987 640.17C203.105 640.17 202.341 639.983 201.697 639.608C201.057 639.229 200.563 638.703 200.214 638.028C199.866 637.35 199.692 636.564 199.692 635.67C199.692 634.769 199.866 633.981 200.214 633.307C200.563 632.629 201.057 632.102 201.697 631.727C202.341 631.348 203.105 631.159 203.987 631.159C204.87 631.159 205.631 631.348 206.271 631.727C206.915 632.102 207.411 632.629 207.76 633.307C208.108 633.981 208.283 634.769 208.283 635.67C208.283 636.564 208.108 637.35 207.76 638.028C207.411 638.703 206.915 639.229 206.271 639.608C205.631 639.983 204.87 640.17 203.987 640.17ZM203.999 638.295C204.4 638.295 204.735 638.182 205.004 637.955C205.273 637.723 205.476 637.409 205.612 637.011C205.752 636.614 205.822 636.161 205.822 635.653C205.822 635.146 205.752 634.693 205.612 634.295C205.476 633.898 205.273 633.583 205.004 633.352C204.735 633.121 204.4 633.006 203.999 633.006C203.593 633.006 203.252 633.121 202.976 633.352C202.703 633.583 202.497 633.898 202.357 634.295C202.22 634.693 202.152 635.146 202.152 635.653C202.152 636.161 202.22 636.614 202.357 637.011C202.497 637.409 202.703 637.723 202.976 637.955C203.252 638.182 203.593 638.295 203.999 638.295ZM213.788 643.455C213.004 643.455 212.332 643.347 211.771 643.131C211.214 642.919 210.771 642.629 210.442 642.261C210.112 641.894 209.898 641.481 209.8 641.023L212.038 640.722C212.107 640.896 212.214 641.059 212.362 641.21C212.51 641.362 212.705 641.483 212.947 641.574C213.194 641.669 213.493 641.716 213.845 641.716C214.372 641.716 214.805 641.587 215.146 641.33C215.491 641.076 215.663 640.65 215.663 640.051V638.455H215.561C215.455 638.697 215.296 638.926 215.084 639.142C214.872 639.358 214.599 639.534 214.266 639.67C213.932 639.807 213.535 639.875 213.072 639.875C212.417 639.875 211.821 639.723 211.283 639.42C210.749 639.114 210.322 638.646 210.004 638.017C209.69 637.384 209.533 636.585 209.533 635.619C209.533 634.631 209.694 633.805 210.016 633.142C210.338 632.479 210.766 631.983 211.3 631.653C211.838 631.324 212.427 631.159 213.067 631.159C213.555 631.159 213.964 631.242 214.294 631.409C214.624 631.572 214.889 631.777 215.089 632.023C215.294 632.265 215.451 632.504 215.561 632.739H215.652V631.273H218.055V640.085C218.055 640.828 217.874 641.449 217.51 641.949C217.146 642.449 216.643 642.824 215.999 643.074C215.358 643.328 214.622 643.455 213.788 643.455ZM213.839 638.057C214.23 638.057 214.559 637.96 214.828 637.767C215.101 637.57 215.309 637.29 215.453 636.926C215.601 636.559 215.675 636.119 215.675 635.608C215.675 635.097 215.603 634.653 215.459 634.278C215.315 633.9 215.107 633.606 214.834 633.398C214.561 633.189 214.23 633.085 213.839 633.085C213.442 633.085 213.107 633.193 212.834 633.409C212.561 633.621 212.355 633.917 212.214 634.295C212.074 634.674 212.004 635.112 212.004 635.608C212.004 636.112 212.074 636.547 212.214 636.915C212.358 637.278 212.565 637.561 212.834 637.761C213.107 637.958 213.442 638.057 213.839 638.057ZM223.685 640V631.273H226.105V640H223.685ZM224.901 630.148C224.541 630.148 224.232 630.028 223.974 629.79C223.721 629.547 223.594 629.258 223.594 628.92C223.594 628.587 223.721 628.301 223.974 628.062C224.232 627.82 224.541 627.699 224.901 627.699C225.26 627.699 225.567 627.82 225.821 628.062C226.079 628.301 226.207 628.587 226.207 628.92C226.207 629.258 226.079 629.547 225.821 629.79C225.567 630.028 225.26 630.148 224.901 630.148ZM230.464 634.955V640H228.044V631.273H230.351V632.812H230.453C230.646 632.305 230.97 631.903 231.425 631.608C231.879 631.309 232.43 631.159 233.078 631.159C233.684 631.159 234.213 631.292 234.663 631.557C235.114 631.822 235.464 632.201 235.714 632.693C235.964 633.182 236.089 633.765 236.089 634.443V640H233.669V634.875C233.673 634.341 233.536 633.924 233.26 633.625C232.983 633.322 232.603 633.17 232.118 633.17C231.792 633.17 231.504 633.241 231.254 633.381C231.008 633.521 230.815 633.725 230.675 633.994C230.538 634.259 230.468 634.58 230.464 634.955Z" fill="white"/>
<path d="M173.727 704.125C173.648 703.848 173.536 703.604 173.392 703.392C173.248 703.176 173.072 702.994 172.864 702.847C172.659 702.695 172.424 702.58 172.159 702.5C171.898 702.42 171.608 702.381 171.29 702.381C170.695 702.381 170.172 702.528 169.722 702.824C169.275 703.119 168.926 703.549 168.676 704.114C168.426 704.674 168.301 705.36 168.301 706.17C168.301 706.981 168.424 707.67 168.67 708.239C168.917 708.807 169.265 709.241 169.716 709.54C170.167 709.835 170.699 709.983 171.312 709.983C171.869 709.983 172.345 709.884 172.739 709.688C173.136 709.487 173.439 709.205 173.648 708.841C173.86 708.477 173.966 708.047 173.966 707.551L174.466 707.625H171.466V705.773H176.335V707.239C176.335 708.261 176.119 709.14 175.688 709.875C175.256 710.606 174.661 711.17 173.903 711.568C173.146 711.962 172.278 712.159 171.301 712.159C170.21 712.159 169.252 711.919 168.426 711.438C167.6 710.953 166.956 710.265 166.494 709.375C166.036 708.481 165.807 707.42 165.807 706.193C165.807 705.25 165.943 704.409 166.216 703.67C166.492 702.928 166.879 702.299 167.375 701.784C167.871 701.269 168.449 700.877 169.108 700.608C169.767 700.339 170.481 700.205 171.25 700.205C171.909 700.205 172.523 700.301 173.091 700.494C173.659 700.684 174.163 700.953 174.602 701.301C175.045 701.65 175.407 702.064 175.688 702.545C175.968 703.023 176.148 703.549 176.227 704.125H173.727ZM183.734 708.284V703.273H186.155V712H183.831V710.415H183.74C183.543 710.926 183.215 711.337 182.757 711.648C182.303 711.958 181.748 712.114 181.092 712.114C180.509 712.114 179.996 711.981 179.553 711.716C179.109 711.451 178.763 711.074 178.513 710.585C178.267 710.097 178.142 709.511 178.138 708.83V703.273H180.558V708.398C180.562 708.913 180.7 709.32 180.973 709.619C181.246 709.919 181.611 710.068 182.07 710.068C182.361 710.068 182.634 710.002 182.888 709.869C183.142 709.733 183.346 709.532 183.501 709.267C183.661 709.002 183.738 708.674 183.734 708.284ZM192.068 712.17C191.17 712.17 190.398 711.989 189.75 711.625C189.106 711.258 188.61 710.739 188.261 710.068C187.913 709.394 187.739 708.597 187.739 707.676C187.739 706.778 187.913 705.991 188.261 705.312C188.61 704.634 189.1 704.106 189.733 703.727C190.369 703.348 191.116 703.159 191.972 703.159C192.547 703.159 193.083 703.252 193.58 703.438C194.08 703.619 194.515 703.894 194.886 704.261C195.261 704.629 195.553 705.091 195.761 705.648C195.97 706.201 196.074 706.848 196.074 707.591V708.256H188.705V706.756H193.795C193.795 706.407 193.72 706.098 193.568 705.83C193.417 705.561 193.206 705.35 192.938 705.199C192.672 705.044 192.364 704.966 192.011 704.966C191.644 704.966 191.318 705.051 191.034 705.222C190.754 705.388 190.534 705.614 190.375 705.898C190.216 706.178 190.134 706.491 190.131 706.835V708.261C190.131 708.693 190.21 709.066 190.369 709.381C190.532 709.695 190.761 709.938 191.057 710.108C191.352 710.278 191.703 710.364 192.108 710.364C192.377 710.364 192.623 710.326 192.847 710.25C193.07 710.174 193.261 710.061 193.42 709.909C193.58 709.758 193.701 709.572 193.784 709.352L196.023 709.5C195.909 710.038 195.676 710.508 195.324 710.909C194.975 711.307 194.525 711.617 193.972 711.841C193.422 712.061 192.788 712.17 192.068 712.17ZM204.915 705.761L202.699 705.898C202.661 705.708 202.58 705.538 202.455 705.386C202.33 705.231 202.165 705.108 201.96 705.017C201.759 704.922 201.519 704.875 201.239 704.875C200.864 704.875 200.547 704.955 200.29 705.114C200.032 705.269 199.903 705.477 199.903 705.739C199.903 705.947 199.987 706.123 200.153 706.267C200.32 706.411 200.606 706.527 201.011 706.614L202.591 706.932C203.439 707.106 204.072 707.386 204.489 707.773C204.905 708.159 205.114 708.667 205.114 709.295C205.114 709.867 204.945 710.369 204.608 710.801C204.275 711.233 203.816 711.57 203.233 711.812C202.653 712.051 201.985 712.17 201.227 712.17C200.072 712.17 199.152 711.93 198.466 711.449C197.784 710.964 197.384 710.305 197.267 709.472L199.648 709.347C199.72 709.699 199.894 709.968 200.17 710.153C200.447 710.335 200.801 710.426 201.233 710.426C201.657 710.426 201.998 710.345 202.256 710.182C202.517 710.015 202.65 709.801 202.653 709.54C202.65 709.32 202.557 709.14 202.375 709C202.193 708.856 201.913 708.746 201.534 708.67L200.023 708.369C199.17 708.199 198.536 707.903 198.119 707.483C197.706 707.062 197.5 706.527 197.5 705.875C197.5 705.314 197.652 704.831 197.955 704.426C198.261 704.021 198.691 703.708 199.244 703.489C199.801 703.269 200.453 703.159 201.199 703.159C202.301 703.159 203.169 703.392 203.801 703.858C204.438 704.324 204.809 704.958 204.915 705.761ZM211.28 703.273V705.091H206.024V703.273H211.28ZM207.217 701.182H209.638V709.318C209.638 709.542 209.672 709.716 209.74 709.841C209.808 709.962 209.903 710.047 210.024 710.097C210.149 710.146 210.293 710.17 210.456 710.17C210.57 710.17 210.683 710.161 210.797 710.142C210.911 710.119 210.998 710.102 211.058 710.091L211.439 711.892C211.318 711.93 211.147 711.973 210.928 712.023C210.708 712.076 210.441 712.108 210.126 712.119C209.543 712.142 209.032 712.064 208.592 711.886C208.157 711.708 207.818 711.432 207.575 711.057C207.333 710.682 207.214 710.208 207.217 709.636V701.182ZM216.605 712V700.364H219.065V709.972H224.054V712H216.605ZM229.581 712.17C228.698 712.17 227.935 711.983 227.291 711.608C226.651 711.229 226.157 710.703 225.808 710.028C225.46 709.35 225.286 708.564 225.286 707.67C225.286 706.769 225.46 705.981 225.808 705.307C226.157 704.629 226.651 704.102 227.291 703.727C227.935 703.348 228.698 703.159 229.581 703.159C230.464 703.159 231.225 703.348 231.865 703.727C232.509 704.102 233.005 704.629 233.354 705.307C233.702 705.981 233.876 706.769 233.876 707.67C233.876 708.564 233.702 709.35 233.354 710.028C233.005 710.703 232.509 711.229 231.865 711.608C231.225 711.983 230.464 712.17 229.581 712.17ZM229.592 710.295C229.994 710.295 230.329 710.182 230.598 709.955C230.867 709.723 231.07 709.409 231.206 709.011C231.346 708.614 231.416 708.161 231.416 707.653C231.416 707.146 231.346 706.693 231.206 706.295C231.07 705.898 230.867 705.583 230.598 705.352C230.329 705.121 229.994 705.006 229.592 705.006C229.187 705.006 228.846 705.121 228.57 705.352C228.297 705.583 228.09 705.898 227.95 706.295C227.814 706.693 227.746 707.146 227.746 707.653C227.746 708.161 227.814 708.614 227.95 709.011C228.09 709.409 228.297 709.723 228.57 709.955C228.846 710.182 229.187 710.295 229.592 710.295ZM239.382 715.455C238.598 715.455 237.926 715.347 237.365 715.131C236.808 714.919 236.365 714.629 236.036 714.261C235.706 713.894 235.492 713.481 235.393 713.023L237.632 712.722C237.7 712.896 237.808 713.059 237.956 713.21C238.104 713.362 238.299 713.483 238.541 713.574C238.787 713.669 239.087 713.716 239.439 713.716C239.965 713.716 240.399 713.587 240.74 713.33C241.085 713.076 241.257 712.65 241.257 712.051V710.455H241.155C241.049 710.697 240.89 710.926 240.678 711.142C240.465 711.358 240.193 711.534 239.859 711.67C239.526 711.807 239.128 711.875 238.666 711.875C238.011 711.875 237.414 711.723 236.876 711.42C236.342 711.114 235.916 710.646 235.598 710.017C235.284 709.384 235.126 708.585 235.126 707.619C235.126 706.631 235.287 705.805 235.609 705.142C235.931 704.479 236.359 703.983 236.893 703.653C237.431 703.324 238.02 703.159 238.661 703.159C239.149 703.159 239.558 703.242 239.888 703.409C240.217 703.572 240.482 703.777 240.683 704.023C240.888 704.265 241.045 704.504 241.155 704.739H241.246V703.273H243.649V712.085C243.649 712.828 243.467 713.449 243.104 713.949C242.74 714.449 242.236 714.824 241.592 715.074C240.952 715.328 240.215 715.455 239.382 715.455ZM239.433 710.057C239.823 710.057 240.153 709.96 240.422 709.767C240.695 709.57 240.903 709.29 241.047 708.926C241.195 708.559 241.268 708.119 241.268 707.608C241.268 707.097 241.196 706.653 241.053 706.278C240.909 705.9 240.7 705.606 240.428 705.398C240.155 705.189 239.823 705.085 239.433 705.085C239.036 705.085 238.7 705.193 238.428 705.409C238.155 705.621 237.948 705.917 237.808 706.295C237.668 706.674 237.598 707.112 237.598 707.608C237.598 708.112 237.668 708.547 237.808 708.915C237.952 709.278 238.159 709.561 238.428 709.761C238.7 709.958 239.036 710.057 239.433 710.057ZM249.278 712V703.273H251.699V712H249.278ZM250.494 702.148C250.134 702.148 249.826 702.028 249.568 701.79C249.314 701.547 249.188 701.258 249.188 700.92C249.188 700.587 249.314 700.301 249.568 700.062C249.826 699.82 250.134 699.699 250.494 699.699C250.854 699.699 251.161 699.82 251.415 700.062C251.672 700.301 251.801 700.587 251.801 700.92C251.801 701.258 251.672 701.547 251.415 701.79C251.161 702.028 250.854 702.148 250.494 702.148ZM256.058 706.955V712H253.638V703.273H255.945V704.812H256.047C256.24 704.305 256.564 703.903 257.018 703.608C257.473 703.309 258.024 703.159 258.672 703.159C259.278 703.159 259.806 703.292 260.257 703.557C260.708 703.822 261.058 704.201 261.308 704.693C261.558 705.182 261.683 705.765 261.683 706.443V712H259.263V706.875C259.267 706.341 259.13 705.924 258.854 705.625C258.577 705.322 258.196 705.17 257.712 705.17C257.386 705.17 257.098 705.241 256.848 705.381C256.602 705.521 256.409 705.725 256.268 705.994C256.132 706.259 256.062 706.58 256.058 706.955Z" fill="#2A3647"/>
<rect x="124.5" y="681.5" width="179" height="50" rx="7.5" stroke="#2A3647"/>
</g>
<path d="M83.8539 37H69.6777V53.3095H83.8539V37Z" fill="#2A3647"/>
<path d="M69.6783 66.5732H83.8544V89.5752C83.9192 95.1101 82.344 100.539 79.329 105.173C76.352 109.675 70.6052 115.031 59.973 115.031C48.3922 115.031 41.6422 109.554 38 106.553L46.9419 95.5228C50.4968 98.4255 53.9209 100.813 60.0276 100.813C64.6512 100.813 66.4941 98.9293 67.5737 97.2863C69.0413 95.0042 69.8004 92.3354 69.7546 89.619L69.6783 66.5732Z" fill="#2A3647"/>
<path d="M62.4476 56.2773H48.2715V70.5166H62.4476V56.2773Z" fill="#29ABE2"/>
<path d="M91.2818 108.35C91.2818 111.384 89.7442 113.016 87.596 113.016C85.4477 113.016 84.041 111.077 84.041 108.503C84.041 105.929 85.4913 103.892 87.7159 103.892C89.9405 103.892 91.2818 105.896 91.2818 108.35ZM85.6876 108.47C85.6876 110.299 86.4182 111.647 87.6723 111.647C88.9263 111.647 89.6351 110.223 89.6351 108.361C89.6351 106.729 88.9809 105.195 87.6723 105.195C86.3637 105.195 85.6876 106.674 85.6876 108.47Z" fill="#2A3647"/>
<path d="M94.0947 104.023V112.874H92.5244V104.023H94.0947Z" fill="#2A3647"/>
<path d="M95.7949 112.874V104.023H97.5397L99.4153 107.671C99.8981 108.625 100.328 109.605 100.702 110.606C100.604 109.511 100.56 108.251 100.56 106.849V104.023H102V112.874H100.375L98.4775 109.15C97.9751 108.171 97.5273 107.166 97.1362 106.137C97.1362 107.233 97.2125 108.47 97.2125 109.993V112.863L95.7949 112.874Z" fill="#2A3647"/>
<path d="M83.9602 833.727V849H82.1705L73.848 837.009H73.6989V849H71.8494V833.727H73.6392L81.9915 845.749H82.1406V833.727H83.9602ZM92.0757 849.239C91.0416 849.239 90.1343 848.993 89.3538 848.5C88.5782 848.008 87.9717 847.32 87.5342 846.435C87.1017 845.55 86.8854 844.516 86.8854 843.332C86.8854 842.139 87.1017 841.098 87.5342 840.208C87.9717 839.318 88.5782 838.627 89.3538 838.135C90.1343 837.642 91.0416 837.396 92.0757 837.396C93.1098 837.396 94.0146 837.642 94.7902 838.135C95.5708 838.627 96.1773 839.318 96.6098 840.208C97.0473 841.098 97.2661 842.139 97.2661 843.332C97.2661 844.516 97.0473 845.55 96.6098 846.435C96.1773 847.32 95.5708 848.008 94.7902 848.5C94.0146 848.993 93.1098 849.239 92.0757 849.239ZM92.0757 847.658C92.8612 847.658 93.5075 847.456 94.0146 847.054C94.5218 846.651 94.8971 846.121 95.1407 845.465C95.3843 844.809 95.5061 844.098 95.5061 843.332C95.5061 842.567 95.3843 841.853 95.1407 841.192C94.8971 840.531 94.5218 839.996 94.0146 839.589C93.5075 839.181 92.8612 838.977 92.0757 838.977C91.2902 838.977 90.6439 839.181 90.1368 839.589C89.6297 839.996 89.2544 840.531 89.0107 841.192C88.7671 841.853 88.6453 842.567 88.6453 843.332C88.6453 844.098 88.7671 844.809 89.0107 845.465C89.2544 846.121 89.6297 846.651 90.1368 847.054C90.6439 847.456 91.2902 847.658 92.0757 847.658ZM104.934 837.545V839.037H98.998V837.545H104.934ZM100.728 834.801H102.488V845.719C102.488 846.216 102.56 846.589 102.704 846.837C102.854 847.081 103.042 847.245 103.271 847.33C103.505 847.409 103.751 847.449 104.009 847.449C104.203 847.449 104.362 847.439 104.487 847.419C104.611 847.394 104.71 847.374 104.785 847.359L105.143 848.94C105.024 848.985 104.857 849.03 104.643 849.075C104.43 849.124 104.159 849.149 103.83 849.149C103.333 849.149 102.846 849.042 102.369 848.828C101.896 848.615 101.504 848.289 101.191 847.852C100.882 847.414 100.728 846.862 100.728 846.196V834.801ZM116.858 849.268C116.133 849.268 115.474 849.132 114.882 848.858C114.291 848.58 113.821 848.18 113.473 847.658C113.125 847.131 112.951 846.494 112.951 845.749C112.951 845.092 113.08 844.56 113.339 844.153C113.597 843.74 113.943 843.417 114.375 843.183C114.808 842.95 115.285 842.776 115.807 842.661C116.334 842.542 116.863 842.447 117.395 842.378C118.091 842.288 118.656 842.221 119.088 842.176C119.526 842.127 119.844 842.045 120.043 841.93C120.247 841.816 120.349 841.617 120.349 841.334V841.274C120.349 840.538 120.147 839.967 119.744 839.559C119.347 839.151 118.743 838.947 117.932 838.947C117.092 838.947 116.433 839.131 115.956 839.499C115.479 839.867 115.143 840.26 114.949 840.678L113.279 840.081C113.577 839.385 113.975 838.843 114.472 838.455C114.974 838.062 115.521 837.789 116.113 837.635C116.709 837.476 117.296 837.396 117.873 837.396C118.241 837.396 118.663 837.441 119.14 837.531C119.623 837.615 120.088 837.792 120.535 838.06C120.987 838.328 121.363 838.734 121.661 839.276C121.959 839.817 122.108 840.543 122.108 841.453V849H120.349V847.449H120.259C120.14 847.697 119.941 847.963 119.662 848.247C119.384 848.53 119.014 848.771 118.551 848.97C118.089 849.169 117.525 849.268 116.858 849.268ZM117.127 847.688C117.823 847.688 118.41 847.551 118.887 847.277C119.369 847.004 119.732 846.651 119.976 846.218C120.224 845.786 120.349 845.331 120.349 844.854V843.243C120.274 843.332 120.11 843.414 119.856 843.489C119.608 843.559 119.319 843.621 118.991 843.675C118.668 843.725 118.352 843.77 118.044 843.81C117.741 843.844 117.495 843.874 117.306 843.899C116.849 843.959 116.421 844.056 116.023 844.19C115.631 844.319 115.312 844.516 115.069 844.779C114.83 845.038 114.711 845.391 114.711 845.838C114.711 846.45 114.937 846.912 115.389 847.225C115.847 847.533 116.426 847.688 117.127 847.688ZM137.312 833.727H139.162V844.645C139.162 845.619 138.983 846.447 138.625 847.128C138.267 847.809 137.762 848.326 137.111 848.679C136.46 849.032 135.691 849.209 134.807 849.209C133.971 849.209 133.228 849.057 132.577 848.754C131.926 848.446 131.413 848.008 131.041 847.441C130.668 846.875 130.481 846.201 130.481 845.42H132.301C132.301 845.853 132.408 846.231 132.622 846.554C132.84 846.872 133.139 847.121 133.516 847.3C133.894 847.479 134.324 847.568 134.807 847.568C135.339 847.568 135.791 847.456 136.164 847.233C136.537 847.009 136.82 846.681 137.014 846.248C137.213 845.811 137.312 845.276 137.312 844.645V833.727ZM147.283 849.239C146.249 849.239 145.341 848.993 144.561 848.5C143.785 848.008 143.179 847.32 142.741 846.435C142.309 845.55 142.092 844.516 142.092 843.332C142.092 842.139 142.309 841.098 142.741 840.208C143.179 839.318 143.785 838.627 144.561 838.135C145.341 837.642 146.249 837.396 147.283 837.396C148.317 837.396 149.222 837.642 149.997 838.135C150.778 838.627 151.384 839.318 151.817 840.208C152.254 841.098 152.473 842.139 152.473 843.332C152.473 844.516 152.254 845.55 151.817 846.435C151.384 847.32 150.778 848.008 149.997 848.5C149.222 848.993 148.317 849.239 147.283 849.239ZM147.283 847.658C148.068 847.658 148.715 847.456 149.222 847.054C149.729 846.651 150.104 846.121 150.348 845.465C150.591 844.809 150.713 844.098 150.713 843.332C150.713 842.567 150.591 841.853 150.348 841.192C150.104 840.531 149.729 839.996 149.222 839.589C148.715 839.181 148.068 838.977 147.283 838.977C146.497 838.977 145.851 839.181 145.344 839.589C144.837 839.996 144.461 840.531 144.218 841.192C143.974 841.853 143.852 842.567 143.852 843.332C143.852 844.098 143.974 844.809 144.218 845.465C144.461 846.121 144.837 846.651 145.344 847.054C145.851 847.456 146.497 847.658 147.283 847.658ZM155.16 849V837.545H156.92V849H155.16ZM156.055 835.636C155.711 835.636 155.416 835.52 155.167 835.286C154.923 835.052 154.802 834.771 154.802 834.443C154.802 834.115 154.923 833.834 155.167 833.6C155.416 833.367 155.711 833.25 156.055 833.25C156.398 833.25 156.691 833.367 156.934 833.6C157.183 833.834 157.307 834.115 157.307 834.443C157.307 834.771 157.183 835.052 156.934 835.286C156.691 835.52 156.398 835.636 156.055 835.636ZM161.903 842.109V849H160.143V837.545H161.843V839.335H161.992C162.261 838.754 162.669 838.286 163.215 837.933C163.762 837.575 164.468 837.396 165.333 837.396C166.109 837.396 166.788 837.555 167.369 837.874C167.951 838.187 168.403 838.664 168.726 839.305C169.05 839.942 169.211 840.747 169.211 841.722V849H167.451V841.841C167.451 840.941 167.218 840.24 166.75 839.738C166.283 839.231 165.642 838.977 164.826 838.977C164.264 838.977 163.762 839.099 163.32 839.343C162.882 839.586 162.537 839.942 162.283 840.409C162.03 840.876 161.903 841.443 161.903 842.109ZM185.552 844.317V837.545H187.312V849H185.552V847.061H185.433C185.164 847.643 184.747 848.137 184.18 848.545C183.613 848.948 182.897 849.149 182.032 849.149C181.316 849.149 180.68 848.993 180.123 848.679C179.566 848.361 179.129 847.884 178.811 847.248C178.493 846.606 178.333 845.798 178.333 844.824V837.545H180.093V844.705C180.093 845.54 180.327 846.206 180.794 846.703C181.267 847.2 181.868 847.449 182.599 847.449C183.037 847.449 183.482 847.337 183.934 847.113C184.391 846.89 184.774 846.547 185.082 846.084C185.396 845.622 185.552 845.033 185.552 844.317ZM198.649 840.111L197.068 840.558C196.969 840.295 196.822 840.039 196.628 839.79C196.439 839.537 196.181 839.328 195.853 839.164C195.525 839 195.104 838.918 194.592 838.918C193.891 838.918 193.307 839.079 192.84 839.402C192.378 839.721 192.146 840.126 192.146 840.618C192.146 841.055 192.305 841.401 192.624 841.654C192.942 841.908 193.439 842.119 194.115 842.288L195.815 842.706C196.84 842.955 197.603 843.335 198.105 843.847C198.607 844.354 198.858 845.008 198.858 845.808C198.858 846.464 198.669 847.051 198.291 847.568C197.918 848.085 197.396 848.493 196.725 848.791C196.054 849.089 195.274 849.239 194.384 849.239C193.215 849.239 192.248 848.985 191.483 848.478C190.717 847.971 190.232 847.23 190.028 846.256L191.699 845.838C191.858 846.455 192.159 846.917 192.601 847.225C193.049 847.533 193.633 847.688 194.354 847.688C195.174 847.688 195.825 847.513 196.308 847.165C196.795 846.812 197.038 846.39 197.038 845.898C197.038 845.5 196.899 845.167 196.621 844.898C196.342 844.625 195.915 844.421 195.338 844.287L193.429 843.839C192.38 843.591 191.609 843.206 191.117 842.684C190.63 842.157 190.386 841.498 190.386 840.707C190.386 840.061 190.568 839.489 190.931 838.992C191.299 838.495 191.798 838.105 192.43 837.821C193.066 837.538 193.787 837.396 194.592 837.396C195.726 837.396 196.616 837.645 197.262 838.142C197.913 838.639 198.376 839.295 198.649 840.111ZM206.31 849.239C205.206 849.239 204.254 848.995 203.454 848.508C202.658 848.016 202.044 847.33 201.612 846.45C201.184 845.565 200.97 844.536 200.97 843.362C200.97 842.189 201.184 841.155 201.612 840.26C202.044 839.36 202.646 838.659 203.416 838.157C204.192 837.65 205.097 837.396 206.131 837.396C206.727 837.396 207.317 837.496 207.898 837.695C208.48 837.893 209.009 838.217 209.487 838.664C209.964 839.107 210.344 839.693 210.628 840.424C210.911 841.155 211.053 842.055 211.053 843.124V843.869H202.223V842.348H209.263C209.263 841.702 209.134 841.125 208.875 840.618C208.622 840.111 208.259 839.711 207.786 839.417C207.319 839.124 206.767 838.977 206.131 838.977C205.43 838.977 204.823 839.151 204.311 839.499C203.804 839.842 203.414 840.29 203.14 840.842C202.867 841.393 202.73 841.985 202.73 842.616V843.631C202.73 844.496 202.879 845.229 203.178 845.831C203.481 846.427 203.901 846.882 204.438 847.195C204.975 847.504 205.599 847.658 206.31 847.658C206.772 847.658 207.19 847.593 207.563 847.464C207.941 847.33 208.266 847.131 208.54 846.867C208.813 846.599 209.024 846.266 209.173 845.868L210.874 846.345C210.695 846.922 210.394 847.429 209.971 847.866C209.549 848.299 209.027 848.637 208.405 848.881C207.784 849.119 207.085 849.239 206.31 849.239ZM213.73 849V837.545H215.43V839.276H215.55C215.758 838.709 216.136 838.249 216.683 837.896C217.23 837.543 217.846 837.366 218.532 837.366C218.662 837.366 218.823 837.369 219.017 837.374C219.211 837.379 219.358 837.386 219.457 837.396V839.186C219.398 839.171 219.261 839.149 219.047 839.119C218.838 839.084 218.617 839.067 218.383 839.067C217.827 839.067 217.329 839.184 216.892 839.417C216.459 839.646 216.116 839.964 215.863 840.372C215.614 840.775 215.49 841.234 215.49 841.751V849H213.73ZM223.84 844.705V844.615C223.85 843.665 223.95 842.91 224.139 842.348C224.328 841.786 224.596 841.331 224.944 840.983C225.292 840.635 225.71 840.315 226.197 840.021C226.49 839.842 226.754 839.631 226.987 839.387C227.221 839.139 227.405 838.853 227.539 838.53C227.678 838.207 227.748 837.849 227.748 837.456C227.748 836.969 227.634 836.546 227.405 836.188C227.176 835.83 226.87 835.554 226.488 835.36C226.105 835.167 225.68 835.07 225.212 835.07C224.805 835.07 224.412 835.154 224.034 835.323C223.656 835.492 223.341 835.758 223.087 836.121C222.834 836.484 222.687 836.959 222.647 837.545H220.768C220.808 836.7 221.026 835.977 221.424 835.375C221.827 834.774 222.356 834.314 223.013 833.996C223.674 833.678 224.407 833.518 225.212 833.518C226.087 833.518 226.848 833.692 227.494 834.04C228.146 834.388 228.648 834.866 229.001 835.472C229.359 836.079 229.538 836.77 229.538 837.545C229.538 838.092 229.453 838.587 229.284 839.029C229.12 839.472 228.881 839.867 228.568 840.215C228.26 840.563 227.887 840.871 227.45 841.14C227.012 841.413 226.662 841.702 226.398 842.005C226.135 842.303 225.943 842.659 225.824 843.071C225.705 843.484 225.64 843.999 225.63 844.615V844.705H223.84ZM224.795 849.119C224.427 849.119 224.111 848.988 223.848 848.724C223.584 848.461 223.453 848.145 223.453 847.777C223.453 847.409 223.584 847.093 223.848 846.83C224.111 846.566 224.427 846.435 224.795 846.435C225.163 846.435 225.478 846.566 225.742 846.83C226.005 847.093 226.137 847.409 226.137 847.777C226.137 848.021 226.075 848.244 225.951 848.448C225.831 848.652 225.67 848.816 225.466 848.94C225.267 849.06 225.043 849.119 224.795 849.119Z" fill="black"/>
<rect x="266" y="816" width="91" height="51" rx="8" fill="#2A3647"/>
<path d="M289.324 838.71C289.278 838.252 289.083 837.896 288.739 837.642C288.394 837.388 287.926 837.261 287.335 837.261C286.934 837.261 286.595 837.318 286.318 837.432C286.042 837.542 285.83 837.695 285.682 837.892C285.538 838.089 285.466 838.312 285.466 838.562C285.458 838.771 285.502 838.953 285.597 839.108C285.695 839.263 285.83 839.398 286 839.511C286.17 839.621 286.367 839.718 286.591 839.801C286.814 839.881 287.053 839.949 287.307 840.006L288.352 840.256C288.86 840.369 289.326 840.521 289.75 840.71C290.174 840.9 290.542 841.133 290.852 841.409C291.163 841.686 291.403 842.011 291.574 842.386C291.748 842.761 291.837 843.191 291.841 843.676C291.837 844.388 291.655 845.006 291.295 845.528C290.939 846.047 290.424 846.451 289.75 846.739C289.08 847.023 288.271 847.165 287.324 847.165C286.384 847.165 285.566 847.021 284.869 846.733C284.176 846.445 283.634 846.019 283.244 845.455C282.858 844.886 282.655 844.184 282.636 843.347H285.017C285.044 843.737 285.155 844.062 285.352 844.324C285.553 844.581 285.82 844.777 286.153 844.909C286.491 845.038 286.871 845.102 287.295 845.102C287.712 845.102 288.074 845.042 288.381 844.92C288.691 844.799 288.932 844.631 289.102 844.415C289.273 844.199 289.358 843.951 289.358 843.67C289.358 843.409 289.28 843.189 289.125 843.011C288.973 842.833 288.75 842.682 288.455 842.557C288.163 842.432 287.805 842.318 287.381 842.216L286.114 841.898C285.133 841.659 284.358 841.286 283.79 840.778C283.222 840.271 282.939 839.587 282.943 838.727C282.939 838.023 283.127 837.407 283.506 836.881C283.888 836.354 284.413 835.943 285.08 835.648C285.746 835.352 286.504 835.205 287.352 835.205C288.216 835.205 288.97 835.352 289.614 835.648C290.261 835.943 290.765 836.354 291.125 836.881C291.485 837.407 291.67 838.017 291.682 838.71H289.324ZM293.45 847V838.273H295.871V847H293.45ZM294.666 837.148C294.306 837.148 293.998 837.028 293.74 836.79C293.486 836.547 293.359 836.258 293.359 835.92C293.359 835.587 293.486 835.301 293.74 835.062C293.998 834.82 294.306 834.699 294.666 834.699C295.026 834.699 295.333 834.82 295.587 835.062C295.844 835.301 295.973 835.587 295.973 835.92C295.973 836.258 295.844 836.547 295.587 836.79C295.333 837.028 295.026 837.148 294.666 837.148ZM301.741 850.455C300.957 850.455 300.285 850.347 299.724 850.131C299.168 849.919 298.724 849.629 298.395 849.261C298.065 848.894 297.851 848.481 297.753 848.023L299.991 847.722C300.06 847.896 300.168 848.059 300.315 848.21C300.463 848.362 300.658 848.483 300.901 848.574C301.147 848.669 301.446 848.716 301.798 848.716C302.325 848.716 302.759 848.587 303.099 848.33C303.444 848.076 303.616 847.65 303.616 847.051V845.455H303.514C303.408 845.697 303.249 845.926 303.037 846.142C302.825 846.358 302.552 846.534 302.219 846.67C301.885 846.807 301.488 846.875 301.026 846.875C300.37 846.875 299.774 846.723 299.236 846.42C298.702 846.114 298.276 845.646 297.957 845.017C297.643 844.384 297.486 843.585 297.486 842.619C297.486 841.631 297.647 840.805 297.969 840.142C298.291 839.479 298.719 838.983 299.253 838.653C299.791 838.324 300.38 838.159 301.02 838.159C301.509 838.159 301.918 838.242 302.247 838.409C302.577 838.572 302.842 838.777 303.043 839.023C303.247 839.265 303.404 839.504 303.514 839.739H303.605V838.273H306.009V847.085C306.009 847.828 305.827 848.449 305.463 848.949C305.099 849.449 304.596 849.824 303.952 850.074C303.312 850.328 302.575 850.455 301.741 850.455ZM301.793 845.057C302.183 845.057 302.512 844.96 302.781 844.767C303.054 844.57 303.262 844.29 303.406 843.926C303.554 843.559 303.628 843.119 303.628 842.608C303.628 842.097 303.556 841.653 303.412 841.278C303.268 840.9 303.06 840.606 302.787 840.398C302.514 840.189 302.183 840.085 301.793 840.085C301.395 840.085 301.06 840.193 300.787 840.409C300.514 840.621 300.308 840.917 300.168 841.295C300.027 841.674 299.957 842.112 299.957 842.608C299.957 843.112 300.027 843.547 300.168 843.915C300.312 844.278 300.518 844.561 300.787 844.761C301.06 844.958 301.395 845.057 301.793 845.057ZM310.355 841.955V847H307.935V838.273H310.241V839.812H310.344C310.537 839.305 310.861 838.903 311.315 838.608C311.77 838.309 312.321 838.159 312.969 838.159C313.575 838.159 314.103 838.292 314.554 838.557C315.005 838.822 315.355 839.201 315.605 839.693C315.855 840.182 315.98 840.765 315.98 841.443V847H313.56V841.875C313.563 841.341 313.427 840.924 313.151 840.625C312.874 840.322 312.493 840.17 312.009 840.17C311.683 840.17 311.395 840.241 311.145 840.381C310.899 840.521 310.705 840.725 310.565 840.994C310.429 841.259 310.359 841.58 310.355 841.955ZM327.188 843.284V838.273H329.608V847H327.284V845.415H327.193C326.996 845.926 326.669 846.337 326.21 846.648C325.756 846.958 325.201 847.114 324.545 847.114C323.962 847.114 323.449 846.981 323.006 846.716C322.563 846.451 322.216 846.074 321.966 845.585C321.72 845.097 321.595 844.511 321.591 843.83V838.273H324.011V843.398C324.015 843.913 324.153 844.32 324.426 844.619C324.699 844.919 325.064 845.068 325.523 845.068C325.814 845.068 326.087 845.002 326.341 844.869C326.595 844.733 326.799 844.532 326.955 844.267C327.114 844.002 327.191 843.674 327.188 843.284ZM331.544 850.273V838.273H333.93V839.739H334.038C334.144 839.504 334.298 839.265 334.499 839.023C334.703 838.777 334.968 838.572 335.294 838.409C335.624 838.242 336.033 838.159 336.521 838.159C337.158 838.159 337.745 838.326 338.283 838.659C338.821 838.989 339.25 839.487 339.572 840.153C339.894 840.816 340.055 841.648 340.055 842.648C340.055 843.621 339.898 844.443 339.584 845.114C339.273 845.78 338.849 846.286 338.311 846.631C337.777 846.972 337.179 847.142 336.516 847.142C336.046 847.142 335.646 847.064 335.317 846.909C334.991 846.754 334.724 846.559 334.516 846.324C334.307 846.085 334.148 845.845 334.038 845.602H333.964V850.273H331.544ZM333.913 842.636C333.913 843.155 333.985 843.608 334.129 843.994C334.273 844.381 334.482 844.682 334.754 844.898C335.027 845.11 335.358 845.216 335.749 845.216C336.143 845.216 336.476 845.108 336.749 844.892C337.021 844.672 337.228 844.369 337.368 843.983C337.512 843.593 337.584 843.144 337.584 842.636C337.584 842.133 337.514 841.689 337.374 841.307C337.233 840.924 337.027 840.625 336.754 840.409C336.482 840.193 336.146 840.085 335.749 840.085C335.355 840.085 335.021 840.189 334.749 840.398C334.48 840.606 334.273 840.902 334.129 841.284C333.985 841.667 333.913 842.117 333.913 842.636Z" fill="white"/>
<defs>
<filter id="filter0_d_332_1638" x="11" y="177" width="406" height="607" filterUnits="userSpaceOnUse" color-interpolation-filters="sRGB">
<feFlood flood-opacity="0" result="BackgroundImageFix"/>
<feColorMatrix in="SourceAlpha" type="matrix" values="0 0 0 0 0 0 0 0 0 0 0 0 0 0 0 0 0 0 127 0" result="hardAlpha"/>
<feMorphology radius="3" operator="dilate" in="SourceAlpha" result="effect1_dropShadow_332_1638"/>
<feOffset/>
<feGaussianBlur stdDeviation="7"/>
<feComposite in2="hardAlpha" operator="out"/>
<feColorMatrix type="matrix" values="0 0 0 0 0 0 0 0 0 0 0 0 0 0 0 0 0 0 0.04 0"/>
<feBlend mode="normal" in2="BackgroundImageFix" result="effect1_dropShadow_332_1638"/>
<feBlend mode="normal" in="SourceGraphic" in2="effect1_dropShadow_332_1638" result="shape"/>
</filter>
<linearGradient id="paint0_linear_332_1638" x1="58.5" y1="556.5" x2="58.5" y2="572.5" gradientUnits="userSpaceOnUse">
<stop stop-color="#F9F9F9"/>
<stop offset="1" stop-color="#F0F0F0"/>
</linearGradient>
</defs>
</svg>
