<svg width="119" height="49" viewBox="0 0 119 49" fill="none" xmlns="http://www.w3.org/2000/svg">
<g filter="url(#filter0_d_371_3711)">
<rect x="4" y="4" width="111" height="41" rx="10" fill="white"/>
<path d="M29.9091 30V18.3636H31.3182V28.75H36.7273V30H29.9091ZM42.2727 30.1818C41.4848 30.1818 40.7936 29.9943 40.1989 29.6193C39.608 29.2443 39.1458 28.7197 38.8125 28.0455C38.483 27.3712 38.3182 26.5833 38.3182 25.6818C38.3182 24.7727 38.483 23.9792 38.8125 23.3011C39.1458 22.6231 39.608 22.0966 40.1989 21.7216C40.7936 21.3466 41.4848 21.1591 42.2727 21.1591C43.0606 21.1591 43.75 21.3466 44.3409 21.7216C44.9356 22.0966 45.3977 22.6231 45.7273 23.3011C46.0606 23.9792 46.2273 24.7727 46.2273 25.6818C46.2273 26.5833 46.0606 27.3712 45.7273 28.0455C45.3977 28.7197 44.9356 29.2443 44.3409 29.6193C43.75 29.9943 43.0606 30.1818 42.2727 30.1818ZM42.2727 28.9773C42.8712 28.9773 43.3636 28.8239 43.75 28.517C44.1364 28.2102 44.4223 27.8068 44.608 27.3068C44.7936 26.8068 44.8864 26.2652 44.8864 25.6818C44.8864 25.0985 44.7936 24.5549 44.608 24.0511C44.4223 23.5473 44.1364 23.1402 43.75 22.8295C43.3636 22.5189 42.8712 22.3636 42.2727 22.3636C41.6742 22.3636 41.1818 22.5189 40.7955 22.8295C40.4091 23.1402 40.1231 23.5473 39.9375 24.0511C39.7519 24.5549 39.6591 25.0985 39.6591 25.6818C39.6591 26.2652 39.7519 26.8068 39.9375 27.3068C40.1231 27.8068 40.4091 28.2102 40.7955 28.517C41.1818 28.8239 41.6742 28.9773 42.2727 28.9773ZM49.9545 30L47.2955 21.2727H48.7045L50.5909 27.9545H50.6818L52.5455 21.2727H53.9773L55.8182 27.9318H55.9091L57.7955 21.2727H59.2045L56.5455 30H55.2273L53.3182 23.2955H53.1818L51.2727 30H49.9545Z" fill="black"/>
<path d="M80.5 26.0061C80.2654 26.0065 80.0369 25.9317 79.848 25.7926L70.9449 19.2229C70.8291 19.1373 70.7312 19.0298 70.657 18.9065C70.5827 18.7831 70.5335 18.6464 70.5121 18.504C70.469 18.2166 70.5419 17.9237 70.7148 17.6899C70.8877 17.4562 71.1465 17.3006 71.4342 17.2575C71.7219 17.2144 72.0149 17.2872 72.2489 17.46L80.5 23.5425L88.7511 17.46C88.867 17.3744 88.9985 17.3125 89.1383 17.2778C89.2781 17.243 89.4234 17.2361 89.5658 17.2575C89.7083 17.2788 89.8451 17.328 89.9685 17.4022C90.092 17.4764 90.1996 17.5742 90.2852 17.6899C90.3708 17.8057 90.4328 17.9372 90.4676 18.0768C90.5023 18.2165 90.5092 18.3617 90.4879 18.504C90.4665 18.6464 90.4173 18.7831 90.343 18.9065C90.2688 19.0298 90.1709 19.1373 90.0551 19.2229L81.152 25.7926C80.9631 25.9317 80.7346 26.0065 80.5 26.0061Z" fill="#7AE229"/>
<path d="M80.5 31.7547C80.2654 31.7551 80.0369 31.6802 79.848 31.5412L70.9449 24.9714C70.711 24.7986 70.5553 24.5401 70.5121 24.2526C70.469 23.9651 70.5419 23.6723 70.7148 23.4385C70.8877 23.2047 71.1465 23.0491 71.4342 23.006C71.7219 22.9629 72.0149 23.0358 72.2489 23.2085L80.5 29.291L88.7511 23.2085C88.9851 23.0358 89.2781 22.9629 89.5658 23.006C89.8535 23.0491 90.1123 23.2047 90.2852 23.4385C90.4581 23.6723 90.531 23.9651 90.4879 24.2526C90.4447 24.5401 90.289 24.7986 90.0551 24.9714L81.152 31.5412C80.9631 31.6802 80.7346 31.7551 80.5 31.7547Z" fill="#7AE229"/>
</g>
<defs>
<filter id="filter0_d_371_3711" x="0" y="0" width="119" height="49" filterUnits="userSpaceOnUse" color-interpolation-filters="sRGB">
<feFlood flood-opacity="0" result="BackgroundImageFix"/>
<feColorMatrix in="SourceAlpha" type="matrix" values="0 0 0 0 0 0 0 0 0 0 0 0 0 0 0 0 0 0 127 0" result="hardAlpha"/>
<feOffset/>
<feGaussianBlur stdDeviation="2"/>
<feColorMatrix type="matrix" values="0 0 0 0 0 0 0 0 0 0 0 0 0 0 0 0 0 0 0.1 0"/>
<feBlend mode="normal" in2="BackgroundImageFix" result="effect1_dropShadow_371_3711"/>
<feBlend mode="normal" in="SourceGraphic" in2="effect1_dropShadow_371_3711" result="shape"/>
</filter>
</defs>
</svg>
