<svg width="119" height="49" viewBox="0 0 119 49" fill="none" xmlns="http://www.w3.org/2000/svg">
<g filter="url(#filter0_d_371_3843)">
<rect x="4" width="111" height="41" rx="10" fill="#7AE229"/>
<path d="M29.0114 26V14.3636H31.4716V23.9716H36.4602V26H29.0114ZM41.9872 26.1705C41.1046 26.1705 40.3414 25.983 39.6974 25.608C39.0573 25.2292 38.563 24.7027 38.2145 24.0284C37.866 23.3504 37.6918 22.5644 37.6918 21.6705C37.6918 20.7689 37.866 19.9811 38.2145 19.3068C38.563 18.6288 39.0573 18.1023 39.6974 17.7273C40.3414 17.3485 41.1046 17.1591 41.9872 17.1591C42.8698 17.1591 43.6312 17.3485 44.2713 17.7273C44.9152 18.1023 45.4115 18.6288 45.7599 19.3068C46.1084 19.9811 46.2827 20.7689 46.2827 21.6705C46.2827 22.5644 46.1084 23.3504 45.7599 24.0284C45.4115 24.7027 44.9152 25.2292 44.2713 25.608C43.6312 25.983 42.8698 26.1705 41.9872 26.1705ZM41.9986 24.2955C42.4001 24.2955 42.7353 24.1818 43.0043 23.9545C43.2732 23.7235 43.4759 23.4091 43.6122 23.0114C43.7524 22.6136 43.8224 22.161 43.8224 21.6534C43.8224 21.1458 43.7524 20.6932 43.6122 20.2955C43.4759 19.8977 43.2732 19.5833 43.0043 19.3523C42.7353 19.1212 42.4001 19.0057 41.9986 19.0057C41.5933 19.0057 41.2524 19.1212 40.9759 19.3523C40.7031 19.5833 40.4967 19.8977 40.3565 20.2955C40.2202 20.6932 40.152 21.1458 40.152 21.6534C40.152 22.161 40.2202 22.6136 40.3565 23.0114C40.4967 23.4091 40.7031 23.7235 40.9759 23.9545C41.2524 24.1818 41.5933 24.2955 41.9986 24.2955ZM49.3594 26L46.9844 17.2727H49.4332L50.7855 23.1364H50.8651L52.2741 17.2727H54.6776L56.1094 23.1023H56.1832L57.5128 17.2727H59.956L57.5866 26H55.0241L53.5241 20.5114H53.4162L51.9162 26H49.3594Z" fill="white"/>
<path d="M81 22.0061C80.7654 22.0065 80.5369 21.9317 80.348 21.7926L71.4449 15.2229C71.3291 15.1373 71.2312 15.0298 71.157 14.9065C71.0827 14.7831 71.0335 14.6464 71.0121 14.504C70.969 14.2166 71.0419 13.9237 71.2148 13.6899C71.3877 13.4562 71.6465 13.3006 71.9342 13.2575C72.2219 13.2144 72.5149 13.2872 72.7489 13.46L81 19.5425L89.2511 13.46C89.367 13.3744 89.4985 13.3125 89.6383 13.2778C89.7781 13.243 89.9234 13.2361 90.0658 13.2575C90.2083 13.2788 90.3451 13.328 90.4685 13.4022C90.592 13.4764 90.6996 13.5742 90.7852 13.6899C90.8708 13.8057 90.9328 13.9372 90.9676 14.0768C91.0023 14.2165 91.0092 14.3617 90.9879 14.504C90.9665 14.6464 90.9173 14.7831 90.843 14.9065C90.7688 15.0298 90.6709 15.1373 90.5551 15.2229L81.652 21.7926C81.4631 21.9317 81.2346 22.0065 81 22.0061Z" fill="white"/>
<path d="M81 27.7547C80.7654 27.7551 80.5369 27.6802 80.348 27.5412L71.4449 20.9714C71.211 20.7986 71.0553 20.5401 71.0121 20.2526C70.969 19.9651 71.0419 19.6723 71.2148 19.4385C71.3877 19.2047 71.6465 19.0491 71.9342 19.006C72.2219 18.9629 72.5149 19.0358 72.7489 19.2085L81 25.291L89.2511 19.2085C89.4851 19.0358 89.7781 18.9629 90.0658 19.006C90.3535 19.0491 90.6123 19.2047 90.7852 19.4385C90.9581 19.6723 91.031 19.9651 90.9879 20.2526C90.9447 20.5401 90.789 20.7986 90.5551 20.9714L81.652 27.5412C81.4631 27.6802 81.2346 27.7551 81 27.7547Z" fill="white"/>
</g>
<defs>
<filter id="filter0_d_371_3843" x="0" y="0" width="119" height="49" filterUnits="userSpaceOnUse" color-interpolation-filters="sRGB">
<feFlood flood-opacity="0" result="BackgroundImageFix"/>
<feColorMatrix in="SourceAlpha" type="matrix" values="0 0 0 0 0 0 0 0 0 0 0 0 0 0 0 0 0 0 127 0" result="hardAlpha"/>
<feOffset dy="4"/>
<feGaussianBlur stdDeviation="2"/>
<feComposite in2="hardAlpha" operator="out"/>
<feColorMatrix type="matrix" values="0 0 0 0 0 0 0 0 0 0 0 0 0 0 0 0 0 0 0.25 0"/>
<feBlend mode="normal" in2="BackgroundImageFix" result="effect1_dropShadow_371_3843"/>
<feBlend mode="normal" in="SourceGraphic" in2="effect1_dropShadow_371_3843" result="shape"/>
</filter>
</defs>
</svg>
