<svg width="119" height="49" viewBox="0 0 119 49" fill="none" xmlns="http://www.w3.org/2000/svg">
<g filter="url(#filter0_d_371_3704)">
<rect x="4" y="4" width="111" height="41" rx="10" fill="white"/>
<path d="M15.4091 18.3636H17.0909L21.0455 28.0227H21.1818L25.1364 18.3636H26.8182V30H25.5V21.1591H25.3864L21.75 30H20.4773L16.8409 21.1591H16.7273V30H15.4091V18.3636ZM33.1207 30.1818C32.2798 30.1818 31.5545 29.9962 30.9446 29.625C30.3385 29.25 29.8707 28.7273 29.5412 28.0568C29.2154 27.3826 29.0526 26.5985 29.0526 25.7045C29.0526 24.8106 29.2154 24.0227 29.5412 23.3409C29.8707 22.6553 30.3291 22.1212 30.9162 21.7386C31.5071 21.3523 32.1965 21.1591 32.9844 21.1591C33.4389 21.1591 33.8878 21.2348 34.331 21.3864C34.7741 21.5379 35.1776 21.7841 35.5412 22.125C35.9048 22.4621 36.1946 22.9091 36.4105 23.4659C36.6264 24.0227 36.7344 24.7083 36.7344 25.5227V26.0909H30.0071V24.9318H35.3707C35.3707 24.4394 35.2723 24 35.0753 23.6136C34.8821 23.2273 34.6056 22.9223 34.2457 22.6989C33.8897 22.4754 33.4692 22.3636 32.9844 22.3636C32.4503 22.3636 31.9882 22.4962 31.598 22.7614C31.2116 23.0227 30.9143 23.3636 30.706 23.7841C30.4976 24.2045 30.3935 24.6553 30.3935 25.1364V25.9091C30.3935 26.5682 30.5071 27.1269 30.7344 27.5852C30.9654 28.0398 31.2855 28.3864 31.6946 28.625C32.1037 28.8598 32.5791 28.9773 33.1207 28.9773C33.473 28.9773 33.7912 28.928 34.0753 28.8295C34.3632 28.7273 34.6113 28.5758 34.8196 28.375C35.0279 28.1705 35.1889 27.9167 35.3026 27.6136L36.598 27.9773C36.4616 28.4167 36.2325 28.803 35.9105 29.1364C35.5885 29.4659 35.1908 29.7235 34.7173 29.9091C34.2438 30.0909 33.7116 30.1818 33.1207 30.1818ZM42.0696 30.1818C41.3423 30.1818 40.7003 29.9981 40.1435 29.6307C39.5866 29.2595 39.151 28.7367 38.8366 28.0625C38.5223 27.3845 38.3651 26.5833 38.3651 25.6591C38.3651 24.7424 38.5223 23.947 38.8366 23.2727C39.151 22.5985 39.5885 22.0777 40.1491 21.7102C40.7098 21.3428 41.3575 21.1591 42.0923 21.1591C42.6605 21.1591 43.1094 21.2538 43.4389 21.4432C43.7723 21.6288 44.026 21.8409 44.2003 22.0795C44.3783 22.3144 44.5166 22.5076 44.6151 22.6591H44.7287V18.3636H46.0696V30H44.7741V28.6591H44.6151C44.5166 28.8182 44.3764 29.0189 44.1946 29.2614C44.0128 29.5 43.7533 29.714 43.4162 29.9034C43.0791 30.089 42.6302 30.1818 42.0696 30.1818ZM42.2514 28.9773C42.7893 28.9773 43.2438 28.8371 43.6151 28.5568C43.9863 28.2727 44.2685 27.8807 44.4616 27.3807C44.6548 26.8769 44.7514 26.2955 44.7514 25.6364C44.7514 24.9848 44.6567 24.4148 44.4673 23.9261C44.2779 23.4337 43.9976 23.0511 43.6264 22.7784C43.2552 22.5019 42.7969 22.3636 42.2514 22.3636C41.6832 22.3636 41.2098 22.5095 40.831 22.8011C40.456 23.089 40.1738 23.4811 39.9844 23.9773C39.7988 24.4697 39.706 25.0227 39.706 25.6364C39.706 26.2576 39.8007 26.822 39.9901 27.3295C40.1832 27.8333 40.4673 28.2348 40.8423 28.5341C41.2211 28.8295 41.6908 28.9773 42.2514 28.9773ZM48.7116 30V21.2727H50.0526V30H48.7116ZM49.3935 19.8182C49.1321 19.8182 48.9067 19.7292 48.7173 19.5511C48.5317 19.3731 48.4389 19.1591 48.4389 18.9091C48.4389 18.6591 48.5317 18.4451 48.7173 18.267C48.9067 18.089 49.1321 18 49.3935 18C49.6548 18 49.8783 18.089 50.0639 18.267C50.2533 18.4451 50.348 18.6591 50.348 18.9091C50.348 19.1591 50.2533 19.3731 50.0639 19.5511C49.8783 19.7292 49.6548 19.8182 49.3935 19.8182ZM58.0085 26.4318V21.2727H59.3494V30H58.0085V28.5227H57.9176C57.7131 28.9659 57.3949 29.3428 56.9631 29.6534C56.5313 29.9602 55.9858 30.1136 55.3267 30.1136C54.7812 30.1136 54.2964 29.9943 53.8722 29.7557C53.4479 29.5133 53.1146 29.1496 52.8722 28.6648C52.6297 28.1761 52.5085 27.5606 52.5085 26.8182V21.2727H53.8494V26.7273C53.8494 27.3636 54.0275 27.8712 54.3835 28.25C54.7434 28.6288 55.2017 28.8182 55.7585 28.8182C56.0919 28.8182 56.4309 28.733 56.7756 28.5625C57.1241 28.392 57.4157 28.1307 57.6506 27.7784C57.8892 27.4261 58.0085 26.9773 58.0085 26.4318ZM61.8054 30V21.2727H63.1009V22.6364H63.2145C63.3963 22.1705 63.6899 21.8087 64.0952 21.5511C64.5005 21.2898 64.9872 21.1591 65.5554 21.1591C66.1312 21.1591 66.6103 21.2898 66.9929 21.5511C67.3793 21.8087 67.6804 22.1705 67.8963 22.6364H67.9872C68.2107 22.1856 68.5459 21.8277 68.9929 21.5625C69.4399 21.2936 69.9759 21.1591 70.6009 21.1591C71.3812 21.1591 72.0194 21.4034 72.5156 21.892C73.0118 22.3769 73.2599 23.1326 73.2599 24.1591V30H71.919V24.1591C71.919 23.5152 71.7429 23.0549 71.3906 22.7784C71.0384 22.5019 70.6236 22.3636 70.1463 22.3636C69.5327 22.3636 69.0573 22.5492 68.7202 22.9205C68.383 23.2879 68.2145 23.7538 68.2145 24.3182V30H66.8509V24.0227C66.8509 23.5265 66.6899 23.1269 66.3679 22.8239C66.0459 22.517 65.6312 22.3636 65.1236 22.3636C64.7751 22.3636 64.4493 22.4564 64.1463 22.642C63.8471 22.8277 63.6046 23.0852 63.419 23.4148C63.2372 23.7405 63.1463 24.1174 63.1463 24.5455V30H61.8054Z" fill="black"/>
<g clip-path="url(#clip0_371_3704)">
<path d="M103.904 28.2255H86.0959C85.8052 28.2255 85.5265 28.1092 85.321 27.9022C85.1155 27.6952 85 27.4144 85 27.1217C85 26.8289 85.1155 26.5481 85.321 26.3411C85.5265 26.1341 85.8052 26.0178 86.0959 26.0178H103.904C104.195 26.0178 104.474 26.1341 104.679 26.3411C104.885 26.5481 105 26.8289 105 27.1217C105 27.4144 104.885 27.6952 104.679 27.9022C104.474 28.1092 104.195 28.2255 103.904 28.2255Z" fill="#FFA800"/>
<path d="M103.904 22.9822H86.0959C85.8052 22.9822 85.5265 22.8659 85.321 22.6589C85.1155 22.4519 85 22.1711 85 21.8784C85 21.5856 85.1155 21.3049 85.321 21.0978C85.5265 20.8908 85.8052 20.7745 86.0959 20.7745H103.904C104.195 20.7745 104.474 20.8908 104.679 21.0978C104.885 21.3049 105 21.5856 105 21.8784C105 22.1711 104.885 22.4519 104.679 22.6589C104.474 22.8659 104.195 22.9822 103.904 22.9822Z" fill="#FFA800"/>
</g>
</g>
<defs>
<filter id="filter0_d_371_3704" x="0" y="0" width="119" height="49" filterUnits="userSpaceOnUse" color-interpolation-filters="sRGB">
<feFlood flood-opacity="0" result="BackgroundImageFix"/>
<feColorMatrix in="SourceAlpha" type="matrix" values="0 0 0 0 0 0 0 0 0 0 0 0 0 0 0 0 0 0 127 0" result="hardAlpha"/>
<feOffset/>
<feGaussianBlur stdDeviation="2"/>
<feColorMatrix type="matrix" values="0 0 0 0 0 0 0 0 0 0 0 0 0 0 0 0 0 0 0.1 0"/>
<feBlend mode="normal" in2="BackgroundImageFix" result="effect1_dropShadow_371_3704"/>
<feBlend mode="normal" in="SourceGraphic" in2="effect1_dropShadow_371_3704" result="shape"/>
</filter>
<clipPath id="clip0_371_3704">
<rect width="20" height="7.45098" fill="white" transform="translate(85 20.7745)"/>
</clipPath>
</defs>
</svg>
