<svg width="119" height="49" viewBox="0 0 119 49" fill="none" xmlns="http://www.w3.org/2000/svg">
<g filter="url(#filter0_d_371_3814)">
<rect x="4" width="111" height="41" rx="10" fill="#FFA800"/>
<path d="M13.5114 14.3636H16.5455L19.75 22.1818H19.8864L23.0909 14.3636H26.125V26H23.7386V18.4261H23.642L20.6307 25.9432H19.0057L15.9943 18.3977H15.8977V26H13.5114V14.3636ZM32.0838 26.1705C31.1861 26.1705 30.4134 25.9886 29.7656 25.625C29.1217 25.2576 28.6255 24.7386 28.277 24.0682C27.9285 23.3939 27.7543 22.5966 27.7543 21.6761C27.7543 20.7784 27.9285 19.9905 28.277 19.3125C28.6255 18.6345 29.116 18.1061 29.7486 17.7273C30.3849 17.3485 31.1312 17.1591 31.9872 17.1591C32.563 17.1591 33.099 17.2519 33.5952 17.4375C34.0952 17.6193 34.5308 17.8939 34.902 18.2614C35.277 18.6288 35.5687 19.0909 35.777 19.6477C35.9853 20.2008 36.0895 20.8485 36.0895 21.5909V22.2557H28.7202V20.7557H33.8111C33.8111 20.4072 33.7353 20.0985 33.5838 19.8295C33.4323 19.5606 33.2221 19.3504 32.9531 19.1989C32.688 19.0436 32.3793 18.9659 32.027 18.9659C31.6596 18.9659 31.3338 19.0511 31.0497 19.2216C30.7694 19.3883 30.5497 19.6136 30.3906 19.8977C30.2315 20.178 30.1501 20.4905 30.1463 20.8352V22.2614C30.1463 22.6932 30.2259 23.0663 30.3849 23.3807C30.5478 23.6951 30.777 23.9375 31.0724 24.108C31.3679 24.2784 31.7183 24.3636 32.1236 24.3636C32.3925 24.3636 32.6387 24.3258 32.8622 24.25C33.0857 24.1742 33.277 24.0606 33.4361 23.9091C33.5952 23.7576 33.7164 23.572 33.7997 23.3523L36.0384 23.5C35.9247 24.0379 35.6918 24.5076 35.3395 24.9091C34.991 25.3068 34.5402 25.6174 33.9872 25.8409C33.438 26.0606 32.8035 26.1705 32.0838 26.1705ZM40.8849 26.142C40.2221 26.142 39.6217 25.9716 39.0838 25.6307C38.5497 25.286 38.1255 24.7803 37.8111 24.1136C37.5005 23.4432 37.3452 22.6212 37.3452 21.6477C37.3452 20.6477 37.5062 19.8163 37.8281 19.1534C38.1501 18.4867 38.5781 17.9886 39.1122 17.6591C39.6501 17.3258 40.2391 17.1591 40.8793 17.1591C41.3679 17.1591 41.7751 17.2424 42.1009 17.4091C42.4304 17.572 42.6955 17.7765 42.8963 18.0227C43.1009 18.2652 43.2562 18.5038 43.3622 18.7386H43.4361V14.3636H45.8509V26H43.4645V24.6023H43.3622C43.2486 24.8447 43.0876 25.0852 42.8793 25.3239C42.6747 25.5587 42.4077 25.7538 42.0781 25.9091C41.7524 26.0644 41.3546 26.142 40.8849 26.142ZM41.652 24.2159C42.0421 24.2159 42.3717 24.1098 42.6406 23.8977C42.9134 23.6818 43.1217 23.3807 43.2656 22.9943C43.4134 22.608 43.4872 22.1553 43.4872 21.6364C43.4872 21.1174 43.4152 20.6667 43.2713 20.2841C43.1274 19.9015 42.919 19.6061 42.6463 19.3977C42.3736 19.1894 42.0421 19.0852 41.652 19.0852C41.2543 19.0852 40.919 19.1932 40.6463 19.4091C40.3736 19.625 40.1671 19.9242 40.027 20.3068C39.8868 20.6894 39.8168 21.1326 39.8168 21.6364C39.8168 22.1439 39.8868 22.5928 40.027 22.983C40.1709 23.3693 40.3774 23.6723 40.6463 23.892C40.919 24.108 41.2543 24.2159 41.652 24.2159ZM47.8409 26V17.2727H50.2614V26H47.8409ZM49.0568 16.1477C48.697 16.1477 48.3883 16.0284 48.1307 15.7898C47.8769 15.5473 47.75 15.2576 47.75 14.9205C47.75 14.5871 47.8769 14.3011 48.1307 14.0625C48.3883 13.8201 48.697 13.6989 49.0568 13.6989C49.4167 13.6989 49.7235 13.8201 49.9773 14.0625C50.2348 14.3011 50.3636 14.5871 50.3636 14.9205C50.3636 15.2576 50.2348 15.5473 49.9773 15.7898C49.7235 16.0284 49.4167 16.1477 49.0568 16.1477ZM57.7969 22.2841V17.2727H60.2173V26H57.8935V24.4148H57.8026C57.6056 24.9261 57.2779 25.3371 56.8196 25.6477C56.3651 25.9583 55.8101 26.1136 55.1548 26.1136C54.5715 26.1136 54.0582 25.9811 53.6151 25.7159C53.1719 25.4508 52.8253 25.0739 52.5753 24.5852C52.3291 24.0966 52.2041 23.5114 52.2003 22.8295V17.2727H54.6207V22.3977C54.6245 22.9129 54.7628 23.3201 55.0355 23.6193C55.3082 23.9186 55.6738 24.0682 56.1321 24.0682C56.4238 24.0682 56.6965 24.0019 56.9503 23.8693C57.2041 23.733 57.4086 23.5322 57.5639 23.267C57.723 23.0019 57.8007 22.6742 57.7969 22.2841ZM62.1534 26V17.2727H64.4602V18.8125H64.5625C64.7443 18.3011 65.0473 17.8977 65.4716 17.6023C65.8958 17.3068 66.4034 17.1591 66.9943 17.1591C67.5928 17.1591 68.1023 17.3087 68.5227 17.608C68.9432 17.9034 69.2235 18.3049 69.3636 18.8125H69.4545C69.6326 18.3125 69.9545 17.9129 70.4205 17.6136C70.8902 17.3106 71.4451 17.1591 72.0852 17.1591C72.8996 17.1591 73.5606 17.4186 74.0682 17.9375C74.5795 18.4527 74.8352 19.1837 74.8352 20.1307V26H72.4205V20.608C72.4205 20.1231 72.2917 19.7595 72.0341 19.517C71.7765 19.2746 71.4545 19.1534 71.0682 19.1534C70.6288 19.1534 70.286 19.2936 70.0398 19.5739C69.7936 19.8504 69.6705 20.2159 69.6705 20.6705V26H67.3239V20.5568C67.3239 20.1288 67.2008 19.7879 66.9545 19.5341C66.7121 19.2803 66.392 19.1534 65.9943 19.1534C65.7254 19.1534 65.483 19.2216 65.267 19.358C65.0549 19.4905 64.8864 19.678 64.7614 19.9205C64.6364 20.1591 64.5739 20.4394 64.5739 20.7614V26H62.1534Z" fill="white"/>
<g clip-path="url(#clip0_371_3814)">
<path d="M105.404 24.2255H87.5959C87.3052 24.2255 87.0265 24.1092 86.821 23.9022C86.6155 23.6952 86.5 23.4144 86.5 23.1217C86.5 22.8289 86.6155 22.5481 86.821 22.3411C87.0265 22.1341 87.3052 22.0178 87.5959 22.0178H105.404C105.695 22.0178 105.974 22.1341 106.179 22.3411C106.385 22.5481 106.5 22.8289 106.5 23.1217C106.5 23.4144 106.385 23.6952 106.179 23.9022C105.974 24.1092 105.695 24.2255 105.404 24.2255Z" fill="white"/>
<path d="M105.404 18.9822H87.5959C87.3052 18.9822 87.0265 18.8659 86.821 18.6589C86.6155 18.4519 86.5 18.1711 86.5 17.8784C86.5 17.5856 86.6155 17.3049 86.821 17.0978C87.0265 16.8908 87.3052 16.7745 87.5959 16.7745H105.404C105.695 16.7745 105.974 16.8908 106.179 17.0978C106.385 17.3049 106.5 17.5856 106.5 17.8784C106.5 18.1711 106.385 18.4519 106.179 18.6589C105.974 18.8659 105.695 18.9822 105.404 18.9822Z" fill="white"/>
</g>
</g>
<defs>
<filter id="filter0_d_371_3814" x="0" y="0" width="119" height="49" filterUnits="userSpaceOnUse" color-interpolation-filters="sRGB">
<feFlood flood-opacity="0" result="BackgroundImageFix"/>
<feColorMatrix in="SourceAlpha" type="matrix" values="0 0 0 0 0 0 0 0 0 0 0 0 0 0 0 0 0 0 127 0" result="hardAlpha"/>
<feOffset dy="4"/>
<feGaussianBlur stdDeviation="2"/>
<feComposite in2="hardAlpha" operator="out"/>
<feColorMatrix type="matrix" values="0 0 0 0 0 0 0 0 0 0 0 0 0 0 0 0 0 0 0.25 0"/>
<feBlend mode="normal" in2="BackgroundImageFix" result="effect1_dropShadow_371_3814"/>
<feBlend mode="normal" in="SourceGraphic" in2="effect1_dropShadow_371_3814" result="shape"/>
</filter>
<clipPath id="clip0_371_3814">
<rect width="20" height="7.45098" fill="white" transform="translate(86.5 16.7745)"/>
</clipPath>
</defs>
</svg>
