<svg width="33" height="31" viewBox="0 0 33 31" fill="none" xmlns="http://www.w3.org/2000/svg">
<path d="M12.7471 16.8507C11.1448 16.8507 9.57842 16.3755 8.24611 15.4853C6.91381 14.5951 5.8754 13.3298 5.26221 11.8494C4.64902 10.3691 4.48858 8.7401 4.80118 7.16854C5.11378 5.59698 5.88539 4.15341 7.01842 3.02037C8.15145 1.88734 9.59502 1.11574 11.1666 0.803135C12.7381 0.490532 14.3671 0.650971 15.8475 1.26416C17.3279 1.87736 18.5932 2.91576 19.4834 4.24806C20.3736 5.58037 20.8487 7.14673 20.8487 8.74908C20.844 10.8963 19.9889 12.9542 18.4706 14.4725C16.9523 15.9909 14.8944 16.8459 12.7471 16.8507V16.8507ZM12.7471 2.44782C11.5009 2.44782 10.2826 2.81739 9.24634 3.50978C8.2101 4.20217 7.40245 5.18629 6.92553 6.3377C6.4486 7.4891 6.32381 8.75607 6.56695 9.9784C6.81008 11.2007 7.41022 12.3235 8.29147 13.2047C9.17271 14.086 10.2955 14.6861 11.5178 14.9293C12.7401 15.1724 14.0071 15.0476 15.1585 14.5707C16.3099 14.0938 17.294 13.2861 17.9864 12.2499C18.6788 11.2136 19.0484 9.99535 19.0484 8.74908C19.0484 7.07788 18.3845 5.47514 17.2028 4.29342C16.0211 3.1117 14.4183 2.44782 12.7471 2.44782V2.44782Z" fill="white"/>
<path d="M19.0478 30.353H0L0.162032 29.3088C0.558825 26.1625 2.07379 23.2639 4.43041 21.142C6.78702 19.02 9.82811 17.8163 12.9986 17.7505C14.6383 17.7361 16.265 18.0419 17.7875 18.6507C17.9008 18.6936 18.0043 18.7589 18.0917 18.8428C18.1791 18.9267 18.2488 19.0273 18.2964 19.1387C18.344 19.2501 18.3686 19.37 18.3688 19.4911C18.3689 19.6123 18.3446 19.7322 18.2974 19.8438C18.2501 19.9553 18.1808 20.0562 18.0936 20.1403C18.0064 20.2244 17.9031 20.29 17.79 20.3333C17.6768 20.3765 17.5561 20.3965 17.435 20.392C17.3139 20.3875 17.195 20.3586 17.0854 20.307C15.7907 19.7654 14.402 19.484 12.9986 19.4788C10.4471 19.5424 7.99185 20.4661 6.03111 22.1C4.07036 23.734 2.71909 25.9824 2.19644 28.4806H19.1018C19.3406 28.4806 19.5695 28.5755 19.7383 28.7443C19.9072 28.9131 20.002 29.1421 20.002 29.3808C20.002 29.6195 19.9072 29.8485 19.7383 30.0173C19.5695 30.1861 19.3406 30.281 19.1018 30.281L19.0478 30.353Z" fill="white"/>
<path d="M25.7982 15.9502C24.4079 15.9512 23.0476 16.3546 21.8815 17.1117C20.7154 17.8689 19.7935 18.9474 19.2269 20.217C18.8067 21.138 18.5917 22.1393 18.5968 23.1516C18.5968 24.5759 19.0191 25.9683 19.8104 27.1525C20.6017 28.3368 21.7264 29.2598 23.0423 29.8049C24.3582 30.35 25.8062 30.4926 27.2031 30.2147C28.6001 29.9368 29.8833 29.251 30.8904 28.2438C31.8975 27.2367 32.5834 25.9535 32.8613 24.5566C33.1391 23.1596 32.9965 21.7117 32.4515 20.3958C31.9064 19.0799 30.9834 17.9552 29.7991 17.1639C28.6148 16.3726 27.2225 15.9502 25.7982 15.9502ZM29.3989 24.1238H26.7704V26.7524C26.7704 27.0102 26.668 27.2575 26.4857 27.4398C26.3033 27.6221 26.056 27.7245 25.7982 27.7245C25.5404 27.7245 25.2931 27.6221 25.1108 27.4398C24.9284 27.2575 24.826 27.0102 24.826 26.7524V24.0518H22.1975C22.0698 24.0518 21.9434 24.0267 21.8254 23.9778C21.7075 23.929 21.6003 23.8573 21.51 23.7671C21.4198 23.6768 21.3482 23.5696 21.2993 23.4517C21.2504 23.3337 21.2253 23.2073 21.2253 23.0796C21.2244 22.9061 21.2709 22.7356 21.3597 22.5865C21.4486 22.4374 21.5764 22.3153 21.7294 22.2334C21.8684 22.1436 22.0321 22.0995 22.1975 22.1074H24.826V19.5509C24.826 19.2931 24.9284 19.0458 25.1108 18.8635C25.2931 18.6811 25.5404 18.5787 25.7982 18.5787C26.056 18.5787 26.3033 18.6811 26.4857 18.8635C26.668 19.0458 26.7704 19.2931 26.7704 19.5509V22.2515H29.3989C29.6568 22.2515 29.904 22.3539 30.0864 22.5362C30.2687 22.7185 30.3711 22.9658 30.3711 23.2236C30.3711 23.4815 30.2687 23.7288 30.0864 23.9111C29.904 24.0934 29.6568 24.1958 29.3989 24.1958V24.1238Z" fill="white"/>
</svg>
