<svg width="40" height="40" viewBox="0 0 40 40" fill="none" xmlns="http://www.w3.org/2000/svg">
<path d="M10 0.5H30C35.2467 0.5 39.5 4.75329 39.5 10V30C39.5 35.2467 35.2467 39.5 30 39.5H10C4.75329 39.5 0.5 35.2467 0.5 30V10C0.5 4.75329 4.75329 0.5 10 0.5Z" fill="url(#paint0_linear_48008_4155)"/>
<mask id="mask0_48008_4155" style="mask-type:alpha" maskUnits="userSpaceOnUse" x="4" y="4" width="32" height="32">
<rect x="4" y="4" width="32" height="32" fill="#D9D9D9"/>
</mask>
<g mask="url(#mask0_48008_4155)">
<path d="M13.333 32C12.5997 32 11.9719 31.7389 11.4497 31.2167C10.9275 30.6944 10.6663 30.0667 10.6663 29.3333V12H9.33301V9.33333H15.9997V8H23.9997V9.33333H30.6663V12H29.333V29.3333C29.333 30.0667 29.0719 30.6944 28.5497 31.2167C28.0275 31.7389 27.3997 32 26.6663 32H13.333ZM26.6663 12H13.333V29.3333H26.6663V12ZM15.9997 26.6667H18.6663V14.6667H15.9997V26.6667ZM21.333 26.6667H23.9997V14.6667H21.333V26.6667Z" fill="#2A3647"/>
</g>
<path d="M10 0.5H30C35.2467 0.5 39.5 4.75329 39.5 10V30C39.5 35.2467 35.2467 39.5 30 39.5H10C4.75329 39.5 0.5 35.2467 0.5 30V10C0.5 4.75329 4.75329 0.5 10 0.5Z" stroke="#2A3647"/>
<defs>
<linearGradient id="paint0_linear_48008_4155" x1="20" y1="0" x2="20" y2="40" gradientUnits="userSpaceOnUse">
<stop stop-color="#F9F9F9"/>
<stop offset="1" stop-color="#F0F0F0"/>
</linearGradient>
</defs>
</svg>
