<svg width="50" height="50" viewBox="0 0 50 50" fill="none" xmlns="http://www.w3.org/2000/svg">
<path d="M0 10C0 4.47715 4.47715 0 10 0H40C45.5228 0 50 4.47715 50 10V40C50 45.5228 45.5228 50 40 50H10C4.47715 50 0 45.5228 0 40V10Z" fill="#2A3647"/>
<path d="M17.4454 32.0155L22.2648 34.9404L34.9079 14.1083C35.1945 13.6362 35.044 13.0211 34.5719 12.7346L31.4623 10.8474C30.9902 10.5608 30.3751 10.7113 30.0886 11.1834L17.4454 32.0155Z" fill="white"/>
<path d="M16.8604 32.9794L21.6797 35.9043L16.9511 38.1892L16.8604 32.9794Z" fill="white"/>
</svg>
