<svg width="137" height="55" viewBox="0 0 137 55" fill="none" xmlns="http://www.w3.org/2000/svg">
<rect x="0.5" y="0.5" width="136" height="54" rx="9.5" fill="#2A3647"/>
<path d="M13.9599 35H10.4996L15.772 19.7273H19.9332L25.1982 35H21.7379L17.9123 23.2173H17.793L13.9599 35ZM13.7436 28.9968H21.9169V31.5174H13.7436V28.9968ZM30.6644 35.1864C29.7944 35.1864 29.0064 34.9627 28.3004 34.5153C27.5994 34.0629 27.0426 33.3991 26.63 32.5241C26.2223 31.6442 26.0185 30.5653 26.0185 29.2876C26.0185 27.9751 26.2298 26.8839 26.6523 26.0138C27.0749 25.1388 27.6367 24.4851 28.3377 24.0526C29.0437 23.6151 29.8168 23.3963 30.657 23.3963C31.2983 23.3963 31.8327 23.5057 32.2603 23.7244C32.6928 23.9382 33.0408 24.2067 33.3043 24.5298C33.5728 24.848 33.7766 25.1612 33.9158 25.4695H34.0128V19.7273H37.1822V35H34.0501V33.1655H33.9158C33.7667 33.4837 33.5554 33.7994 33.282 34.1126C33.0135 34.4208 32.663 34.6768 32.2305 34.8807C31.8029 35.0845 31.2809 35.1864 30.6644 35.1864ZM31.6712 32.6584C32.1832 32.6584 32.6158 32.5192 32.9688 32.2408C33.3267 31.9574 33.6001 31.5621 33.7891 31.055C33.983 30.5479 34.0799 29.9538 34.0799 29.2727C34.0799 28.5916 33.9854 28 33.7965 27.4979C33.6076 26.9957 33.3342 26.608 32.9762 26.3345C32.6183 26.0611 32.1832 25.9244 31.6712 25.9244C31.1491 25.9244 30.7092 26.0661 30.3512 26.3494C29.9933 26.6328 29.7223 27.0256 29.5384 27.5277C29.3544 28.0298 29.2624 28.6115 29.2624 29.2727C29.2624 29.9389 29.3544 30.5281 29.5384 31.0401C29.7273 31.5472 29.9982 31.945 30.3512 32.2333C30.7092 32.5167 31.1491 32.6584 31.6712 32.6584ZM44.015 35.1864C43.145 35.1864 42.357 34.9627 41.651 34.5153C40.95 34.0629 40.3932 33.3991 39.9806 32.5241C39.5729 31.6442 39.3691 30.5653 39.3691 29.2876C39.3691 27.9751 39.5803 26.8839 40.0029 26.0138C40.4255 25.1388 40.9873 24.4851 41.6883 24.0526C42.3943 23.6151 43.1673 23.3963 44.0075 23.3963C44.6489 23.3963 45.1833 23.5057 45.6109 23.7244C46.0434 23.9382 46.3914 24.2067 46.6549 24.5298C46.9234 24.848 47.1272 25.1612 47.2664 25.4695H47.3634V19.7273H50.5328V35H47.4007V33.1655H47.2664C47.1173 33.4837 46.906 33.7994 46.6325 34.1126C46.3641 34.4208 46.0136 34.6768 45.5811 34.8807C45.1535 35.0845 44.6315 35.1864 44.015 35.1864ZM45.0218 32.6584C45.5338 32.6584 45.9664 32.5192 46.3193 32.2408C46.6773 31.9574 46.9507 31.5621 47.1396 31.055C47.3335 30.5479 47.4305 29.9538 47.4305 29.2727C47.4305 28.5916 47.336 28 47.1471 27.4979C46.9582 26.9957 46.6847 26.608 46.3268 26.3345C45.9688 26.0611 45.5338 25.9244 45.0218 25.9244C44.4997 25.9244 44.0597 26.0661 43.7018 26.3494C43.3438 26.6328 43.0729 27.0256 42.8889 27.5277C42.705 28.0298 42.613 28.6115 42.613 29.2727C42.613 29.9389 42.705 30.5281 42.8889 31.0401C43.0779 31.5472 43.3488 31.945 43.7018 32.2333C44.0597 32.5167 44.4997 32.6584 45.0218 32.6584ZM64.0977 23.5455V25.9318H57.1997V23.5455H64.0977ZM58.7657 20.8011H61.9426V31.4801C61.9426 31.7734 61.9873 32.0021 62.0768 32.1662C62.1663 32.3253 62.2906 32.4371 62.4497 32.5018C62.6137 32.5664 62.8026 32.5987 63.0164 32.5987C63.1656 32.5987 63.3147 32.5863 63.4639 32.5614C63.613 32.5316 63.7274 32.5092 63.8069 32.4943L64.3066 34.8583C64.1475 34.908 63.9237 34.9652 63.6354 35.0298C63.347 35.0994 62.9965 35.1417 62.5839 35.1566C61.8183 35.1864 61.1471 35.0845 60.5704 34.8509C59.9987 34.6172 59.5537 34.2543 59.2355 33.7621C58.9173 33.2699 58.7607 32.6484 58.7657 31.8977V20.8011ZM69.4335 35.2163C68.7027 35.2163 68.0514 35.0895 67.4797 34.8359C66.9079 34.5774 66.4555 34.1971 66.1224 33.695C65.7943 33.1879 65.6302 32.5565 65.6302 31.8008C65.6302 31.1644 65.7471 30.63 65.9807 30.1974C66.2144 29.7649 66.5326 29.4169 66.9353 29.1534C67.338 28.8899 67.7954 28.6911 68.3074 28.5568C68.8245 28.4226 69.3664 28.3281 69.9332 28.2734C70.5993 28.2038 71.1363 28.1392 71.5439 28.0795C71.9516 28.0149 72.2474 27.9205 72.4314 27.7962C72.6153 27.6719 72.7073 27.4879 72.7073 27.2443V27.1996C72.7073 26.7273 72.5582 26.3619 72.2599 26.1033C71.9665 25.8448 71.5489 25.7156 71.007 25.7156C70.4353 25.7156 69.9804 25.8423 69.6423 26.0959C69.3042 26.3445 69.0805 26.6577 68.9711 27.0355L66.0329 26.7969C66.1821 26.1009 66.4754 25.4993 66.9129 24.9922C67.3504 24.4801 67.9147 24.0874 68.6057 23.8139C69.3018 23.5355 70.1072 23.3963 71.0219 23.3963C71.6583 23.3963 72.2673 23.4709 72.849 23.62C73.4356 23.7692 73.9552 24.0004 74.4076 24.3136C74.865 24.6268 75.2254 25.0295 75.4889 25.5217C75.7524 26.0089 75.8841 26.593 75.8841 27.2741V35H72.8714V33.4116H72.7819C72.5979 33.7695 72.3518 34.0852 72.0436 34.3587C71.7354 34.6271 71.365 34.8384 70.9324 34.9925C70.4999 35.1417 70.0003 35.2163 69.4335 35.2163ZM70.3433 33.0238C70.8106 33.0238 71.2233 32.9318 71.5812 32.7479C71.9392 32.5589 72.2201 32.3054 72.4239 31.9872C72.6278 31.669 72.7297 31.3086 72.7297 30.9059V29.6903C72.6302 29.755 72.4935 29.8146 72.3195 29.8693C72.1505 29.919 71.9591 29.9663 71.7453 30.011C71.5315 30.0508 71.3177 30.0881 71.104 30.1229C70.8902 30.1527 70.6963 30.18 70.5223 30.2049C70.1494 30.2596 69.8238 30.3466 69.5454 30.4659C69.267 30.5852 69.0507 30.7468 68.8966 30.9506C68.7425 31.1495 68.6654 31.3981 68.6654 31.6964C68.6654 32.1289 68.822 32.4595 69.1352 32.6882C69.4534 32.9119 69.8561 33.0238 70.3433 33.0238ZM87.8794 26.8118L84.971 26.9908C84.9213 26.7422 84.8144 26.5185 84.6503 26.3196C84.4862 26.1158 84.27 25.9542 84.0015 25.8349C83.738 25.7106 83.4223 25.6484 83.0544 25.6484C82.5622 25.6484 82.1471 25.7528 81.809 25.9616C81.471 26.1655 81.3019 26.4389 81.3019 26.782C81.3019 27.0554 81.4113 27.2866 81.6301 27.4755C81.8488 27.6644 82.2242 27.8161 82.7561 27.9304L84.8293 28.348C85.9429 28.5767 86.7732 28.9446 87.32 29.4517C87.8669 29.9588 88.1404 30.625 88.1404 31.4503C88.1404 32.201 87.9191 32.8597 87.4767 33.4265C87.0392 33.9933 86.4376 34.4357 85.672 34.7539C84.9113 35.0671 84.0338 35.2237 83.0395 35.2237C81.5232 35.2237 80.3151 34.908 79.4152 34.2766C78.5203 33.6403 77.9958 32.7752 77.8417 31.6815L80.9664 31.5174C81.0608 31.9798 81.2895 32.3327 81.6524 32.5763C82.0154 32.815 82.4802 32.9343 83.047 32.9343C83.6038 32.9343 84.0512 32.8274 84.3893 32.6136C84.7323 32.3949 84.9063 32.114 84.9113 31.771C84.9063 31.4826 84.7845 31.2464 84.5459 31.0625C84.3073 30.8736 83.9394 30.7294 83.4422 30.63L81.4585 30.2347C80.3399 30.011 79.5072 29.6232 78.9603 29.0714C78.4184 28.5195 78.1475 27.8161 78.1475 26.9609C78.1475 26.2251 78.3463 25.5913 78.7441 25.0593C79.1468 24.5273 79.711 24.1172 80.4369 23.8288C81.1677 23.5405 82.0228 23.3963 83.0022 23.3963C84.449 23.3963 85.5874 23.7021 86.4177 24.3136C87.2529 24.9251 87.7401 25.7578 87.8794 26.8118ZM93.0194 31.7038L93.0268 27.8931H93.4892L97.1582 23.5455H100.805L95.8755 29.3026H95.1223L93.0194 31.7038ZM90.1408 35V19.7273H93.3176V35H90.1408ZM97.2999 35L93.9292 30.011L96.0471 27.7663L101.021 35H97.2999Z" fill="white"/>
<path d="M119.5 20V35" stroke="white" stroke-width="2" stroke-linecap="round"/>
<path d="M127 27.6416L112 27.6416" stroke="white" stroke-width="2" stroke-linecap="round"/>
<rect x="0.5" y="0.5" width="136" height="54" rx="9.5" stroke="#2A3647"/>
</svg>
