<svg width="145" height="63" viewBox="0 0 145 63" fill="none" xmlns="http://www.w3.org/2000/svg">
<g filter="url(#filter0_d_170_1482)">
<rect x="4" width="137" height="55" rx="10" fill="#29ABE2" shape-rendering="crispEdges"/>
<path d="M17.9599 35H14.4996L19.772 19.7273H23.9332L29.1982 35H25.7379L21.9123 23.2173H21.793L17.9599 35ZM17.7436 28.9968H25.9169V31.5174H17.7436V28.9968ZM34.6644 35.1864C33.7944 35.1864 33.0064 34.9627 32.3004 34.5153C31.5994 34.0629 31.0426 33.3991 30.63 32.5241C30.2223 31.6442 30.0185 30.5653 30.0185 29.2876C30.0185 27.9751 30.2298 26.8839 30.6523 26.0138C31.0749 25.1388 31.6367 24.4851 32.3377 24.0526C33.0437 23.6151 33.8168 23.3963 34.657 23.3963C35.2983 23.3963 35.8327 23.5057 36.2603 23.7244C36.6928 23.9382 37.0408 24.2067 37.3043 24.5298C37.5728 24.848 37.7766 25.1612 37.9158 25.4695H38.0128V19.7273H41.1822V35H38.0501V33.1655H37.9158C37.7667 33.4837 37.5554 33.7994 37.282 34.1126C37.0135 34.4208 36.663 34.6768 36.2305 34.8807C35.8029 35.0845 35.2809 35.1864 34.6644 35.1864ZM35.6712 32.6584C36.1832 32.6584 36.6158 32.5192 36.9688 32.2408C37.3267 31.9574 37.6001 31.5621 37.7891 31.055C37.983 30.5479 38.0799 29.9538 38.0799 29.2727C38.0799 28.5916 37.9854 28 37.7965 27.4979C37.6076 26.9957 37.3342 26.608 36.9762 26.3345C36.6183 26.0611 36.1832 25.9244 35.6712 25.9244C35.1491 25.9244 34.7092 26.0661 34.3512 26.3494C33.9933 26.6328 33.7223 27.0256 33.5384 27.5277C33.3544 28.0298 33.2624 28.6115 33.2624 29.2727C33.2624 29.9389 33.3544 30.5281 33.5384 31.0401C33.7273 31.5472 33.9982 31.945 34.3512 32.2333C34.7092 32.5167 35.1491 32.6584 35.6712 32.6584ZM48.015 35.1864C47.145 35.1864 46.357 34.9627 45.651 34.5153C44.95 34.0629 44.3932 33.3991 43.9806 32.5241C43.5729 31.6442 43.3691 30.5653 43.3691 29.2876C43.3691 27.9751 43.5803 26.8839 44.0029 26.0138C44.4255 25.1388 44.9873 24.4851 45.6883 24.0526C46.3943 23.6151 47.1673 23.3963 48.0075 23.3963C48.6489 23.3963 49.1833 23.5057 49.6109 23.7244C50.0434 23.9382 50.3914 24.2067 50.6549 24.5298C50.9234 24.848 51.1272 25.1612 51.2664 25.4695H51.3634V19.7273H54.5328V35H51.4007V33.1655H51.2664C51.1173 33.4837 50.906 33.7994 50.6325 34.1126C50.3641 34.4208 50.0136 34.6768 49.5811 34.8807C49.1535 35.0845 48.6315 35.1864 48.015 35.1864ZM49.0218 32.6584C49.5338 32.6584 49.9664 32.5192 50.3193 32.2408C50.6773 31.9574 50.9507 31.5621 51.1396 31.055C51.3335 30.5479 51.4305 29.9538 51.4305 29.2727C51.4305 28.5916 51.336 28 51.1471 27.4979C50.9582 26.9957 50.6847 26.608 50.3268 26.3345C49.9688 26.0611 49.5338 25.9244 49.0218 25.9244C48.4997 25.9244 48.0597 26.0661 47.7018 26.3494C47.3438 26.6328 47.0729 27.0256 46.8889 27.5277C46.705 28.0298 46.613 28.6115 46.613 29.2727C46.613 29.9389 46.705 30.5281 46.8889 31.0401C47.0779 31.5472 47.3488 31.945 47.7018 32.2333C48.0597 32.5167 48.4997 32.6584 49.0218 32.6584ZM68.0977 23.5455V25.9318H61.1997V23.5455H68.0977ZM62.7657 20.8011H65.9426V31.4801C65.9426 31.7734 65.9873 32.0021 66.0768 32.1662C66.1663 32.3253 66.2906 32.4371 66.4497 32.5018C66.6137 32.5664 66.8026 32.5987 67.0164 32.5987C67.1656 32.5987 67.3147 32.5863 67.4639 32.5614C67.613 32.5316 67.7274 32.5092 67.8069 32.4943L68.3066 34.8583C68.1475 34.908 67.9237 34.9652 67.6354 35.0298C67.347 35.0994 66.9965 35.1417 66.5839 35.1566C65.8183 35.1864 65.1471 35.0845 64.5704 34.8509C63.9987 34.6172 63.5537 34.2543 63.2355 33.7621C62.9173 33.2699 62.7607 32.6484 62.7657 31.8977V20.8011ZM73.4335 35.2163C72.7027 35.2163 72.0514 35.0895 71.4797 34.8359C70.9079 34.5774 70.4555 34.1971 70.1224 33.695C69.7943 33.1879 69.6302 32.5565 69.6302 31.8008C69.6302 31.1644 69.7471 30.63 69.9807 30.1974C70.2144 29.7649 70.5326 29.4169 70.9353 29.1534C71.338 28.8899 71.7954 28.6911 72.3074 28.5568C72.8245 28.4226 73.3664 28.3281 73.9332 28.2734C74.5993 28.2038 75.1363 28.1392 75.5439 28.0795C75.9516 28.0149 76.2474 27.9205 76.4314 27.7962C76.6153 27.6719 76.7073 27.4879 76.7073 27.2443V27.1996C76.7073 26.7273 76.5582 26.3619 76.2599 26.1033C75.9665 25.8448 75.5489 25.7156 75.007 25.7156C74.4353 25.7156 73.9804 25.8423 73.6423 26.0959C73.3042 26.3445 73.0805 26.6577 72.9711 27.0355L70.0329 26.7969C70.1821 26.1009 70.4754 25.4993 70.9129 24.9922C71.3504 24.4801 71.9147 24.0874 72.6057 23.8139C73.3018 23.5355 74.1072 23.3963 75.0219 23.3963C75.6583 23.3963 76.2673 23.4709 76.849 23.62C77.4356 23.7692 77.9552 24.0004 78.4076 24.3136C78.865 24.6268 79.2254 25.0295 79.4889 25.5217C79.7524 26.0089 79.8841 26.593 79.8841 27.2741V35H76.8714V33.4116H76.7819C76.5979 33.7695 76.3518 34.0852 76.0436 34.3587C75.7354 34.6271 75.365 34.8384 74.9324 34.9925C74.4999 35.1417 74.0003 35.2163 73.4335 35.2163ZM74.3433 33.0238C74.8106 33.0238 75.2233 32.9318 75.5812 32.7479C75.9392 32.5589 76.2201 32.3054 76.4239 31.9872C76.6278 31.669 76.7297 31.3086 76.7297 30.9059V29.6903C76.6302 29.755 76.4935 29.8146 76.3195 29.8693C76.1505 29.919 75.9591 29.9663 75.7453 30.011C75.5315 30.0508 75.3177 30.0881 75.104 30.1229C74.8902 30.1527 74.6963 30.18 74.5223 30.2049C74.1494 30.2596 73.8238 30.3466 73.5454 30.4659C73.267 30.5852 73.0507 30.7468 72.8966 30.9506C72.7425 31.1495 72.6654 31.3981 72.6654 31.6964C72.6654 32.1289 72.822 32.4595 73.1352 32.6882C73.4534 32.9119 73.8561 33.0238 74.3433 33.0238ZM91.8794 26.8118L88.971 26.9908C88.9213 26.7422 88.8144 26.5185 88.6503 26.3196C88.4862 26.1158 88.27 25.9542 88.0015 25.8349C87.738 25.7106 87.4223 25.6484 87.0544 25.6484C86.5622 25.6484 86.1471 25.7528 85.809 25.9616C85.471 26.1655 85.3019 26.4389 85.3019 26.782C85.3019 27.0554 85.4113 27.2866 85.6301 27.4755C85.8488 27.6644 86.2242 27.8161 86.7561 27.9304L88.8293 28.348C89.9429 28.5767 90.7732 28.9446 91.32 29.4517C91.8669 29.9588 92.1404 30.625 92.1404 31.4503C92.1404 32.201 91.9191 32.8597 91.4767 33.4265C91.0392 33.9933 90.4376 34.4357 89.672 34.7539C88.9113 35.0671 88.0338 35.2237 87.0395 35.2237C85.5232 35.2237 84.3151 34.908 83.4152 34.2766C82.5203 33.6403 81.9958 32.7752 81.8417 31.6815L84.9664 31.5174C85.0608 31.9798 85.2895 32.3327 85.6524 32.5763C86.0154 32.815 86.4802 32.9343 87.047 32.9343C87.6038 32.9343 88.0512 32.8274 88.3893 32.6136C88.7323 32.3949 88.9063 32.114 88.9113 31.771C88.9063 31.4826 88.7845 31.2464 88.5459 31.0625C88.3073 30.8736 87.9394 30.7294 87.4422 30.63L85.4585 30.2347C84.3399 30.011 83.5072 29.6232 82.9603 29.0714C82.4184 28.5195 82.1475 27.8161 82.1475 26.9609C82.1475 26.2251 82.3463 25.5913 82.7441 25.0593C83.1468 24.5273 83.711 24.1172 84.4369 23.8288C85.1677 23.5405 86.0228 23.3963 87.0022 23.3963C88.449 23.3963 89.5874 23.7021 90.4177 24.3136C91.2529 24.9251 91.7401 25.7578 91.8794 26.8118ZM97.0194 31.7038L97.0268 27.8931H97.4892L101.158 23.5455H104.805L99.8755 29.3026H99.1223L97.0194 31.7038ZM94.1408 35V19.7273H97.3176V35H94.1408ZM101.3 35L97.9292 30.011L100.047 27.7663L105.021 35H101.3Z" fill="white"/>
<path d="M123.5 20V35" stroke="white" stroke-width="2" stroke-linecap="round"/>
<path d="M131 27.6416L116 27.6416" stroke="white" stroke-width="2" stroke-linecap="round"/>
</g>
<defs>
<filter id="filter0_d_170_1482" x="0" y="0" width="145" height="63" filterUnits="userSpaceOnUse" color-interpolation-filters="sRGB">
<feFlood flood-opacity="0" result="BackgroundImageFix"/>
<feColorMatrix in="SourceAlpha" type="matrix" values="0 0 0 0 0 0 0 0 0 0 0 0 0 0 0 0 0 0 127 0" result="hardAlpha"/>
<feOffset dy="4"/>
<feGaussianBlur stdDeviation="2"/>
<feComposite in2="hardAlpha" operator="out"/>
<feColorMatrix type="matrix" values="0 0 0 0 0 0 0 0 0 0 0 0 0 0 0 0 0 0 0.25 0"/>
<feBlend mode="normal" in2="BackgroundImageFix" result="effect1_dropShadow_170_1482"/>
<feBlend mode="normal" in="SourceGraphic" in2="effect1_dropShadow_170_1482" result="shape"/>
</filter>
</defs>
</svg>
