<svg width="23" height="23" viewBox="0 0 23 23" fill="none" xmlns="http://www.w3.org/2000/svg">
<path d="M20.0048 0.169922H2.00476V0.169922C0.900191 0.169922 0.00476074 1.0664 0.00476074 2.17097C0.00476074 2.19931 0.00476074 2.2192 0.00476074 2.2291V20.2291V20.2291C0.00476074 21.301 0.874736 22.1699 1.94663 22.1699C1.97485 22.1699 1.99475 22.1699 2.00475 22.1699H20.0048C20.0148 22.1699 20.0347 22.1699 20.0629 22.1699C21.1348 22.1699 22.0048 21.301 22.0048 20.2291V20.2291V2.22907C22.0048 2.21918 22.0048 2.19929 22.0048 2.17097C22.0048 1.0664 21.1093 0.169922 20.0048 0.169922V0.169922ZM13.0048 20.2291H2.00476V12.2291H13.0048V20.2291ZM13.0048 10.2291H2.00476V2.2291L13.0048 2.22907V10.2291ZM20.0048 20.2291H15.0048V2.2291H20.0048V20.2291Z" fill="white"/>
</svg>
