<svg width="119" height="49" viewBox="0 0 119 49" fill="none" xmlns="http://www.w3.org/2000/svg">
<g filter="url(#filter0_d_371_3785)">
<rect x="4" width="111" height="41" rx="10" fill="#FF3D00"/>
<path d="M25.6989 14.3636H28.1591V21.9205C28.1591 22.7689 27.9564 23.5114 27.5511 24.1477C27.1496 24.7841 26.5871 25.2803 25.8636 25.6364C25.1402 25.9886 24.2973 26.1648 23.3352 26.1648C22.3693 26.1648 21.5246 25.9886 20.8011 25.6364C20.0777 25.2803 19.5152 24.7841 19.1136 24.1477C18.7121 23.5114 18.5114 22.7689 18.5114 21.9205V14.3636H20.9716V21.7102C20.9716 22.1534 21.0682 22.5473 21.2614 22.892C21.4583 23.2367 21.7348 23.5076 22.0909 23.7045C22.447 23.9015 22.8617 24 23.3352 24C23.8125 24 24.2273 23.9015 24.5795 23.7045C24.9356 23.5076 25.2102 23.2367 25.4034 22.892C25.6004 22.5473 25.6989 22.1534 25.6989 21.7102V14.3636ZM30.1378 26V17.2727H32.4844V18.7955H32.5753C32.7344 18.2538 33.0014 17.8447 33.3764 17.5682C33.7514 17.2879 34.1832 17.1477 34.6719 17.1477C34.7931 17.1477 34.9238 17.1553 35.0639 17.1705C35.2041 17.1856 35.3272 17.2064 35.4332 17.233V19.3807C35.3196 19.3466 35.1624 19.3163 34.9616 19.2898C34.7609 19.2633 34.5772 19.25 34.4105 19.25C34.0545 19.25 33.7363 19.3277 33.456 19.483C33.1795 19.6345 32.9598 19.8466 32.7969 20.1193C32.6378 20.392 32.5582 20.7064 32.5582 21.0625V26H30.1378ZM40.2102 29.4545C39.4261 29.4545 38.7538 29.3466 38.1932 29.1307C37.6364 28.9186 37.1932 28.6288 36.8636 28.2614C36.5341 27.8939 36.3201 27.4811 36.2216 27.0227L38.4602 26.7216C38.5284 26.8958 38.6364 27.0587 38.7841 27.2102C38.9318 27.3617 39.1269 27.483 39.3693 27.5739C39.6155 27.6686 39.9148 27.7159 40.267 27.7159C40.7936 27.7159 41.2273 27.5871 41.5682 27.3295C41.9129 27.0758 42.0852 26.6496 42.0852 26.0511V24.4545H41.983C41.8769 24.697 41.7178 24.9261 41.5057 25.142C41.2936 25.358 41.0208 25.5341 40.6875 25.6705C40.3542 25.8068 39.9564 25.875 39.4943 25.875C38.839 25.875 38.2424 25.7235 37.7045 25.4205C37.1705 25.1136 36.7443 24.6458 36.4261 24.017C36.1117 23.3845 35.9545 22.5852 35.9545 21.6193C35.9545 20.6307 36.1155 19.8049 36.4375 19.142C36.7595 18.4792 37.1875 17.983 37.7216 17.6534C38.2595 17.3239 38.8485 17.1591 39.4886 17.1591C39.9773 17.1591 40.3864 17.2424 40.7159 17.4091C41.0455 17.572 41.3106 17.7765 41.5114 18.0227C41.7159 18.2652 41.8731 18.5038 41.983 18.7386H42.0739V17.2727H44.4773V26.0852C44.4773 26.8277 44.2955 27.4489 43.9318 27.9489C43.5682 28.4489 43.0644 28.8239 42.4205 29.0739C41.7803 29.3277 41.0436 29.4545 40.2102 29.4545ZM40.2614 24.0568C40.6515 24.0568 40.9811 23.9602 41.25 23.767C41.5227 23.5701 41.7311 23.2898 41.875 22.9261C42.0227 22.5587 42.0966 22.1193 42.0966 21.608C42.0966 21.0966 42.0246 20.6534 41.8807 20.2784C41.7367 19.8996 41.5284 19.6061 41.2557 19.3977C40.983 19.1894 40.6515 19.0852 40.2614 19.0852C39.8636 19.0852 39.5284 19.1932 39.2557 19.4091C38.983 19.6212 38.7765 19.9167 38.6364 20.2955C38.4962 20.6742 38.4261 21.1117 38.4261 21.608C38.4261 22.1117 38.4962 22.5473 38.6364 22.9148C38.7803 23.2784 38.9867 23.5606 39.2557 23.7614C39.5284 23.9583 39.8636 24.0568 40.2614 24.0568ZM50.3807 26.1705C49.483 26.1705 48.7102 25.9886 48.0625 25.625C47.4186 25.2576 46.9223 24.7386 46.5739 24.0682C46.2254 23.3939 46.0511 22.5966 46.0511 21.6761C46.0511 20.7784 46.2254 19.9905 46.5739 19.3125C46.9223 18.6345 47.4129 18.1061 48.0455 17.7273C48.6818 17.3485 49.428 17.1591 50.2841 17.1591C50.8598 17.1591 51.3958 17.2519 51.892 17.4375C52.392 17.6193 52.8277 17.8939 53.1989 18.2614C53.5739 18.6288 53.8655 19.0909 54.0739 19.6477C54.2822 20.2008 54.3864 20.8485 54.3864 21.5909V22.2557H47.017V20.7557H52.108C52.108 20.4072 52.0322 20.0985 51.8807 19.8295C51.7292 19.5606 51.5189 19.3504 51.25 19.1989C50.9848 19.0436 50.6761 18.9659 50.3239 18.9659C49.9564 18.9659 49.6307 19.0511 49.3466 19.2216C49.0663 19.3883 48.8466 19.6136 48.6875 19.8977C48.5284 20.178 48.447 20.4905 48.4432 20.8352V22.2614C48.4432 22.6932 48.5227 23.0663 48.6818 23.3807C48.8447 23.6951 49.0739 23.9375 49.3693 24.108C49.6648 24.2784 50.0152 24.3636 50.4205 24.3636C50.6894 24.3636 50.9356 24.3258 51.1591 24.25C51.3826 24.1742 51.5739 24.0606 51.733 23.9091C51.892 23.7576 52.0133 23.572 52.0966 23.3523L54.3352 23.5C54.2216 24.0379 53.9886 24.5076 53.6364 24.9091C53.2879 25.3068 52.8371 25.6174 52.2841 25.8409C51.7348 26.0606 51.1004 26.1705 50.3807 26.1705ZM58.3864 20.9545V26H55.9659V17.2727H58.2727V18.8125H58.375C58.5682 18.3049 58.892 17.9034 59.3466 17.608C59.8011 17.3087 60.3523 17.1591 61 17.1591C61.6061 17.1591 62.1345 17.2917 62.5852 17.5568C63.036 17.822 63.3864 18.2008 63.6364 18.6932C63.8864 19.1818 64.0114 19.7652 64.0114 20.4432V26H61.5909V20.875C61.5947 20.3409 61.4583 19.9242 61.1818 19.625C60.9053 19.322 60.5246 19.1705 60.0398 19.1705C59.714 19.1705 59.4261 19.2405 59.1761 19.3807C58.9299 19.5208 58.7367 19.7254 58.5966 19.9943C58.4602 20.2595 58.3902 20.5795 58.3864 20.9545ZM70.5611 17.2727V19.0909H65.3054V17.2727H70.5611ZM66.4986 15.1818H68.919V23.3182C68.919 23.5417 68.9531 23.7159 69.0213 23.8409C69.0895 23.9621 69.1842 24.0473 69.3054 24.0966C69.4304 24.1458 69.5743 24.1705 69.7372 24.1705C69.8509 24.1705 69.9645 24.161 70.0781 24.142C70.1918 24.1193 70.2789 24.1023 70.3395 24.0909L70.7202 25.892C70.599 25.9299 70.4285 25.9735 70.2088 26.0227C69.9891 26.0758 69.7221 26.108 69.4077 26.1193C68.8243 26.142 68.313 26.0644 67.8736 25.8864C67.438 25.7083 67.099 25.4318 66.8565 25.0568C66.6141 24.6818 66.4948 24.2083 66.4986 23.6364V15.1818Z" fill="white"/>
<g clip-path="url(#clip0_371_3785)">
<path d="M100.404 27.755C100.17 27.7554 99.9411 27.6805 99.7522 27.5414L91.5001 21.4582L83.2481 27.5414C83.1322 27.627 83.0007 27.6889 82.8609 27.7237C82.7211 27.7584 82.5758 27.7653 82.4333 27.7439C82.2908 27.7226 82.154 27.6734 82.0305 27.5992C81.9071 27.525 81.7995 27.4272 81.7138 27.3114C81.6282 27.1957 81.5662 27.0642 81.5315 26.9245C81.4967 26.7848 81.4898 26.6396 81.5112 26.4973C81.5543 26.2097 81.71 25.9511 81.944 25.7783L90.8481 19.2079C91.0368 19.0683 91.2654 18.9929 91.5001 18.9929C91.7349 18.9929 91.9635 19.0683 92.1522 19.2079L101.056 25.7783C101.242 25.9153 101.38 26.1074 101.45 26.3272C101.52 26.5471 101.519 26.7835 101.447 27.0027C101.375 27.2219 101.235 27.4126 101.048 27.5477C100.86 27.6828 100.635 27.7554 100.404 27.755Z" fill="white"/>
<path d="M100.404 22.0058C100.17 22.0062 99.9411 21.9314 99.7522 21.7923L91.5002 15.7091L83.2481 21.7923C83.0141 21.9651 82.721 22.0379 82.4333 21.9948C82.1456 21.9517 81.8868 21.7961 81.7138 21.5623C81.5409 21.3285 81.468 21.0356 81.5112 20.7481C81.5543 20.4606 81.71 20.202 81.944 20.0292L90.8481 13.4587C91.0368 13.3191 91.2654 13.2438 91.5002 13.2438C91.7349 13.2438 91.9635 13.3191 92.1522 13.4587L101.056 20.0292C101.242 20.1661 101.38 20.3582 101.45 20.5781C101.52 20.798 101.519 21.0344 101.447 21.2536C101.375 21.4727 101.235 21.6635 101.048 21.7986C100.86 21.9337 100.635 22.0062 100.404 22.0058Z" fill="white"/>
</g>
</g>
<defs>
<filter id="filter0_d_371_3785" x="0" y="0" width="119" height="49" filterUnits="userSpaceOnUse" color-interpolation-filters="sRGB">
<feFlood flood-opacity="0" result="BackgroundImageFix"/>
<feColorMatrix in="SourceAlpha" type="matrix" values="0 0 0 0 0 0 0 0 0 0 0 0 0 0 0 0 0 0 127 0" result="hardAlpha"/>
<feOffset dy="4"/>
<feGaussianBlur stdDeviation="2"/>
<feComposite in2="hardAlpha" operator="out"/>
<feColorMatrix type="matrix" values="0 0 0 0 0 0 0 0 0 0 0 0 0 0 0 0 0 0 0.25 0"/>
<feBlend mode="normal" in2="BackgroundImageFix" result="effect1_dropShadow_371_3785"/>
<feBlend mode="normal" in="SourceGraphic" in2="effect1_dropShadow_371_3785" result="shape"/>
</filter>
<clipPath id="clip0_371_3785">
<rect width="20" height="14.5098" fill="white" transform="translate(81.5 13.2451)"/>
</clipPath>
</defs>
</svg>
