<svg width="119" height="49" viewBox="0 0 119 49" fill="none" xmlns="http://www.w3.org/2000/svg">
<g filter="url(#filter0_d_371_3697)">
<rect x="4" y="4" width="111" height="41" rx="10" fill="white"/>
<path d="M27.5455 18.3636H28.9545V26.0682C28.9545 26.8636 28.767 27.5739 28.392 28.1989C28.0208 28.8201 27.4962 29.3106 26.8182 29.6705C26.1402 30.0265 25.3447 30.2045 24.4318 30.2045C23.5189 30.2045 22.7235 30.0265 22.0455 29.6705C21.3674 29.3106 20.8409 28.8201 20.4659 28.1989C20.0947 27.5739 19.9091 26.8636 19.9091 26.0682V18.3636H21.3182V25.9545C21.3182 26.5227 21.4432 27.0284 21.6932 27.4716C21.9432 27.911 22.2992 28.2576 22.7614 28.5114C23.2273 28.7614 23.7841 28.8864 24.4318 28.8864C25.0795 28.8864 25.6364 28.7614 26.1023 28.5114C26.5682 28.2576 26.9242 27.911 27.1705 27.4716C27.4205 27.0284 27.5455 26.5227 27.5455 25.9545V18.3636ZM31.5866 30V21.2727H32.8821V22.5909H32.973C33.1321 22.1591 33.42 21.8087 33.8366 21.5398C34.2533 21.2708 34.723 21.1364 35.2457 21.1364C35.3442 21.1364 35.4673 21.1383 35.6151 21.142C35.7628 21.1458 35.8745 21.1515 35.9503 21.1591V22.5227C35.9048 22.5114 35.8007 22.4943 35.6378 22.4716C35.4787 22.4451 35.3101 22.4318 35.1321 22.4318C34.7079 22.4318 34.3291 22.5208 33.9957 22.6989C33.6662 22.8731 33.4048 23.1155 33.2116 23.4261C33.0223 23.733 32.9276 24.0833 32.9276 24.4773V30H31.5866ZM40.7969 33.4545C40.1491 33.4545 39.5923 33.3712 39.1264 33.2045C38.6605 33.0417 38.2723 32.8258 37.9616 32.5568C37.6548 32.2917 37.4105 32.0076 37.2287 31.7045L38.2969 30.9545C38.4181 31.1136 38.5715 31.2955 38.7571 31.5C38.9427 31.7083 39.1965 31.8883 39.5185 32.0398C39.8442 32.1951 40.2704 32.2727 40.7969 32.2727C41.5014 32.2727 42.0829 32.1023 42.5412 31.7614C42.9995 31.4205 43.2287 30.8864 43.2287 30.1591V28.3864H43.1151C43.0166 28.5455 42.8764 28.7424 42.6946 28.9773C42.5166 29.2083 42.259 29.4148 41.9219 29.5966C41.5885 29.7746 41.1378 29.8636 40.5696 29.8636C39.8651 29.8636 39.2325 29.697 38.6719 29.3636C38.1151 29.0303 37.6738 28.5455 37.348 27.9091C37.026 27.2727 36.8651 26.5 36.8651 25.5909C36.8651 24.697 37.0223 23.9186 37.3366 23.2557C37.651 22.589 38.0885 22.0739 38.6491 21.7102C39.2098 21.3428 39.8575 21.1591 40.5923 21.1591C41.1605 21.1591 41.6113 21.2538 41.9446 21.4432C42.2817 21.6288 42.5393 21.8409 42.7173 22.0795C42.8991 22.3144 43.0393 22.5076 43.1378 22.6591H43.2741V21.2727H44.5696V30.25C44.5696 31 44.3991 31.6098 44.0582 32.0795C43.7211 32.553 43.2666 32.8996 42.6946 33.1193C42.1264 33.3428 41.4938 33.4545 40.7969 33.4545ZM40.7514 28.6591C41.2893 28.6591 41.7438 28.536 42.1151 28.2898C42.4863 28.0436 42.7685 27.6894 42.9616 27.2273C43.1548 26.7652 43.2514 26.2121 43.2514 25.5682C43.2514 24.9394 43.1567 24.3845 42.9673 23.9034C42.7779 23.4223 42.4976 23.0455 42.1264 22.7727C41.7552 22.5 41.2969 22.3636 40.7514 22.3636C40.1832 22.3636 39.7098 22.5076 39.331 22.7955C38.956 23.0833 38.6738 23.4697 38.4844 23.9545C38.2988 24.4394 38.206 24.9773 38.206 25.5682C38.206 26.1742 38.3007 26.7102 38.4901 27.1761C38.6832 27.6383 38.9673 28.0019 39.3423 28.267C39.7211 28.5284 40.1908 28.6591 40.7514 28.6591ZM50.6832 30.1818C49.8423 30.1818 49.117 29.9962 48.5071 29.625C47.901 29.25 47.4332 28.7273 47.1037 28.0568C46.7779 27.3826 46.6151 26.5985 46.6151 25.7045C46.6151 24.8106 46.7779 24.0227 47.1037 23.3409C47.4332 22.6553 47.8916 22.1212 48.4787 21.7386C49.0696 21.3523 49.759 21.1591 50.5469 21.1591C51.0014 21.1591 51.4503 21.2348 51.8935 21.3864C52.3366 21.5379 52.7401 21.7841 53.1037 22.125C53.4673 22.4621 53.7571 22.9091 53.973 23.4659C54.1889 24.0227 54.2969 24.7083 54.2969 25.5227V26.0909H47.5696V24.9318H52.9332C52.9332 24.4394 52.8348 24 52.6378 23.6136C52.4446 23.2273 52.1681 22.9223 51.8082 22.6989C51.4522 22.4754 51.0317 22.3636 50.5469 22.3636C50.0128 22.3636 49.5507 22.4962 49.1605 22.7614C48.7741 23.0227 48.4768 23.3636 48.2685 23.7841C48.0601 24.2045 47.956 24.6553 47.956 25.1364V25.9091C47.956 26.5682 48.0696 27.1269 48.2969 27.5852C48.5279 28.0398 48.848 28.3864 49.2571 28.625C49.6662 28.8598 50.1416 28.9773 50.6832 28.9773C51.0355 28.9773 51.3537 28.928 51.6378 28.8295C51.9257 28.7273 52.1738 28.5758 52.3821 28.375C52.5904 28.1705 52.7514 27.9167 52.8651 27.6136L54.1605 27.9773C54.0241 28.4167 53.795 28.803 53.473 29.1364C53.151 29.4659 52.7533 29.7235 52.2798 29.9091C51.8063 30.0909 51.2741 30.1818 50.6832 30.1818ZM57.6776 24.75V30H56.3366V21.2727H57.6321V22.6364H57.7457C57.9503 22.1932 58.2609 21.8371 58.6776 21.5682C59.0942 21.2955 59.6321 21.1591 60.2912 21.1591C60.8821 21.1591 61.3991 21.2803 61.8423 21.5227C62.2855 21.7614 62.6302 22.125 62.8764 22.6136C63.1226 23.0985 63.2457 23.7121 63.2457 24.4545V30H61.9048V24.5455C61.9048 23.8598 61.7268 23.3258 61.3707 22.9432C61.0147 22.5568 60.526 22.3636 59.9048 22.3636C59.4768 22.3636 59.0942 22.4564 58.7571 22.642C58.4238 22.8277 58.1605 23.0985 57.9673 23.4545C57.7741 23.8106 57.6776 24.2424 57.6776 24.75ZM69.4915 21.2727V22.4091H64.9688V21.2727H69.4915ZM66.2869 19.1818H67.6278V27.5C67.6278 27.8788 67.6828 28.1629 67.7926 28.3523C67.9063 28.5379 68.0502 28.6629 68.2244 28.7273C68.4025 28.7879 68.59 28.8182 68.7869 28.8182C68.9347 28.8182 69.0559 28.8106 69.1506 28.7955C69.2453 28.7765 69.321 28.7614 69.3778 28.75L69.6506 29.9545C69.5597 29.9886 69.4328 30.0227 69.2699 30.0568C69.107 30.0947 68.9006 30.1136 68.6506 30.1136C68.2718 30.1136 67.9006 30.0322 67.5369 29.8693C67.1771 29.7064 66.8778 29.4583 66.6392 29.125C66.4044 28.7917 66.2869 28.3712 66.2869 27.8636V19.1818Z" fill="black"/>
<g clip-path="url(#clip0_371_3697)">
<path d="M99.4043 31.755C99.1696 31.7554 98.9411 31.6805 98.7522 31.5414L90.5001 25.4582L82.2481 31.5414C82.1322 31.627 82.0007 31.6889 81.8609 31.7237C81.7211 31.7584 81.5758 31.7653 81.4333 31.7439C81.2908 31.7226 81.154 31.6734 81.0305 31.5992C80.9071 31.525 80.7995 31.4272 80.7138 31.3114C80.6282 31.1957 80.5662 31.0642 80.5315 30.9245C80.4967 30.7848 80.4898 30.6396 80.5112 30.4973C80.5543 30.2097 80.71 29.9511 80.944 29.7783L89.8481 23.2079C90.0368 23.0683 90.2654 22.9929 90.5001 22.9929C90.7349 22.9929 90.9635 23.0683 91.1522 23.2079L100.056 29.7783C100.242 29.9153 100.38 30.1074 100.45 30.3272C100.52 30.5471 100.519 30.7835 100.447 31.0027C100.375 31.2219 100.235 31.4126 100.048 31.5477C99.8604 31.6828 99.6352 31.7554 99.4043 31.755Z" fill="#FF3D00"/>
<path d="M99.4043 26.0058C99.1696 26.0062 98.9411 25.9314 98.7522 25.7923L90.5002 19.7091L82.2481 25.7923C82.0141 25.9651 81.721 26.0379 81.4333 25.9948C81.1456 25.9517 80.8868 25.7961 80.7138 25.5623C80.5409 25.3285 80.468 25.0356 80.5112 24.7481C80.5543 24.4606 80.71 24.202 80.944 24.0292L89.8481 17.4587C90.0368 17.3191 90.2654 17.2438 90.5002 17.2438C90.7349 17.2438 90.9635 17.3191 91.1522 17.4587L100.056 24.0292C100.242 24.1661 100.38 24.3582 100.45 24.5781C100.52 24.798 100.519 25.0344 100.447 25.2536C100.375 25.4727 100.235 25.6635 100.048 25.7986C99.8604 25.9337 99.6352 26.0062 99.4043 26.0058Z" fill="#FF3D00"/>
</g>
</g>
<defs>
<filter id="filter0_d_371_3697" x="0" y="0" width="119" height="49" filterUnits="userSpaceOnUse" color-interpolation-filters="sRGB">
<feFlood flood-opacity="0" result="BackgroundImageFix"/>
<feColorMatrix in="SourceAlpha" type="matrix" values="0 0 0 0 0 0 0 0 0 0 0 0 0 0 0 0 0 0 127 0" result="hardAlpha"/>
<feOffset/>
<feGaussianBlur stdDeviation="2"/>
<feColorMatrix type="matrix" values="0 0 0 0 0 0 0 0 0 0 0 0 0 0 0 0 0 0 0.1 0"/>
<feBlend mode="normal" in2="BackgroundImageFix" result="effect1_dropShadow_371_3697"/>
<feBlend mode="normal" in="SourceGraphic" in2="effect1_dropShadow_371_3697" result="shape"/>
</filter>
<clipPath id="clip0_371_3697">
<rect width="20" height="14.5098" fill="white" transform="translate(80.5 17.2451)"/>
</clipPath>
</defs>
</svg>
