<svg width="24" height="24" viewBox="0 0 24 24" fill="none" xmlns="http://www.w3.org/2000/svg">
<path d="M17.8334 2.49984H22.3335C22.6429 2.49984 22.9397 2.62275 23.1584 2.84155C23.3772 3.06034 23.5002 3.35708 23.5002 3.6665V22.3332C23.5002 22.6426 23.3772 22.9393 23.1584 23.1581C22.9397 23.3769 22.6429 23.4998 22.3335 23.4998H1.66667C1.35725 23.4998 1.0605 23.3769 0.841709 23.1581C0.622916 22.9393 0.5 22.6426 0.5 22.3332V3.6665C0.5 3.35708 0.622916 3.06034 0.841709 2.84155C1.0605 2.62275 1.35725 2.49984 1.66667 2.49984H6.16674V1.1665C6.16674 0.614219 6.61446 0.166504 7.16674 0.166504H7.50008C8.05236 0.166504 8.50007 0.614219 8.50007 1.1665V2.49984H15.5001V1.1665C15.5001 0.614219 15.9478 0.166504 16.5001 0.166504H16.8334C17.3857 0.166504 17.8334 0.614219 17.8334 1.1665V2.49984ZM2.50016 8.99984V21.4998H21.5002V8.99984H2.50016ZM5.00005 15.1665C5.00006 14.6142 5.44778 14.1665 6.00005 14.1665H9.83341C10.3857 14.1665 10.8334 14.6142 10.8334 15.1665V16.4998C10.8334 17.0521 10.3857 17.4998 9.83341 17.4998H6.00002C5.44773 17.4998 5.00001 17.0521 5.00002 16.4998L5.00005 15.1665Z" fill="black"/>
</svg>
