<svg width="24" height="24" viewBox="0 0 24 24" fill="none" xmlns="http://www.w3.org/2000/svg">
<path d="M17.8333 2.49999H22.3334C22.6428 2.49999 22.9395 2.62291 23.1583 2.8417C23.3771 3.06049 23.5 3.35724 23.5 3.66666V22.3333C23.5 22.6427 23.3771 22.9395 23.1583 23.1583C22.9395 23.3771 22.6428 23.5 22.3334 23.5H1.66654C1.35713 23.5 1.06038 23.3771 0.841587 23.1583C0.622794 22.9395 0.499878 22.6427 0.499878 22.3333V3.66666C0.499878 3.35724 0.622794 3.06049 0.841587 2.8417C1.06038 2.62291 1.35713 2.49999 1.66654 2.49999H6.16662V1.16666C6.16662 0.614372 6.61433 0.166656 7.16662 0.166656H7.49995C8.05224 0.166656 8.49995 0.614372 8.49995 1.16666V2.49999H15.5V1.16666C15.5 0.614372 15.9477 0.166656 16.5 0.166656H16.8333C17.3856 0.166656 17.8333 0.614372 17.8333 1.16666V2.49999ZM2.50003 8.99999V21.5H21.5V8.99999H2.50003ZM4.99993 15.1666C4.99994 14.6144 5.44765 14.1667 5.99993 14.1667H9.83328C10.3856 14.1667 10.8333 14.6144 10.8333 15.1667V16.5C10.8333 17.0523 10.3856 17.5 9.83328 17.5H5.9999C5.44761 17.5 4.99989 17.0523 4.9999 16.5L4.99993 15.1666Z" fill="black"/>
</svg>
