<svg width="60" height="60" viewBox="0 0 60 60" fill="none" xmlns="http://www.w3.org/2000/svg">
<circle cx="30" cy="30" r="30" fill="#FF3D00"/>
<g clip-path="url(#clip0_62_691)">
<path d="M44.8709 41.1631C44.4699 41.1638 44.0792 41.0342 43.7563 40.7934L29.6511 30.2635L15.5458 40.7934C15.3478 40.9415 15.1229 41.0487 14.8839 41.1089C14.645 41.169 14.3966 41.181 14.1531 41.144C13.9096 41.107 13.6757 41.0219 13.4647 40.8934C13.2536 40.765 13.0697 40.5957 12.9233 40.3954C12.777 40.195 12.6711 39.9674 12.6116 39.7255C12.5522 39.4837 12.5404 39.2324 12.5769 38.986C12.6507 38.4883 12.9168 38.0407 13.3167 37.7416L28.5365 26.3681C28.8591 26.1265 29.2498 25.9961 29.6511 25.9961C30.0524 25.9961 30.4431 26.1265 30.7657 26.3681L45.9855 37.7416C46.3033 37.9786 46.5389 38.3111 46.6588 38.6917C46.7788 39.0723 46.7768 39.4815 46.6532 39.8609C46.5296 40.2403 46.2907 40.5705 45.9706 40.8044C45.6506 41.0382 45.2657 41.1637 44.8709 41.1631Z" fill="white"/>
<path d="M44.8708 31.2111C44.4697 31.2118 44.0791 31.0823 43.7562 30.8415L29.651 20.3116L15.5457 30.8415C15.1458 31.1406 14.6448 31.2668 14.153 31.1921C13.6612 31.1174 13.2188 30.8481 12.9232 30.4434C12.6276 30.0387 12.503 29.5318 12.5768 29.0341C12.6506 28.5364 12.9167 28.0888 13.3166 27.7896L28.5364 16.4162C28.859 16.1746 29.2497 16.0442 29.651 16.0442C30.0523 16.0442 30.443 16.1746 30.7655 16.4162L45.9854 27.7896C46.3031 28.0267 46.5388 28.3592 46.6587 28.7398C46.7786 29.1204 46.7767 29.5296 46.6531 29.909C46.5295 30.2884 46.2906 30.6186 45.9705 30.8525C45.6505 31.0863 45.2656 31.2118 44.8708 31.2111Z" fill="white"/>
</g>
<defs>
<clipPath id="clip0_62_691">
<rect width="34.186" height="25.1163" fill="white" transform="translate(12.5581 16.0466)"/>
</clipPath>
</defs>
</svg>
